%TF.GenerationSoftware,KiCad,Pcbnew,7.0.5*%
%TF.CreationDate,2023-06-28T09:46:49+02:00*%
%TF.ProjectId,ESP32RIO,45535033-3252-4494-9f2e-6b696361645f,rev?*%
%TF.SameCoordinates,Original*%
%TF.FileFunction,Copper,L3,Inr*%
%TF.FilePolarity,Positive*%
%FSLAX46Y46*%
G04 Gerber Fmt 4.6, Leading zero omitted, Abs format (unit mm)*
G04 Created by KiCad (PCBNEW 7.0.5) date 2023-06-28 09:46:49*
%MOMM*%
%LPD*%
G01*
G04 APERTURE LIST*
G04 Aperture macros list*
%AMFreePoly0*
4,1,19,-0.850000,0.255000,-0.829726,0.408997,-0.770285,0.552500,-0.675729,0.675729,-0.552500,0.770285,-0.408997,0.829726,-0.255000,0.850000,0.510000,0.850000,0.850000,0.510000,0.850000,-0.255000,0.829726,-0.408997,0.770285,-0.552500,0.675729,-0.675729,0.552500,-0.770285,0.408997,-0.829726,0.255000,-0.850000,-0.510000,-0.850000,-0.850000,-0.510000,-0.850000,0.255000,-0.850000,0.255000,
$1*%
G04 Aperture macros list end*
%TA.AperFunction,ComponentPad*%
%ADD10C,1.400000*%
%TD*%
%TA.AperFunction,ComponentPad*%
%ADD11O,1.400000X1.400000*%
%TD*%
%TA.AperFunction,ComponentPad*%
%ADD12R,1.200000X1.200000*%
%TD*%
%TA.AperFunction,ComponentPad*%
%ADD13C,1.200000*%
%TD*%
%TA.AperFunction,ComponentPad*%
%ADD14R,1.600000X1.600000*%
%TD*%
%TA.AperFunction,ComponentPad*%
%ADD15O,1.600000X1.600000*%
%TD*%
%TA.AperFunction,ComponentPad*%
%ADD16R,2.600000X2.600000*%
%TD*%
%TA.AperFunction,ComponentPad*%
%ADD17C,2.600000*%
%TD*%
%TA.AperFunction,ComponentPad*%
%ADD18C,1.700000*%
%TD*%
%TA.AperFunction,ComponentPad*%
%ADD19FreePoly0,180.000000*%
%TD*%
%TA.AperFunction,ViaPad*%
%ADD20C,0.500000*%
%TD*%
%TA.AperFunction,ViaPad*%
%ADD21C,0.800000*%
%TD*%
%TA.AperFunction,Conductor*%
%ADD22C,1.000000*%
%TD*%
%TA.AperFunction,Conductor*%
%ADD23C,3.000000*%
%TD*%
%TA.AperFunction,Conductor*%
%ADD24C,0.250000*%
%TD*%
G04 APERTURE END LIST*
D10*
%TO.N,GND*%
%TO.C,R17*%
X119220000Y-107750000D03*
D11*
%TO.N,Net-(J2-Pin_11)*%
X116680000Y-107750000D03*
%TD*%
D12*
%TO.N,GND*%
%TO.C,C4*%
X175500000Y-70500000D03*
D13*
%TO.N,Net-(J1-Pin_10)*%
X175500000Y-68500000D03*
%TD*%
D14*
%TO.N,Net-(R8-Pad1)*%
%TO.C,U8*%
X121950000Y-91475000D03*
D15*
%TO.N,GND*%
X121950000Y-94015000D03*
X129570000Y-94015000D03*
%TO.N,Net-(U11-GPIO33)*%
X129570000Y-91475000D03*
%TD*%
D14*
%TO.N,Net-(R4-Pad1)*%
%TO.C,U4*%
X121950000Y-71475000D03*
D15*
%TO.N,GND*%
X121950000Y-74015000D03*
X129570000Y-74015000D03*
%TO.N,Net-(U11-GPIO37)*%
X129570000Y-71475000D03*
%TD*%
D10*
%TO.N,Net-(R7-Pad1)*%
%TO.C,R7*%
X119220000Y-88000000D03*
D11*
%TO.N,Net-(J2-Pin_7)*%
X116680000Y-88000000D03*
%TD*%
D10*
%TO.N,Net-(R3-Pad1)*%
%TO.C,R3*%
X119470000Y-67750000D03*
D11*
%TO.N,Net-(J2-Pin_3)*%
X116930000Y-67750000D03*
%TD*%
D14*
%TO.N,Net-(R1-Pad1)*%
%TO.C,U1*%
X121950000Y-56225000D03*
D15*
%TO.N,GND*%
X121950000Y-58765000D03*
X129570000Y-58765000D03*
%TO.N,Net-(U11-GPIO40)*%
X129570000Y-56225000D03*
%TD*%
D10*
%TO.N,Net-(R11-Pad1)*%
%TO.C,R11*%
X167002032Y-77102460D03*
D11*
%TO.N,Net-(U11-GPIO8)*%
X164462032Y-77102460D03*
%TD*%
D14*
%TO.N,Net-(R10-Pad1)*%
%TO.C,U10*%
X121950000Y-101475000D03*
D15*
%TO.N,GND*%
X121950000Y-104015000D03*
X129570000Y-104015000D03*
%TO.N,Net-(U11-GPIO18)*%
X129570000Y-101475000D03*
%TD*%
D14*
%TO.N,Net-(R13-Pad1)*%
%TO.C,U14*%
X169482032Y-87234126D03*
D15*
%TO.N,GND*%
X169482032Y-89774126D03*
%TO.N,Net-(J1-Pin_4)*%
X177102032Y-89774126D03*
%TO.N,Net-(J1-Pin_6)*%
X177102032Y-87234126D03*
%TD*%
D14*
%TO.N,Net-(R14-Pad1)*%
%TO.C,U16*%
X169482032Y-92327459D03*
D15*
%TO.N,GND*%
X169482032Y-94867459D03*
%TO.N,Net-(J1-Pin_4)*%
X177102032Y-94867459D03*
%TO.N,Net-(J1-Pin_5)*%
X177102032Y-92327459D03*
%TD*%
D10*
%TO.N,Net-(R13-Pad1)*%
%TO.C,R13*%
X167002032Y-87102460D03*
D11*
%TO.N,Net-(U11-GPIO10)*%
X164462032Y-87102460D03*
%TD*%
D10*
%TO.N,Net-(J1-Pin_1)*%
%TO.C,R15*%
X175750000Y-110720000D03*
D11*
%TO.N,Net-(J1-Pin_2)*%
X175750000Y-108180000D03*
%TD*%
D10*
%TO.N,Net-(R6-Pad1)*%
%TO.C,R6*%
X119220000Y-83000000D03*
D11*
%TO.N,Net-(J2-Pin_6)*%
X116680000Y-83000000D03*
%TD*%
D14*
%TO.N,Net-(R9-Pad1)*%
%TO.C,U9*%
X121950000Y-96475000D03*
D15*
%TO.N,GND*%
X121950000Y-99015000D03*
X129570000Y-99015000D03*
%TO.N,Net-(U11-GPIO21)*%
X129570000Y-96475000D03*
%TD*%
D10*
%TO.N,Net-(R4-Pad1)*%
%TO.C,R4*%
X119470000Y-72750000D03*
D11*
%TO.N,Net-(J2-Pin_4)*%
X116930000Y-72750000D03*
%TD*%
D10*
%TO.N,Net-(R12-Pad1)*%
%TO.C,R12*%
X167032032Y-82102460D03*
D11*
%TO.N,Net-(U11-GPIO9)*%
X164492032Y-82102460D03*
%TD*%
D10*
%TO.N,Net-(R9-Pad1)*%
%TO.C,R9*%
X119220000Y-97750000D03*
D11*
%TO.N,Net-(J2-Pin_9)*%
X116680000Y-97750000D03*
%TD*%
D10*
%TO.N,Net-(R1-Pad1)*%
%TO.C,R1*%
X119470000Y-57750000D03*
D11*
%TO.N,Net-(J2-Pin_1)*%
X116930000Y-57750000D03*
%TD*%
D10*
%TO.N,Net-(R10-Pad1)*%
%TO.C,R10*%
X119220000Y-102669888D03*
D11*
%TO.N,Net-(J2-Pin_10)*%
X116680000Y-102669888D03*
%TD*%
D10*
%TO.N,Net-(R8-Pad1)*%
%TO.C,R8*%
X119220000Y-92750000D03*
D11*
%TO.N,Net-(J2-Pin_8)*%
X116680000Y-92750000D03*
%TD*%
D14*
%TO.N,Net-(R11-Pad1)*%
%TO.C,U12*%
X169462032Y-77047460D03*
D15*
%TO.N,GND*%
X169462032Y-79587460D03*
%TO.N,Net-(J1-Pin_4)*%
X177082032Y-79587460D03*
%TO.N,Net-(J1-Pin_8)*%
X177082032Y-77047460D03*
%TD*%
D16*
%TO.N,Net-(J1-Pin_1)*%
%TO.C,J1*%
X184000000Y-112250000D03*
D17*
%TO.N,Net-(J1-Pin_2)*%
X184000000Y-107250000D03*
%TO.N,+24V*%
X184000000Y-102250000D03*
%TO.N,Net-(J1-Pin_4)*%
X184000000Y-97250000D03*
%TO.N,Net-(J1-Pin_5)*%
X184000000Y-92250000D03*
%TO.N,Net-(J1-Pin_6)*%
X184000000Y-87250000D03*
%TO.N,Net-(J1-Pin_7)*%
X184000000Y-82250000D03*
%TO.N,Net-(J1-Pin_8)*%
X184000000Y-77250000D03*
%TO.N,GND*%
X184000000Y-72250000D03*
%TO.N,Net-(J1-Pin_10)*%
X184000000Y-67250000D03*
%TO.N,Net-(J1-Pin_11)*%
X184000000Y-62250000D03*
%TO.N,Net-(J1-Pin_12)*%
X184000000Y-57250000D03*
%TD*%
D10*
%TO.N,Net-(R2-Pad1)*%
%TO.C,R2*%
X119470000Y-63000000D03*
D11*
%TO.N,Net-(J2-Pin_2)*%
X116930000Y-63000000D03*
%TD*%
D10*
%TO.N,GND*%
%TO.C,R16*%
X119220000Y-112750000D03*
D11*
%TO.N,Net-(J2-Pin_12)*%
X116680000Y-112750000D03*
%TD*%
D14*
%TO.N,Net-(R3-Pad1)*%
%TO.C,U3*%
X121950000Y-66475000D03*
D15*
%TO.N,GND*%
X121950000Y-69015000D03*
X129570000Y-69015000D03*
%TO.N,Net-(U11-GPIO38)*%
X129570000Y-66475000D03*
%TD*%
D14*
%TO.N,Net-(R12-Pad1)*%
%TO.C,U13*%
X169482032Y-82140793D03*
D15*
%TO.N,GND*%
X169482032Y-84680793D03*
%TO.N,Net-(J1-Pin_4)*%
X177102032Y-84680793D03*
%TO.N,Net-(J1-Pin_7)*%
X177102032Y-82140793D03*
%TD*%
D14*
%TO.N,Net-(R7-Pad1)*%
%TO.C,U7*%
X121950000Y-86475000D03*
D15*
%TO.N,GND*%
X121950000Y-89015000D03*
X129570000Y-89015000D03*
%TO.N,Net-(U11-GPIO34)*%
X129570000Y-86475000D03*
%TD*%
D10*
%TO.N,Net-(R5-Pad1)*%
%TO.C,R5*%
X119220000Y-77750000D03*
D11*
%TO.N,Net-(J2-Pin_5)*%
X116680000Y-77750000D03*
%TD*%
D14*
%TO.N,Net-(R5-Pad1)*%
%TO.C,U5*%
X121950000Y-76475000D03*
D15*
%TO.N,GND*%
X121950000Y-79015000D03*
X129570000Y-79015000D03*
%TO.N,Net-(U11-GPIO36)*%
X129570000Y-76475000D03*
%TD*%
D14*
%TO.N,Net-(R6-Pad1)*%
%TO.C,U6*%
X121950000Y-81475000D03*
D15*
%TO.N,GND*%
X121950000Y-84015000D03*
X129570000Y-84015000D03*
%TO.N,Net-(U11-GPIO35)*%
X129570000Y-81475000D03*
%TD*%
D10*
%TO.N,Net-(R14-Pad1)*%
%TO.C,R14*%
X167002032Y-92102460D03*
D11*
%TO.N,Net-(U11-GPIO11)*%
X164462032Y-92102460D03*
%TD*%
D14*
%TO.N,Net-(R2-Pad1)*%
%TO.C,U2*%
X121950000Y-61475000D03*
D15*
%TO.N,GND*%
X121950000Y-64015000D03*
X129570000Y-64015000D03*
%TO.N,Net-(U11-GPIO39)*%
X129570000Y-61475000D03*
%TD*%
D16*
%TO.N,Net-(J2-Pin_1)*%
%TO.C,J2*%
X109500000Y-57750000D03*
D17*
%TO.N,Net-(J2-Pin_2)*%
X109500000Y-62750000D03*
%TO.N,Net-(J2-Pin_3)*%
X109500000Y-67750000D03*
%TO.N,Net-(J2-Pin_4)*%
X109500000Y-72750000D03*
%TO.N,Net-(J2-Pin_5)*%
X109500000Y-77750000D03*
%TO.N,Net-(J2-Pin_6)*%
X109500000Y-82750000D03*
%TO.N,Net-(J2-Pin_7)*%
X109500000Y-87750000D03*
%TO.N,Net-(J2-Pin_8)*%
X109500000Y-92750000D03*
%TO.N,Net-(J2-Pin_9)*%
X109500000Y-97750000D03*
%TO.N,Net-(J2-Pin_10)*%
X109500000Y-102750000D03*
%TO.N,Net-(J2-Pin_11)*%
X109500000Y-107750000D03*
%TO.N,Net-(J2-Pin_12)*%
X109500000Y-112750000D03*
%TD*%
D18*
%TO.N,Net-(U11-GPIO40)*%
%TO.C,U11*%
X139842500Y-73805000D03*
%TO.N,Net-(U11-GPIO38)*%
X139842500Y-76345000D03*
%TO.N,Net-(U11-GPIO36)*%
X139842500Y-78885000D03*
%TO.N,Net-(U11-GPIO34)*%
X139842500Y-81425000D03*
%TO.N,Net-(U11-GPIO21)*%
X139842500Y-83965000D03*
%TO.N,Net-(J2-Pin_12)*%
X139842500Y-86505000D03*
%TO.N,GND*%
X139842500Y-89045000D03*
%TO.N,unconnected-(U11-GPIO15-Pad25)*%
X139842500Y-91585000D03*
%TO.N,/TX-O*%
X157622500Y-91585000D03*
%TO.N,/RTS*%
X157622500Y-89045000D03*
%TO.N,Net-(U11-GPIO10)*%
X157622500Y-86505000D03*
%TO.N,Net-(U11-GPIO8)*%
X157622500Y-83965000D03*
%TO.N,unconnected-(U11-GPIO6-Pad20)*%
X157622500Y-81425000D03*
%TO.N,unconnected-(U11-GPIO4-Pad19)*%
X157622500Y-78885000D03*
%TO.N,Net-(U11-GPIO2)*%
X157622500Y-76345000D03*
%TO.N,unconnected-(U11-GPIO1-Pad17)*%
X157622500Y-73805000D03*
%TO.N,Net-(U11-GPIO39)*%
X137302500Y-73805000D03*
%TO.N,Net-(U11-GPIO37)*%
X137302500Y-76345000D03*
%TO.N,Net-(U11-GPIO35)*%
X137302500Y-78885000D03*
%TO.N,Net-(U11-GPIO33)*%
X137302500Y-81425000D03*
%TO.N,Net-(U11-GPIO18)*%
X137302500Y-83965000D03*
%TO.N,Net-(J2-Pin_11)*%
X137302500Y-86505000D03*
%TO.N,GND*%
X137302500Y-89045000D03*
%TO.N,Net-(U11-VBUS)*%
X137302500Y-91585000D03*
%TO.N,Net-(U11-3V3)*%
X160162500Y-91585000D03*
%TO.N,/RX-I*%
X160162500Y-89045000D03*
%TO.N,Net-(U11-GPIO11)*%
X160162500Y-86505000D03*
%TO.N,Net-(U11-GPIO9)*%
X160162500Y-83965000D03*
%TO.N,unconnected-(U11-GPIO7-Pad4)*%
X160162500Y-81425000D03*
%TO.N,unconnected-(U11-GPIO5-Pad3)*%
X160162500Y-78885000D03*
%TO.N,Net-(U11-GPIO3)*%
X160162500Y-76345000D03*
D19*
%TO.N,unconnected-(U11-EN-Pad1)*%
X160162500Y-73805000D03*
%TD*%
D20*
%TO.N,Net-(J1-Pin_11)*%
X177000000Y-62750000D03*
X176000000Y-62750000D03*
X176000000Y-61750000D03*
X177000000Y-61750000D03*
X177250000Y-62250000D03*
X176500000Y-63000000D03*
X175750000Y-62250000D03*
X176500000Y-61500000D03*
X176500000Y-62250000D03*
%TO.N,GND*%
X142000000Y-113500000D03*
X142000000Y-110500000D03*
X142000000Y-111500000D03*
X142000000Y-114500000D03*
X142000000Y-112500000D03*
X141000000Y-114500000D03*
X140000000Y-114500000D03*
X138000000Y-114500000D03*
X139000000Y-114500000D03*
X146000000Y-114500000D03*
X146000000Y-113500000D03*
X145000000Y-113500000D03*
X145000000Y-114500000D03*
X146000000Y-111500000D03*
X143000000Y-113500000D03*
X144000000Y-114500000D03*
X143000000Y-111500000D03*
X143000000Y-112500000D03*
X146000000Y-112500000D03*
X144000000Y-112500000D03*
X144000000Y-113500000D03*
X145000000Y-112500000D03*
X145000000Y-111500000D03*
X144000000Y-111500000D03*
X143000000Y-114500000D03*
X146000000Y-110750000D03*
X146000000Y-109750000D03*
X145000000Y-109750000D03*
X145000000Y-110750000D03*
X146000000Y-107750000D03*
X143000000Y-109750000D03*
X144000000Y-110750000D03*
X143000000Y-107750000D03*
X143000000Y-108750000D03*
X146000000Y-108750000D03*
X144000000Y-108750000D03*
X144000000Y-109750000D03*
X145000000Y-108750000D03*
X145000000Y-107750000D03*
X144000000Y-107750000D03*
X143000000Y-110750000D03*
X141000000Y-113500000D03*
X141000000Y-112500000D03*
X140000000Y-112500000D03*
X140000000Y-113500000D03*
X141000000Y-110500000D03*
X138000000Y-112500000D03*
X139000000Y-113500000D03*
X138000000Y-110500000D03*
X138000000Y-111500000D03*
X141000000Y-111500000D03*
X139000000Y-111500000D03*
X139000000Y-112500000D03*
X140000000Y-111500000D03*
X140000000Y-110500000D03*
X139000000Y-110500000D03*
X138000000Y-113500000D03*
X142000000Y-109750000D03*
X142000000Y-107750000D03*
X142000000Y-108750000D03*
X141000000Y-109750000D03*
X141000000Y-107750000D03*
X141000000Y-108750000D03*
X140000000Y-109750000D03*
X140000000Y-107750000D03*
X140000000Y-108750000D03*
X139000000Y-109750000D03*
X139000000Y-107750000D03*
X139000000Y-108750000D03*
X146000000Y-106750000D03*
X146000000Y-104750000D03*
X146000000Y-105750000D03*
X145000000Y-106750000D03*
X145000000Y-104750000D03*
X145000000Y-105750000D03*
X144000000Y-106750000D03*
X144000000Y-104750000D03*
X144000000Y-105750000D03*
X143000000Y-106750000D03*
X143000000Y-104750000D03*
X143000000Y-105750000D03*
X142000000Y-106750000D03*
X142000000Y-104750000D03*
X142000000Y-105750000D03*
X141000000Y-106750000D03*
X141000000Y-104750000D03*
X141000000Y-105750000D03*
X140000000Y-106750000D03*
X140000000Y-104750000D03*
X140000000Y-105750000D03*
X139000000Y-106750000D03*
X139000000Y-104750000D03*
X139000000Y-105750000D03*
X138000000Y-109750000D03*
X138000000Y-108750000D03*
X138000000Y-107750000D03*
X138000000Y-106750000D03*
X138000000Y-105750000D03*
X138000000Y-104750000D03*
X171750000Y-62750000D03*
X171000000Y-62750000D03*
X170250000Y-62750000D03*
X170250000Y-62000000D03*
X171000000Y-62000000D03*
X171750000Y-62000000D03*
X171750000Y-61250000D03*
X171000000Y-61250000D03*
X170250000Y-61250000D03*
X171750000Y-60500000D03*
X171000000Y-60500000D03*
X170250000Y-60500000D03*
%TO.N,Net-(J1-Pin_10)*%
X174750000Y-67500000D03*
X174500000Y-67000000D03*
X175250000Y-67750000D03*
X175250000Y-67000000D03*
X175750000Y-66500000D03*
X174750000Y-66500000D03*
X176000000Y-67000000D03*
X175750000Y-67500000D03*
X175250000Y-66250000D03*
%TO.N,Net-(J1-Pin_12)*%
X176000000Y-57750000D03*
X177000000Y-57750000D03*
X176000000Y-56750000D03*
X176500000Y-58000000D03*
X175750000Y-57250000D03*
X176500000Y-57250000D03*
X177250000Y-57250000D03*
X176500000Y-56500000D03*
D21*
%TO.N,Net-(U11-VBUS)*%
X155250000Y-107000000D03*
%TO.N,+24V*%
X156250000Y-111500000D03*
X157250000Y-111500000D03*
%TO.N,Net-(U11-3V3)*%
X171500000Y-106250000D03*
%TO.N,/RX-I*%
X165000000Y-111500000D03*
%TO.N,/RTS*%
X165000000Y-108750000D03*
%TO.N,/TX-O*%
X165000000Y-107750000D03*
%TO.N,Net-(U11-GPIO3)*%
X167000000Y-62500000D03*
%TO.N,Net-(U11-GPIO2)*%
X167000000Y-61000000D03*
D20*
%TO.N,Net-(J1-Pin_12)*%
X177000000Y-56750000D03*
%TD*%
D22*
%TO.N,Net-(U11-VBUS)*%
X155250000Y-104250000D02*
X155250000Y-107000000D01*
X137302500Y-91585000D02*
X149967500Y-104250000D01*
X149967500Y-104250000D02*
X155250000Y-104250000D01*
D23*
%TO.N,+24V*%
X166500000Y-102250000D02*
X157250000Y-111500000D01*
X184000000Y-102250000D02*
X166500000Y-102250000D01*
D24*
%TO.N,Net-(U11-GPIO11)*%
X164462032Y-92102460D02*
X164462032Y-90804532D01*
X164462032Y-90804532D02*
X160162500Y-86505000D01*
D22*
%TO.N,Net-(J1-Pin_4)*%
X184000000Y-97250000D02*
X181250000Y-94500000D01*
X181250000Y-94500000D02*
X179500000Y-94500000D01*
X179500000Y-94500000D02*
X179500000Y-89750000D01*
X179500000Y-89750000D02*
X179500000Y-84750000D01*
X177102032Y-89774126D02*
X179475874Y-89774126D01*
X179475874Y-89774126D02*
X179500000Y-89750000D01*
X179500000Y-84750000D02*
X179500000Y-81500000D01*
X177102032Y-84680793D02*
X179430793Y-84680793D01*
X179430793Y-84680793D02*
X179500000Y-84750000D01*
X177102032Y-94867459D02*
X179132541Y-94867459D01*
X179132541Y-94867459D02*
X179500000Y-94500000D01*
X179500000Y-81500000D02*
X177587460Y-79587460D01*
X177587460Y-79587460D02*
X177082032Y-79587460D01*
%TD*%
M02*
