%TF.GenerationSoftware,KiCad,Pcbnew,7.0.5*%
%TF.CreationDate,2023-06-28T09:46:49+02:00*%
%TF.ProjectId,ESP32RIO,45535033-3252-4494-9f2e-6b696361645f,rev?*%
%TF.SameCoordinates,Original*%
%TF.FileFunction,Soldermask,Bot*%
%TF.FilePolarity,Negative*%
%FSLAX46Y46*%
G04 Gerber Fmt 4.6, Leading zero omitted, Abs format (unit mm)*
G04 Created by KiCad (PCBNEW 7.0.5) date 2023-06-28 09:46:49*
%MOMM*%
%LPD*%
G01*
G04 APERTURE LIST*
G04 Aperture macros list*
%AMFreePoly0*
4,1,19,-0.850000,0.255000,-0.829726,0.408997,-0.770285,0.552500,-0.675729,0.675729,-0.552500,0.770285,-0.408997,0.829726,-0.255000,0.850000,0.510000,0.850000,0.850000,0.510000,0.850000,-0.255000,0.829726,-0.408997,0.770285,-0.552500,0.675729,-0.675729,0.552500,-0.770285,0.408997,-0.829726,0.255000,-0.850000,-0.510000,-0.850000,-0.850000,-0.510000,-0.850000,0.255000,-0.850000,0.255000,
$1*%
G04 Aperture macros list end*
%ADD10C,1.400000*%
%ADD11O,1.400000X1.400000*%
%ADD12R,1.200000X1.200000*%
%ADD13C,1.200000*%
%ADD14R,1.600000X1.600000*%
%ADD15O,1.600000X1.600000*%
%ADD16R,2.600000X2.600000*%
%ADD17C,2.600000*%
%ADD18C,1.700000*%
%ADD19FreePoly0,180.000000*%
G04 APERTURE END LIST*
D10*
%TO.C,R17*%
X119220000Y-107750000D03*
D11*
X116680000Y-107750000D03*
%TD*%
D12*
%TO.C,C4*%
X175500000Y-70500000D03*
D13*
X175500000Y-68500000D03*
%TD*%
D14*
%TO.C,U8*%
X121950000Y-91475000D03*
D15*
X121950000Y-94015000D03*
X129570000Y-94015000D03*
X129570000Y-91475000D03*
%TD*%
D14*
%TO.C,U4*%
X121950000Y-71475000D03*
D15*
X121950000Y-74015000D03*
X129570000Y-74015000D03*
X129570000Y-71475000D03*
%TD*%
D10*
%TO.C,R7*%
X119220000Y-88000000D03*
D11*
X116680000Y-88000000D03*
%TD*%
D10*
%TO.C,R3*%
X119470000Y-67750000D03*
D11*
X116930000Y-67750000D03*
%TD*%
D14*
%TO.C,U1*%
X121950000Y-56225000D03*
D15*
X121950000Y-58765000D03*
X129570000Y-58765000D03*
X129570000Y-56225000D03*
%TD*%
D10*
%TO.C,R11*%
X167002032Y-77102460D03*
D11*
X164462032Y-77102460D03*
%TD*%
D14*
%TO.C,U10*%
X121950000Y-101475000D03*
D15*
X121950000Y-104015000D03*
X129570000Y-104015000D03*
X129570000Y-101475000D03*
%TD*%
D14*
%TO.C,U14*%
X169482032Y-87234126D03*
D15*
X169482032Y-89774126D03*
X177102032Y-89774126D03*
X177102032Y-87234126D03*
%TD*%
D14*
%TO.C,U16*%
X169482032Y-92327459D03*
D15*
X169482032Y-94867459D03*
X177102032Y-94867459D03*
X177102032Y-92327459D03*
%TD*%
D10*
%TO.C,R13*%
X167002032Y-87102460D03*
D11*
X164462032Y-87102460D03*
%TD*%
D10*
%TO.C,R15*%
X175750000Y-110720000D03*
D11*
X175750000Y-108180000D03*
%TD*%
D10*
%TO.C,R6*%
X119220000Y-83000000D03*
D11*
X116680000Y-83000000D03*
%TD*%
D14*
%TO.C,U9*%
X121950000Y-96475000D03*
D15*
X121950000Y-99015000D03*
X129570000Y-99015000D03*
X129570000Y-96475000D03*
%TD*%
D10*
%TO.C,R4*%
X119470000Y-72750000D03*
D11*
X116930000Y-72750000D03*
%TD*%
D10*
%TO.C,R12*%
X167032032Y-82102460D03*
D11*
X164492032Y-82102460D03*
%TD*%
D10*
%TO.C,R9*%
X119220000Y-97750000D03*
D11*
X116680000Y-97750000D03*
%TD*%
D10*
%TO.C,R1*%
X119470000Y-57750000D03*
D11*
X116930000Y-57750000D03*
%TD*%
D10*
%TO.C,R10*%
X119220000Y-102669888D03*
D11*
X116680000Y-102669888D03*
%TD*%
D10*
%TO.C,R8*%
X119220000Y-92750000D03*
D11*
X116680000Y-92750000D03*
%TD*%
D14*
%TO.C,U12*%
X169462032Y-77047460D03*
D15*
X169462032Y-79587460D03*
X177082032Y-79587460D03*
X177082032Y-77047460D03*
%TD*%
D16*
%TO.C,J1*%
X184000000Y-112250000D03*
D17*
X184000000Y-107250000D03*
X184000000Y-102250000D03*
X184000000Y-97250000D03*
X184000000Y-92250000D03*
X184000000Y-87250000D03*
X184000000Y-82250000D03*
X184000000Y-77250000D03*
X184000000Y-72250000D03*
X184000000Y-67250000D03*
X184000000Y-62250000D03*
X184000000Y-57250000D03*
%TD*%
D10*
%TO.C,R2*%
X119470000Y-63000000D03*
D11*
X116930000Y-63000000D03*
%TD*%
D10*
%TO.C,R16*%
X119220000Y-112750000D03*
D11*
X116680000Y-112750000D03*
%TD*%
D14*
%TO.C,U3*%
X121950000Y-66475000D03*
D15*
X121950000Y-69015000D03*
X129570000Y-69015000D03*
X129570000Y-66475000D03*
%TD*%
D14*
%TO.C,U13*%
X169482032Y-82140793D03*
D15*
X169482032Y-84680793D03*
X177102032Y-84680793D03*
X177102032Y-82140793D03*
%TD*%
D14*
%TO.C,U7*%
X121950000Y-86475000D03*
D15*
X121950000Y-89015000D03*
X129570000Y-89015000D03*
X129570000Y-86475000D03*
%TD*%
D10*
%TO.C,R5*%
X119220000Y-77750000D03*
D11*
X116680000Y-77750000D03*
%TD*%
D14*
%TO.C,U5*%
X121950000Y-76475000D03*
D15*
X121950000Y-79015000D03*
X129570000Y-79015000D03*
X129570000Y-76475000D03*
%TD*%
D14*
%TO.C,U6*%
X121950000Y-81475000D03*
D15*
X121950000Y-84015000D03*
X129570000Y-84015000D03*
X129570000Y-81475000D03*
%TD*%
D10*
%TO.C,R14*%
X167002032Y-92102460D03*
D11*
X164462032Y-92102460D03*
%TD*%
D14*
%TO.C,U2*%
X121950000Y-61475000D03*
D15*
X121950000Y-64015000D03*
X129570000Y-64015000D03*
X129570000Y-61475000D03*
%TD*%
D16*
%TO.C,J2*%
X109500000Y-57750000D03*
D17*
X109500000Y-62750000D03*
X109500000Y-67750000D03*
X109500000Y-72750000D03*
X109500000Y-77750000D03*
X109500000Y-82750000D03*
X109500000Y-87750000D03*
X109500000Y-92750000D03*
X109500000Y-97750000D03*
X109500000Y-102750000D03*
X109500000Y-107750000D03*
X109500000Y-112750000D03*
%TD*%
D18*
%TO.C,U11*%
X139842500Y-73805000D03*
X139842500Y-76345000D03*
X139842500Y-78885000D03*
X139842500Y-81425000D03*
X139842500Y-83965000D03*
X139842500Y-86505000D03*
X139842500Y-89045000D03*
X139842500Y-91585000D03*
X157622500Y-91585000D03*
X157622500Y-89045000D03*
X157622500Y-86505000D03*
X157622500Y-83965000D03*
X157622500Y-81425000D03*
X157622500Y-78885000D03*
X157622500Y-76345000D03*
X157622500Y-73805000D03*
X137302500Y-73805000D03*
X137302500Y-76345000D03*
X137302500Y-78885000D03*
X137302500Y-81425000D03*
X137302500Y-83965000D03*
X137302500Y-86505000D03*
X137302500Y-89045000D03*
X137302500Y-91585000D03*
X160162500Y-91585000D03*
X160162500Y-89045000D03*
X160162500Y-86505000D03*
X160162500Y-83965000D03*
X160162500Y-81425000D03*
X160162500Y-78885000D03*
X160162500Y-76345000D03*
D19*
X160162500Y-73805000D03*
%TD*%
M02*
