%TF.GenerationSoftware,KiCad,Pcbnew,7.0.5*%
%TF.CreationDate,2023-06-27T21:04:27+02:00*%
%TF.ProjectId,ESP32RIO,45535033-3252-4494-9f2e-6b696361645f,rev?*%
%TF.SameCoordinates,Original*%
%TF.FileFunction,Legend,Top*%
%TF.FilePolarity,Positive*%
%FSLAX46Y46*%
G04 Gerber Fmt 4.6, Leading zero omitted, Abs format (unit mm)*
G04 Created by KiCad (PCBNEW 7.0.5) date 2023-06-27 21:04:27*
%MOMM*%
%LPD*%
G01*
G04 APERTURE LIST*
%ADD10C,0.150000*%
%ADD11C,0.250000*%
%ADD12C,0.120000*%
G04 APERTURE END LIST*
D10*
X103500000Y-55250000D02*
X103500000Y-115750000D01*
D11*
X190359500Y-104188095D02*
X190359500Y-103350000D01*
X190930928Y-103769047D02*
X189788071Y-103769047D01*
X189573785Y-102878571D02*
X189502357Y-102826190D01*
X189502357Y-102826190D02*
X189430928Y-102721428D01*
X189430928Y-102721428D02*
X189430928Y-102459523D01*
X189430928Y-102459523D02*
X189502357Y-102354761D01*
X189502357Y-102354761D02*
X189573785Y-102302380D01*
X189573785Y-102302380D02*
X189716642Y-102249999D01*
X189716642Y-102249999D02*
X189859500Y-102249999D01*
X189859500Y-102249999D02*
X190073785Y-102302380D01*
X190073785Y-102302380D02*
X190930928Y-102930952D01*
X190930928Y-102930952D02*
X190930928Y-102249999D01*
X189930928Y-101307142D02*
X190930928Y-101307142D01*
X189359500Y-101569047D02*
X190430928Y-101830952D01*
X190430928Y-101830952D02*
X190430928Y-101149999D01*
X189430928Y-100888095D02*
X190930928Y-100521428D01*
X190930928Y-100521428D02*
X189430928Y-100154761D01*
X189502357Y-73338094D02*
X189430928Y-73442856D01*
X189430928Y-73442856D02*
X189430928Y-73599999D01*
X189430928Y-73599999D02*
X189502357Y-73757142D01*
X189502357Y-73757142D02*
X189645214Y-73861904D01*
X189645214Y-73861904D02*
X189788071Y-73914285D01*
X189788071Y-73914285D02*
X190073785Y-73966666D01*
X190073785Y-73966666D02*
X190288071Y-73966666D01*
X190288071Y-73966666D02*
X190573785Y-73914285D01*
X190573785Y-73914285D02*
X190716642Y-73861904D01*
X190716642Y-73861904D02*
X190859500Y-73757142D01*
X190859500Y-73757142D02*
X190930928Y-73599999D01*
X190930928Y-73599999D02*
X190930928Y-73495237D01*
X190930928Y-73495237D02*
X190859500Y-73338094D01*
X190859500Y-73338094D02*
X190788071Y-73285713D01*
X190788071Y-73285713D02*
X190288071Y-73285713D01*
X190288071Y-73285713D02*
X190288071Y-73495237D01*
X190930928Y-72814285D02*
X189430928Y-72814285D01*
X189430928Y-72814285D02*
X190930928Y-72185713D01*
X190930928Y-72185713D02*
X189430928Y-72185713D01*
X190930928Y-71661904D02*
X189430928Y-71661904D01*
X189430928Y-71661904D02*
X189430928Y-71399999D01*
X189430928Y-71399999D02*
X189502357Y-71242856D01*
X189502357Y-71242856D02*
X189645214Y-71138094D01*
X189645214Y-71138094D02*
X189788071Y-71085713D01*
X189788071Y-71085713D02*
X190073785Y-71033332D01*
X190073785Y-71033332D02*
X190288071Y-71033332D01*
X190288071Y-71033332D02*
X190573785Y-71085713D01*
X190573785Y-71085713D02*
X190716642Y-71138094D01*
X190716642Y-71138094D02*
X190859500Y-71242856D01*
X190859500Y-71242856D02*
X190930928Y-71399999D01*
X190930928Y-71399999D02*
X190930928Y-71661904D01*
X101069071Y-91731744D02*
X102569071Y-91731744D01*
X102569071Y-91731744D02*
X102569071Y-91993649D01*
X102569071Y-91993649D02*
X102497642Y-92150792D01*
X102497642Y-92150792D02*
X102354785Y-92255554D01*
X102354785Y-92255554D02*
X102211928Y-92307935D01*
X102211928Y-92307935D02*
X101926214Y-92360316D01*
X101926214Y-92360316D02*
X101711928Y-92360316D01*
X101711928Y-92360316D02*
X101426214Y-92307935D01*
X101426214Y-92307935D02*
X101283357Y-92255554D01*
X101283357Y-92255554D02*
X101140500Y-92150792D01*
X101140500Y-92150792D02*
X101069071Y-91993649D01*
X101069071Y-91993649D02*
X101069071Y-91731744D01*
X101069071Y-92831744D02*
X102569071Y-92831744D01*
X102569071Y-93250792D02*
X102569071Y-93931745D01*
X102569071Y-93931745D02*
X101997642Y-93565078D01*
X101997642Y-93565078D02*
X101997642Y-93722221D01*
X101997642Y-93722221D02*
X101926214Y-93826983D01*
X101926214Y-93826983D02*
X101854785Y-93879364D01*
X101854785Y-93879364D02*
X101711928Y-93931745D01*
X101711928Y-93931745D02*
X101354785Y-93931745D01*
X101354785Y-93931745D02*
X101211928Y-93879364D01*
X101211928Y-93879364D02*
X101140500Y-93826983D01*
X101140500Y-93826983D02*
X101069071Y-93722221D01*
X101069071Y-93722221D02*
X101069071Y-93407935D01*
X101069071Y-93407935D02*
X101140500Y-93303173D01*
X101140500Y-93303173D02*
X101211928Y-93250792D01*
X101069071Y-66870634D02*
X102569071Y-66870634D01*
X102569071Y-66870634D02*
X102569071Y-67132539D01*
X102569071Y-67132539D02*
X102497642Y-67289682D01*
X102497642Y-67289682D02*
X102354785Y-67394444D01*
X102354785Y-67394444D02*
X102211928Y-67446825D01*
X102211928Y-67446825D02*
X101926214Y-67499206D01*
X101926214Y-67499206D02*
X101711928Y-67499206D01*
X101711928Y-67499206D02*
X101426214Y-67446825D01*
X101426214Y-67446825D02*
X101283357Y-67394444D01*
X101283357Y-67394444D02*
X101140500Y-67289682D01*
X101140500Y-67289682D02*
X101069071Y-67132539D01*
X101069071Y-67132539D02*
X101069071Y-66870634D01*
X101069071Y-67970634D02*
X102569071Y-67970634D01*
X101926214Y-68651587D02*
X101997642Y-68546825D01*
X101997642Y-68546825D02*
X102069071Y-68494444D01*
X102069071Y-68494444D02*
X102211928Y-68442063D01*
X102211928Y-68442063D02*
X102283357Y-68442063D01*
X102283357Y-68442063D02*
X102426214Y-68494444D01*
X102426214Y-68494444D02*
X102497642Y-68546825D01*
X102497642Y-68546825D02*
X102569071Y-68651587D01*
X102569071Y-68651587D02*
X102569071Y-68861111D01*
X102569071Y-68861111D02*
X102497642Y-68965873D01*
X102497642Y-68965873D02*
X102426214Y-69018254D01*
X102426214Y-69018254D02*
X102283357Y-69070635D01*
X102283357Y-69070635D02*
X102211928Y-69070635D01*
X102211928Y-69070635D02*
X102069071Y-69018254D01*
X102069071Y-69018254D02*
X101997642Y-68965873D01*
X101997642Y-68965873D02*
X101926214Y-68861111D01*
X101926214Y-68861111D02*
X101926214Y-68651587D01*
X101926214Y-68651587D02*
X101854785Y-68546825D01*
X101854785Y-68546825D02*
X101783357Y-68494444D01*
X101783357Y-68494444D02*
X101640500Y-68442063D01*
X101640500Y-68442063D02*
X101354785Y-68442063D01*
X101354785Y-68442063D02*
X101211928Y-68494444D01*
X101211928Y-68494444D02*
X101140500Y-68546825D01*
X101140500Y-68546825D02*
X101069071Y-68651587D01*
X101069071Y-68651587D02*
X101069071Y-68861111D01*
X101069071Y-68861111D02*
X101140500Y-68965873D01*
X101140500Y-68965873D02*
X101211928Y-69018254D01*
X101211928Y-69018254D02*
X101354785Y-69070635D01*
X101354785Y-69070635D02*
X101640500Y-69070635D01*
X101640500Y-69070635D02*
X101783357Y-69018254D01*
X101783357Y-69018254D02*
X101854785Y-68965873D01*
X101854785Y-68965873D02*
X101926214Y-68861111D01*
X190930928Y-78638095D02*
X189430928Y-78638095D01*
X189430928Y-78638095D02*
X189430928Y-78376190D01*
X189430928Y-78376190D02*
X189502357Y-78219047D01*
X189502357Y-78219047D02*
X189645214Y-78114285D01*
X189645214Y-78114285D02*
X189788071Y-78061904D01*
X189788071Y-78061904D02*
X190073785Y-78009523D01*
X190073785Y-78009523D02*
X190288071Y-78009523D01*
X190288071Y-78009523D02*
X190573785Y-78061904D01*
X190573785Y-78061904D02*
X190716642Y-78114285D01*
X190716642Y-78114285D02*
X190859500Y-78219047D01*
X190859500Y-78219047D02*
X190930928Y-78376190D01*
X190930928Y-78376190D02*
X190930928Y-78638095D01*
X189430928Y-77328571D02*
X189430928Y-77119047D01*
X189430928Y-77119047D02*
X189502357Y-77014285D01*
X189502357Y-77014285D02*
X189645214Y-76909523D01*
X189645214Y-76909523D02*
X189930928Y-76857142D01*
X189930928Y-76857142D02*
X190430928Y-76857142D01*
X190430928Y-76857142D02*
X190716642Y-76909523D01*
X190716642Y-76909523D02*
X190859500Y-77014285D01*
X190859500Y-77014285D02*
X190930928Y-77119047D01*
X190930928Y-77119047D02*
X190930928Y-77328571D01*
X190930928Y-77328571D02*
X190859500Y-77433333D01*
X190859500Y-77433333D02*
X190716642Y-77538095D01*
X190716642Y-77538095D02*
X190430928Y-77590476D01*
X190430928Y-77590476D02*
X189930928Y-77590476D01*
X189930928Y-77590476D02*
X189645214Y-77538095D01*
X189645214Y-77538095D02*
X189502357Y-77433333D01*
X189502357Y-77433333D02*
X189430928Y-77328571D01*
X189930928Y-75914285D02*
X190930928Y-75914285D01*
X189359500Y-76176190D02*
X190430928Y-76438095D01*
X190430928Y-76438095D02*
X190430928Y-75757142D01*
X101069071Y-61898412D02*
X102569071Y-61898412D01*
X102569071Y-61898412D02*
X102569071Y-62160317D01*
X102569071Y-62160317D02*
X102497642Y-62317460D01*
X102497642Y-62317460D02*
X102354785Y-62422222D01*
X102354785Y-62422222D02*
X102211928Y-62474603D01*
X102211928Y-62474603D02*
X101926214Y-62526984D01*
X101926214Y-62526984D02*
X101711928Y-62526984D01*
X101711928Y-62526984D02*
X101426214Y-62474603D01*
X101426214Y-62474603D02*
X101283357Y-62422222D01*
X101283357Y-62422222D02*
X101140500Y-62317460D01*
X101140500Y-62317460D02*
X101069071Y-62160317D01*
X101069071Y-62160317D02*
X101069071Y-61898412D01*
X101069071Y-62998412D02*
X102569071Y-62998412D01*
X101069071Y-63574603D02*
X101069071Y-63784127D01*
X101069071Y-63784127D02*
X101140500Y-63888889D01*
X101140500Y-63888889D02*
X101211928Y-63941270D01*
X101211928Y-63941270D02*
X101426214Y-64046032D01*
X101426214Y-64046032D02*
X101711928Y-64098413D01*
X101711928Y-64098413D02*
X102283357Y-64098413D01*
X102283357Y-64098413D02*
X102426214Y-64046032D01*
X102426214Y-64046032D02*
X102497642Y-63993651D01*
X102497642Y-63993651D02*
X102569071Y-63888889D01*
X102569071Y-63888889D02*
X102569071Y-63679365D01*
X102569071Y-63679365D02*
X102497642Y-63574603D01*
X102497642Y-63574603D02*
X102426214Y-63522222D01*
X102426214Y-63522222D02*
X102283357Y-63469841D01*
X102283357Y-63469841D02*
X101926214Y-63469841D01*
X101926214Y-63469841D02*
X101783357Y-63522222D01*
X101783357Y-63522222D02*
X101711928Y-63574603D01*
X101711928Y-63574603D02*
X101640500Y-63679365D01*
X101640500Y-63679365D02*
X101640500Y-63888889D01*
X101640500Y-63888889D02*
X101711928Y-63993651D01*
X101711928Y-63993651D02*
X101783357Y-64046032D01*
X101783357Y-64046032D02*
X101926214Y-64098413D01*
X191180928Y-62016666D02*
X189680928Y-62016666D01*
X189680928Y-62016666D02*
X190752357Y-61649999D01*
X190752357Y-61649999D02*
X189680928Y-61283332D01*
X189680928Y-61283332D02*
X191180928Y-61283332D01*
X191180928Y-60602380D02*
X191109500Y-60707142D01*
X191109500Y-60707142D02*
X191038071Y-60759523D01*
X191038071Y-60759523D02*
X190895214Y-60811904D01*
X190895214Y-60811904D02*
X190466642Y-60811904D01*
X190466642Y-60811904D02*
X190323785Y-60759523D01*
X190323785Y-60759523D02*
X190252357Y-60707142D01*
X190252357Y-60707142D02*
X190180928Y-60602380D01*
X190180928Y-60602380D02*
X190180928Y-60445237D01*
X190180928Y-60445237D02*
X190252357Y-60340475D01*
X190252357Y-60340475D02*
X190323785Y-60288094D01*
X190323785Y-60288094D02*
X190466642Y-60235713D01*
X190466642Y-60235713D02*
X190895214Y-60235713D01*
X190895214Y-60235713D02*
X191038071Y-60288094D01*
X191038071Y-60288094D02*
X191109500Y-60340475D01*
X191109500Y-60340475D02*
X191180928Y-60445237D01*
X191180928Y-60445237D02*
X191180928Y-60602380D01*
X190180928Y-59921428D02*
X190180928Y-59502380D01*
X189680928Y-59764285D02*
X190966642Y-59764285D01*
X190966642Y-59764285D02*
X191109500Y-59711904D01*
X191109500Y-59711904D02*
X191180928Y-59607142D01*
X191180928Y-59607142D02*
X191180928Y-59502380D01*
X191180928Y-58978571D02*
X191109500Y-59083333D01*
X191109500Y-59083333D02*
X191038071Y-59135714D01*
X191038071Y-59135714D02*
X190895214Y-59188095D01*
X190895214Y-59188095D02*
X190466642Y-59188095D01*
X190466642Y-59188095D02*
X190323785Y-59135714D01*
X190323785Y-59135714D02*
X190252357Y-59083333D01*
X190252357Y-59083333D02*
X190180928Y-58978571D01*
X190180928Y-58978571D02*
X190180928Y-58821428D01*
X190180928Y-58821428D02*
X190252357Y-58716666D01*
X190252357Y-58716666D02*
X190323785Y-58664285D01*
X190323785Y-58664285D02*
X190466642Y-58611904D01*
X190466642Y-58611904D02*
X190895214Y-58611904D01*
X190895214Y-58611904D02*
X191038071Y-58664285D01*
X191038071Y-58664285D02*
X191109500Y-58716666D01*
X191109500Y-58716666D02*
X191180928Y-58821428D01*
X191180928Y-58821428D02*
X191180928Y-58978571D01*
X191180928Y-58140476D02*
X190180928Y-58140476D01*
X190466642Y-58140476D02*
X190323785Y-58088095D01*
X190323785Y-58088095D02*
X190252357Y-58035714D01*
X190252357Y-58035714D02*
X190180928Y-57930952D01*
X190180928Y-57930952D02*
X190180928Y-57826190D01*
X101497642Y-111702380D02*
X101497642Y-112226190D01*
X101069071Y-111597618D02*
X102569071Y-111964285D01*
X102569071Y-111964285D02*
X101069071Y-112330952D01*
X101069071Y-112697618D02*
X102569071Y-112697618D01*
X101069071Y-113797619D02*
X101069071Y-113169047D01*
X101069071Y-113483333D02*
X102569071Y-113483333D01*
X102569071Y-113483333D02*
X102354785Y-113378571D01*
X102354785Y-113378571D02*
X102211928Y-113273809D01*
X102211928Y-113273809D02*
X102140500Y-113169047D01*
X102497642Y-106911905D02*
X102569071Y-106807143D01*
X102569071Y-106807143D02*
X102569071Y-106650000D01*
X102569071Y-106650000D02*
X102497642Y-106492857D01*
X102497642Y-106492857D02*
X102354785Y-106388095D01*
X102354785Y-106388095D02*
X102211928Y-106335714D01*
X102211928Y-106335714D02*
X101926214Y-106283333D01*
X101926214Y-106283333D02*
X101711928Y-106283333D01*
X101711928Y-106283333D02*
X101426214Y-106335714D01*
X101426214Y-106335714D02*
X101283357Y-106388095D01*
X101283357Y-106388095D02*
X101140500Y-106492857D01*
X101140500Y-106492857D02*
X101069071Y-106650000D01*
X101069071Y-106650000D02*
X101069071Y-106754762D01*
X101069071Y-106754762D02*
X101140500Y-106911905D01*
X101140500Y-106911905D02*
X101211928Y-106964286D01*
X101211928Y-106964286D02*
X101711928Y-106964286D01*
X101711928Y-106964286D02*
X101711928Y-106754762D01*
X101069071Y-107435714D02*
X102569071Y-107435714D01*
X102569071Y-107435714D02*
X101069071Y-108064286D01*
X101069071Y-108064286D02*
X102569071Y-108064286D01*
X101069071Y-108588095D02*
X102569071Y-108588095D01*
X102569071Y-108588095D02*
X102569071Y-108850000D01*
X102569071Y-108850000D02*
X102497642Y-109007143D01*
X102497642Y-109007143D02*
X102354785Y-109111905D01*
X102354785Y-109111905D02*
X102211928Y-109164286D01*
X102211928Y-109164286D02*
X101926214Y-109216667D01*
X101926214Y-109216667D02*
X101711928Y-109216667D01*
X101711928Y-109216667D02*
X101426214Y-109164286D01*
X101426214Y-109164286D02*
X101283357Y-109111905D01*
X101283357Y-109111905D02*
X101140500Y-109007143D01*
X101140500Y-109007143D02*
X101069071Y-108850000D01*
X101069071Y-108850000D02*
X101069071Y-108588095D01*
X191680928Y-93638095D02*
X190180928Y-93638095D01*
X190180928Y-93638095D02*
X190180928Y-93376190D01*
X190180928Y-93376190D02*
X190252357Y-93219047D01*
X190252357Y-93219047D02*
X190395214Y-93114285D01*
X190395214Y-93114285D02*
X190538071Y-93061904D01*
X190538071Y-93061904D02*
X190823785Y-93009523D01*
X190823785Y-93009523D02*
X191038071Y-93009523D01*
X191038071Y-93009523D02*
X191323785Y-93061904D01*
X191323785Y-93061904D02*
X191466642Y-93114285D01*
X191466642Y-93114285D02*
X191609500Y-93219047D01*
X191609500Y-93219047D02*
X191680928Y-93376190D01*
X191680928Y-93376190D02*
X191680928Y-93638095D01*
X190180928Y-92328571D02*
X190180928Y-92119047D01*
X190180928Y-92119047D02*
X190252357Y-92014285D01*
X190252357Y-92014285D02*
X190395214Y-91909523D01*
X190395214Y-91909523D02*
X190680928Y-91857142D01*
X190680928Y-91857142D02*
X191180928Y-91857142D01*
X191180928Y-91857142D02*
X191466642Y-91909523D01*
X191466642Y-91909523D02*
X191609500Y-92014285D01*
X191609500Y-92014285D02*
X191680928Y-92119047D01*
X191680928Y-92119047D02*
X191680928Y-92328571D01*
X191680928Y-92328571D02*
X191609500Y-92433333D01*
X191609500Y-92433333D02*
X191466642Y-92538095D01*
X191466642Y-92538095D02*
X191180928Y-92590476D01*
X191180928Y-92590476D02*
X190680928Y-92590476D01*
X190680928Y-92590476D02*
X190395214Y-92538095D01*
X190395214Y-92538095D02*
X190252357Y-92433333D01*
X190252357Y-92433333D02*
X190180928Y-92328571D01*
X191680928Y-90809523D02*
X191680928Y-91438095D01*
X191680928Y-91123809D02*
X190180928Y-91123809D01*
X190180928Y-91123809D02*
X190395214Y-91228571D01*
X190395214Y-91228571D02*
X190538071Y-91333333D01*
X190538071Y-91333333D02*
X190609500Y-91438095D01*
X101069071Y-101676190D02*
X102569071Y-101676190D01*
X102569071Y-101676190D02*
X102569071Y-101938095D01*
X102569071Y-101938095D02*
X102497642Y-102095238D01*
X102497642Y-102095238D02*
X102354785Y-102200000D01*
X102354785Y-102200000D02*
X102211928Y-102252381D01*
X102211928Y-102252381D02*
X101926214Y-102304762D01*
X101926214Y-102304762D02*
X101711928Y-102304762D01*
X101711928Y-102304762D02*
X101426214Y-102252381D01*
X101426214Y-102252381D02*
X101283357Y-102200000D01*
X101283357Y-102200000D02*
X101140500Y-102095238D01*
X101140500Y-102095238D02*
X101069071Y-101938095D01*
X101069071Y-101938095D02*
X101069071Y-101676190D01*
X101069071Y-102776190D02*
X102569071Y-102776190D01*
X101069071Y-103876191D02*
X101069071Y-103247619D01*
X101069071Y-103561905D02*
X102569071Y-103561905D01*
X102569071Y-103561905D02*
X102354785Y-103457143D01*
X102354785Y-103457143D02*
X102211928Y-103352381D01*
X102211928Y-103352381D02*
X102140500Y-103247619D01*
X101069071Y-56402380D02*
X102569071Y-56402380D01*
X102569071Y-56402380D02*
X102569071Y-56664285D01*
X102569071Y-56664285D02*
X102497642Y-56821428D01*
X102497642Y-56821428D02*
X102354785Y-56926190D01*
X102354785Y-56926190D02*
X102211928Y-56978571D01*
X102211928Y-56978571D02*
X101926214Y-57030952D01*
X101926214Y-57030952D02*
X101711928Y-57030952D01*
X101711928Y-57030952D02*
X101426214Y-56978571D01*
X101426214Y-56978571D02*
X101283357Y-56926190D01*
X101283357Y-56926190D02*
X101140500Y-56821428D01*
X101140500Y-56821428D02*
X101069071Y-56664285D01*
X101069071Y-56664285D02*
X101069071Y-56402380D01*
X101069071Y-57502380D02*
X102569071Y-57502380D01*
X101069071Y-58602381D02*
X101069071Y-57973809D01*
X101069071Y-58288095D02*
X102569071Y-58288095D01*
X102569071Y-58288095D02*
X102354785Y-58183333D01*
X102354785Y-58183333D02*
X102211928Y-58078571D01*
X102211928Y-58078571D02*
X102140500Y-57973809D01*
X102569071Y-59283333D02*
X102569071Y-59388095D01*
X102569071Y-59388095D02*
X102497642Y-59492857D01*
X102497642Y-59492857D02*
X102426214Y-59545238D01*
X102426214Y-59545238D02*
X102283357Y-59597619D01*
X102283357Y-59597619D02*
X101997642Y-59650000D01*
X101997642Y-59650000D02*
X101640500Y-59650000D01*
X101640500Y-59650000D02*
X101354785Y-59597619D01*
X101354785Y-59597619D02*
X101211928Y-59545238D01*
X101211928Y-59545238D02*
X101140500Y-59492857D01*
X101140500Y-59492857D02*
X101069071Y-59388095D01*
X101069071Y-59388095D02*
X101069071Y-59283333D01*
X101069071Y-59283333D02*
X101140500Y-59178571D01*
X101140500Y-59178571D02*
X101211928Y-59126190D01*
X101211928Y-59126190D02*
X101354785Y-59073809D01*
X101354785Y-59073809D02*
X101640500Y-59021428D01*
X101640500Y-59021428D02*
X101997642Y-59021428D01*
X101997642Y-59021428D02*
X102283357Y-59073809D01*
X102283357Y-59073809D02*
X102426214Y-59126190D01*
X102426214Y-59126190D02*
X102497642Y-59178571D01*
X102497642Y-59178571D02*
X102569071Y-59283333D01*
X101069071Y-71842856D02*
X102569071Y-71842856D01*
X102569071Y-71842856D02*
X102569071Y-72104761D01*
X102569071Y-72104761D02*
X102497642Y-72261904D01*
X102497642Y-72261904D02*
X102354785Y-72366666D01*
X102354785Y-72366666D02*
X102211928Y-72419047D01*
X102211928Y-72419047D02*
X101926214Y-72471428D01*
X101926214Y-72471428D02*
X101711928Y-72471428D01*
X101711928Y-72471428D02*
X101426214Y-72419047D01*
X101426214Y-72419047D02*
X101283357Y-72366666D01*
X101283357Y-72366666D02*
X101140500Y-72261904D01*
X101140500Y-72261904D02*
X101069071Y-72104761D01*
X101069071Y-72104761D02*
X101069071Y-71842856D01*
X101069071Y-72942856D02*
X102569071Y-72942856D01*
X102569071Y-73361904D02*
X102569071Y-74095238D01*
X102569071Y-74095238D02*
X101069071Y-73623809D01*
X191180928Y-84138095D02*
X189680928Y-84138095D01*
X189680928Y-84138095D02*
X189680928Y-83876190D01*
X189680928Y-83876190D02*
X189752357Y-83719047D01*
X189752357Y-83719047D02*
X189895214Y-83614285D01*
X189895214Y-83614285D02*
X190038071Y-83561904D01*
X190038071Y-83561904D02*
X190323785Y-83509523D01*
X190323785Y-83509523D02*
X190538071Y-83509523D01*
X190538071Y-83509523D02*
X190823785Y-83561904D01*
X190823785Y-83561904D02*
X190966642Y-83614285D01*
X190966642Y-83614285D02*
X191109500Y-83719047D01*
X191109500Y-83719047D02*
X191180928Y-83876190D01*
X191180928Y-83876190D02*
X191180928Y-84138095D01*
X189680928Y-82828571D02*
X189680928Y-82619047D01*
X189680928Y-82619047D02*
X189752357Y-82514285D01*
X189752357Y-82514285D02*
X189895214Y-82409523D01*
X189895214Y-82409523D02*
X190180928Y-82357142D01*
X190180928Y-82357142D02*
X190680928Y-82357142D01*
X190680928Y-82357142D02*
X190966642Y-82409523D01*
X190966642Y-82409523D02*
X191109500Y-82514285D01*
X191109500Y-82514285D02*
X191180928Y-82619047D01*
X191180928Y-82619047D02*
X191180928Y-82828571D01*
X191180928Y-82828571D02*
X191109500Y-82933333D01*
X191109500Y-82933333D02*
X190966642Y-83038095D01*
X190966642Y-83038095D02*
X190680928Y-83090476D01*
X190680928Y-83090476D02*
X190180928Y-83090476D01*
X190180928Y-83090476D02*
X189895214Y-83038095D01*
X189895214Y-83038095D02*
X189752357Y-82933333D01*
X189752357Y-82933333D02*
X189680928Y-82828571D01*
X189680928Y-81990476D02*
X189680928Y-81309523D01*
X189680928Y-81309523D02*
X190252357Y-81676190D01*
X190252357Y-81676190D02*
X190252357Y-81519047D01*
X190252357Y-81519047D02*
X190323785Y-81414285D01*
X190323785Y-81414285D02*
X190395214Y-81361904D01*
X190395214Y-81361904D02*
X190538071Y-81309523D01*
X190538071Y-81309523D02*
X190895214Y-81309523D01*
X190895214Y-81309523D02*
X191038071Y-81361904D01*
X191038071Y-81361904D02*
X191109500Y-81414285D01*
X191109500Y-81414285D02*
X191180928Y-81519047D01*
X191180928Y-81519047D02*
X191180928Y-81833333D01*
X191180928Y-81833333D02*
X191109500Y-81938095D01*
X191109500Y-81938095D02*
X191038071Y-81990476D01*
X190152000Y-69438095D02*
X190152000Y-68600000D01*
X190723428Y-69019047D02*
X189580571Y-69019047D01*
X189366285Y-68128571D02*
X189294857Y-68076190D01*
X189294857Y-68076190D02*
X189223428Y-67971428D01*
X189223428Y-67971428D02*
X189223428Y-67709523D01*
X189223428Y-67709523D02*
X189294857Y-67604761D01*
X189294857Y-67604761D02*
X189366285Y-67552380D01*
X189366285Y-67552380D02*
X189509142Y-67499999D01*
X189509142Y-67499999D02*
X189652000Y-67499999D01*
X189652000Y-67499999D02*
X189866285Y-67552380D01*
X189866285Y-67552380D02*
X190723428Y-68180952D01*
X190723428Y-68180952D02*
X190723428Y-67499999D01*
X189723428Y-66557142D02*
X190723428Y-66557142D01*
X189152000Y-66819047D02*
X190223428Y-67080952D01*
X190223428Y-67080952D02*
X190223428Y-66399999D01*
X189223428Y-66138095D02*
X190723428Y-65771428D01*
X190723428Y-65771428D02*
X189223428Y-65404761D01*
X193067000Y-69254761D02*
X193138428Y-69097618D01*
X193138428Y-69097618D02*
X193138428Y-68835713D01*
X193138428Y-68835713D02*
X193067000Y-68730951D01*
X193067000Y-68730951D02*
X192995571Y-68678570D01*
X192995571Y-68678570D02*
X192852714Y-68626189D01*
X192852714Y-68626189D02*
X192709857Y-68626189D01*
X192709857Y-68626189D02*
X192567000Y-68678570D01*
X192567000Y-68678570D02*
X192495571Y-68730951D01*
X192495571Y-68730951D02*
X192424142Y-68835713D01*
X192424142Y-68835713D02*
X192352714Y-69045237D01*
X192352714Y-69045237D02*
X192281285Y-69149999D01*
X192281285Y-69149999D02*
X192209857Y-69202380D01*
X192209857Y-69202380D02*
X192067000Y-69254761D01*
X192067000Y-69254761D02*
X191924142Y-69254761D01*
X191924142Y-69254761D02*
X191781285Y-69202380D01*
X191781285Y-69202380D02*
X191709857Y-69149999D01*
X191709857Y-69149999D02*
X191638428Y-69045237D01*
X191638428Y-69045237D02*
X191638428Y-68783332D01*
X191638428Y-68783332D02*
X191709857Y-68626189D01*
X192709857Y-68207142D02*
X192709857Y-67683332D01*
X193138428Y-68311904D02*
X191638428Y-67945237D01*
X191638428Y-67945237D02*
X193138428Y-67578570D01*
X192352714Y-66845237D02*
X192352714Y-67211904D01*
X193138428Y-67211904D02*
X191638428Y-67211904D01*
X191638428Y-67211904D02*
X191638428Y-66688094D01*
X192352714Y-66269047D02*
X192352714Y-65902380D01*
X193138428Y-65745237D02*
X193138428Y-66269047D01*
X193138428Y-66269047D02*
X191638428Y-66269047D01*
X191638428Y-66269047D02*
X191638428Y-65745237D01*
X101069071Y-86759522D02*
X102569071Y-86759522D01*
X102569071Y-86759522D02*
X102569071Y-87021427D01*
X102569071Y-87021427D02*
X102497642Y-87178570D01*
X102497642Y-87178570D02*
X102354785Y-87283332D01*
X102354785Y-87283332D02*
X102211928Y-87335713D01*
X102211928Y-87335713D02*
X101926214Y-87388094D01*
X101926214Y-87388094D02*
X101711928Y-87388094D01*
X101711928Y-87388094D02*
X101426214Y-87335713D01*
X101426214Y-87335713D02*
X101283357Y-87283332D01*
X101283357Y-87283332D02*
X101140500Y-87178570D01*
X101140500Y-87178570D02*
X101069071Y-87021427D01*
X101069071Y-87021427D02*
X101069071Y-86759522D01*
X101069071Y-87859522D02*
X102569071Y-87859522D01*
X102069071Y-88854761D02*
X101069071Y-88854761D01*
X102640500Y-88592856D02*
X101569071Y-88330951D01*
X101569071Y-88330951D02*
X101569071Y-89011904D01*
X190973428Y-112302380D02*
X189473428Y-112302380D01*
X189473428Y-112302380D02*
X190544857Y-111935713D01*
X190544857Y-111935713D02*
X189473428Y-111569046D01*
X189473428Y-111569046D02*
X190973428Y-111569046D01*
X190973428Y-110888094D02*
X190902000Y-110992856D01*
X190902000Y-110992856D02*
X190830571Y-111045237D01*
X190830571Y-111045237D02*
X190687714Y-111097618D01*
X190687714Y-111097618D02*
X190259142Y-111097618D01*
X190259142Y-111097618D02*
X190116285Y-111045237D01*
X190116285Y-111045237D02*
X190044857Y-110992856D01*
X190044857Y-110992856D02*
X189973428Y-110888094D01*
X189973428Y-110888094D02*
X189973428Y-110730951D01*
X189973428Y-110730951D02*
X190044857Y-110626189D01*
X190044857Y-110626189D02*
X190116285Y-110573808D01*
X190116285Y-110573808D02*
X190259142Y-110521427D01*
X190259142Y-110521427D02*
X190687714Y-110521427D01*
X190687714Y-110521427D02*
X190830571Y-110573808D01*
X190830571Y-110573808D02*
X190902000Y-110626189D01*
X190902000Y-110626189D02*
X190973428Y-110730951D01*
X190973428Y-110730951D02*
X190973428Y-110888094D01*
X190973428Y-109578570D02*
X189473428Y-109578570D01*
X190902000Y-109578570D02*
X190973428Y-109683332D01*
X190973428Y-109683332D02*
X190973428Y-109892856D01*
X190973428Y-109892856D02*
X190902000Y-109997618D01*
X190902000Y-109997618D02*
X190830571Y-110049999D01*
X190830571Y-110049999D02*
X190687714Y-110102380D01*
X190687714Y-110102380D02*
X190259142Y-110102380D01*
X190259142Y-110102380D02*
X190116285Y-110049999D01*
X190116285Y-110049999D02*
X190044857Y-109997618D01*
X190044857Y-109997618D02*
X189973428Y-109892856D01*
X189973428Y-109892856D02*
X189973428Y-109683332D01*
X189973428Y-109683332D02*
X190044857Y-109578570D01*
X190973428Y-109054761D02*
X189473428Y-109054761D01*
X190044857Y-109054761D02*
X189973428Y-108949999D01*
X189973428Y-108949999D02*
X189973428Y-108740475D01*
X189973428Y-108740475D02*
X190044857Y-108635713D01*
X190044857Y-108635713D02*
X190116285Y-108583332D01*
X190116285Y-108583332D02*
X190259142Y-108530951D01*
X190259142Y-108530951D02*
X190687714Y-108530951D01*
X190687714Y-108530951D02*
X190830571Y-108583332D01*
X190830571Y-108583332D02*
X190902000Y-108635713D01*
X190902000Y-108635713D02*
X190973428Y-108740475D01*
X190973428Y-108740475D02*
X190973428Y-108949999D01*
X190973428Y-108949999D02*
X190902000Y-109054761D01*
X189973428Y-107588094D02*
X190973428Y-107588094D01*
X189973428Y-108059523D02*
X190759142Y-108059523D01*
X190759142Y-108059523D02*
X190902000Y-108007142D01*
X190902000Y-108007142D02*
X190973428Y-107902380D01*
X190973428Y-107902380D02*
X190973428Y-107745237D01*
X190973428Y-107745237D02*
X190902000Y-107640475D01*
X190902000Y-107640475D02*
X190830571Y-107588094D01*
X190902000Y-107116666D02*
X190973428Y-107011904D01*
X190973428Y-107011904D02*
X190973428Y-106802380D01*
X190973428Y-106802380D02*
X190902000Y-106697618D01*
X190902000Y-106697618D02*
X190759142Y-106645237D01*
X190759142Y-106645237D02*
X190687714Y-106645237D01*
X190687714Y-106645237D02*
X190544857Y-106697618D01*
X190544857Y-106697618D02*
X190473428Y-106802380D01*
X190473428Y-106802380D02*
X190473428Y-106959523D01*
X190473428Y-106959523D02*
X190402000Y-107064285D01*
X190402000Y-107064285D02*
X190259142Y-107116666D01*
X190259142Y-107116666D02*
X190187714Y-107116666D01*
X190187714Y-107116666D02*
X190044857Y-107064285D01*
X190044857Y-107064285D02*
X189973428Y-106959523D01*
X189973428Y-106959523D02*
X189973428Y-106802380D01*
X189973428Y-106802380D02*
X190044857Y-106697618D01*
X192959857Y-111988094D02*
X192959857Y-111464284D01*
X193388428Y-112092856D02*
X191888428Y-111726189D01*
X191888428Y-111726189D02*
X193388428Y-111359522D01*
X192602714Y-107273809D02*
X192674142Y-107116666D01*
X192674142Y-107116666D02*
X192745571Y-107064285D01*
X192745571Y-107064285D02*
X192888428Y-107011904D01*
X192888428Y-107011904D02*
X193102714Y-107011904D01*
X193102714Y-107011904D02*
X193245571Y-107064285D01*
X193245571Y-107064285D02*
X193317000Y-107116666D01*
X193317000Y-107116666D02*
X193388428Y-107221428D01*
X193388428Y-107221428D02*
X193388428Y-107640476D01*
X193388428Y-107640476D02*
X191888428Y-107640476D01*
X191888428Y-107640476D02*
X191888428Y-107273809D01*
X191888428Y-107273809D02*
X191959857Y-107169047D01*
X191959857Y-107169047D02*
X192031285Y-107116666D01*
X192031285Y-107116666D02*
X192174142Y-107064285D01*
X192174142Y-107064285D02*
X192317000Y-107064285D01*
X192317000Y-107064285D02*
X192459857Y-107116666D01*
X192459857Y-107116666D02*
X192531285Y-107169047D01*
X192531285Y-107169047D02*
X192602714Y-107273809D01*
X192602714Y-107273809D02*
X192602714Y-107640476D01*
X101069071Y-81787300D02*
X102569071Y-81787300D01*
X102569071Y-81787300D02*
X102569071Y-82049205D01*
X102569071Y-82049205D02*
X102497642Y-82206348D01*
X102497642Y-82206348D02*
X102354785Y-82311110D01*
X102354785Y-82311110D02*
X102211928Y-82363491D01*
X102211928Y-82363491D02*
X101926214Y-82415872D01*
X101926214Y-82415872D02*
X101711928Y-82415872D01*
X101711928Y-82415872D02*
X101426214Y-82363491D01*
X101426214Y-82363491D02*
X101283357Y-82311110D01*
X101283357Y-82311110D02*
X101140500Y-82206348D01*
X101140500Y-82206348D02*
X101069071Y-82049205D01*
X101069071Y-82049205D02*
X101069071Y-81787300D01*
X101069071Y-82887300D02*
X102569071Y-82887300D01*
X102569071Y-83934920D02*
X102569071Y-83411110D01*
X102569071Y-83411110D02*
X101854785Y-83358729D01*
X101854785Y-83358729D02*
X101926214Y-83411110D01*
X101926214Y-83411110D02*
X101997642Y-83515872D01*
X101997642Y-83515872D02*
X101997642Y-83777777D01*
X101997642Y-83777777D02*
X101926214Y-83882539D01*
X101926214Y-83882539D02*
X101854785Y-83934920D01*
X101854785Y-83934920D02*
X101711928Y-83987301D01*
X101711928Y-83987301D02*
X101354785Y-83987301D01*
X101354785Y-83987301D02*
X101211928Y-83934920D01*
X101211928Y-83934920D02*
X101140500Y-83882539D01*
X101140500Y-83882539D02*
X101069071Y-83777777D01*
X101069071Y-83777777D02*
X101069071Y-83515872D01*
X101069071Y-83515872D02*
X101140500Y-83411110D01*
X101140500Y-83411110D02*
X101211928Y-83358729D01*
X191430928Y-88888095D02*
X189930928Y-88888095D01*
X189930928Y-88888095D02*
X189930928Y-88626190D01*
X189930928Y-88626190D02*
X190002357Y-88469047D01*
X190002357Y-88469047D02*
X190145214Y-88364285D01*
X190145214Y-88364285D02*
X190288071Y-88311904D01*
X190288071Y-88311904D02*
X190573785Y-88259523D01*
X190573785Y-88259523D02*
X190788071Y-88259523D01*
X190788071Y-88259523D02*
X191073785Y-88311904D01*
X191073785Y-88311904D02*
X191216642Y-88364285D01*
X191216642Y-88364285D02*
X191359500Y-88469047D01*
X191359500Y-88469047D02*
X191430928Y-88626190D01*
X191430928Y-88626190D02*
X191430928Y-88888095D01*
X189930928Y-87578571D02*
X189930928Y-87369047D01*
X189930928Y-87369047D02*
X190002357Y-87264285D01*
X190002357Y-87264285D02*
X190145214Y-87159523D01*
X190145214Y-87159523D02*
X190430928Y-87107142D01*
X190430928Y-87107142D02*
X190930928Y-87107142D01*
X190930928Y-87107142D02*
X191216642Y-87159523D01*
X191216642Y-87159523D02*
X191359500Y-87264285D01*
X191359500Y-87264285D02*
X191430928Y-87369047D01*
X191430928Y-87369047D02*
X191430928Y-87578571D01*
X191430928Y-87578571D02*
X191359500Y-87683333D01*
X191359500Y-87683333D02*
X191216642Y-87788095D01*
X191216642Y-87788095D02*
X190930928Y-87840476D01*
X190930928Y-87840476D02*
X190430928Y-87840476D01*
X190430928Y-87840476D02*
X190145214Y-87788095D01*
X190145214Y-87788095D02*
X190002357Y-87683333D01*
X190002357Y-87683333D02*
X189930928Y-87578571D01*
X190073785Y-86688095D02*
X190002357Y-86635714D01*
X190002357Y-86635714D02*
X189930928Y-86530952D01*
X189930928Y-86530952D02*
X189930928Y-86269047D01*
X189930928Y-86269047D02*
X190002357Y-86164285D01*
X190002357Y-86164285D02*
X190073785Y-86111904D01*
X190073785Y-86111904D02*
X190216642Y-86059523D01*
X190216642Y-86059523D02*
X190359500Y-86059523D01*
X190359500Y-86059523D02*
X190573785Y-86111904D01*
X190573785Y-86111904D02*
X191430928Y-86740476D01*
X191430928Y-86740476D02*
X191430928Y-86059523D01*
X101069071Y-76815078D02*
X102569071Y-76815078D01*
X102569071Y-76815078D02*
X102569071Y-77076983D01*
X102569071Y-77076983D02*
X102497642Y-77234126D01*
X102497642Y-77234126D02*
X102354785Y-77338888D01*
X102354785Y-77338888D02*
X102211928Y-77391269D01*
X102211928Y-77391269D02*
X101926214Y-77443650D01*
X101926214Y-77443650D02*
X101711928Y-77443650D01*
X101711928Y-77443650D02*
X101426214Y-77391269D01*
X101426214Y-77391269D02*
X101283357Y-77338888D01*
X101283357Y-77338888D02*
X101140500Y-77234126D01*
X101140500Y-77234126D02*
X101069071Y-77076983D01*
X101069071Y-77076983D02*
X101069071Y-76815078D01*
X101069071Y-77915078D02*
X102569071Y-77915078D01*
X102569071Y-78910317D02*
X102569071Y-78700793D01*
X102569071Y-78700793D02*
X102497642Y-78596031D01*
X102497642Y-78596031D02*
X102426214Y-78543650D01*
X102426214Y-78543650D02*
X102211928Y-78438888D01*
X102211928Y-78438888D02*
X101926214Y-78386507D01*
X101926214Y-78386507D02*
X101354785Y-78386507D01*
X101354785Y-78386507D02*
X101211928Y-78438888D01*
X101211928Y-78438888D02*
X101140500Y-78491269D01*
X101140500Y-78491269D02*
X101069071Y-78596031D01*
X101069071Y-78596031D02*
X101069071Y-78805555D01*
X101069071Y-78805555D02*
X101140500Y-78910317D01*
X101140500Y-78910317D02*
X101211928Y-78962698D01*
X101211928Y-78962698D02*
X101354785Y-79015079D01*
X101354785Y-79015079D02*
X101711928Y-79015079D01*
X101711928Y-79015079D02*
X101854785Y-78962698D01*
X101854785Y-78962698D02*
X101926214Y-78910317D01*
X101926214Y-78910317D02*
X101997642Y-78805555D01*
X101997642Y-78805555D02*
X101997642Y-78596031D01*
X101997642Y-78596031D02*
X101926214Y-78491269D01*
X101926214Y-78491269D02*
X101854785Y-78438888D01*
X101854785Y-78438888D02*
X101711928Y-78386507D01*
X101069071Y-96703966D02*
X102569071Y-96703966D01*
X102569071Y-96703966D02*
X102569071Y-96965871D01*
X102569071Y-96965871D02*
X102497642Y-97123014D01*
X102497642Y-97123014D02*
X102354785Y-97227776D01*
X102354785Y-97227776D02*
X102211928Y-97280157D01*
X102211928Y-97280157D02*
X101926214Y-97332538D01*
X101926214Y-97332538D02*
X101711928Y-97332538D01*
X101711928Y-97332538D02*
X101426214Y-97280157D01*
X101426214Y-97280157D02*
X101283357Y-97227776D01*
X101283357Y-97227776D02*
X101140500Y-97123014D01*
X101140500Y-97123014D02*
X101069071Y-96965871D01*
X101069071Y-96965871D02*
X101069071Y-96703966D01*
X101069071Y-97803966D02*
X102569071Y-97803966D01*
X102426214Y-98275395D02*
X102497642Y-98327776D01*
X102497642Y-98327776D02*
X102569071Y-98432538D01*
X102569071Y-98432538D02*
X102569071Y-98694443D01*
X102569071Y-98694443D02*
X102497642Y-98799205D01*
X102497642Y-98799205D02*
X102426214Y-98851586D01*
X102426214Y-98851586D02*
X102283357Y-98903967D01*
X102283357Y-98903967D02*
X102140500Y-98903967D01*
X102140500Y-98903967D02*
X101926214Y-98851586D01*
X101926214Y-98851586D02*
X101069071Y-98223014D01*
X101069071Y-98223014D02*
X101069071Y-98903967D01*
X191288071Y-97864285D02*
X191359500Y-97916666D01*
X191359500Y-97916666D02*
X191430928Y-98073809D01*
X191430928Y-98073809D02*
X191430928Y-98178571D01*
X191430928Y-98178571D02*
X191359500Y-98335714D01*
X191359500Y-98335714D02*
X191216642Y-98440476D01*
X191216642Y-98440476D02*
X191073785Y-98492857D01*
X191073785Y-98492857D02*
X190788071Y-98545238D01*
X190788071Y-98545238D02*
X190573785Y-98545238D01*
X190573785Y-98545238D02*
X190288071Y-98492857D01*
X190288071Y-98492857D02*
X190145214Y-98440476D01*
X190145214Y-98440476D02*
X190002357Y-98335714D01*
X190002357Y-98335714D02*
X189930928Y-98178571D01*
X189930928Y-98178571D02*
X189930928Y-98073809D01*
X189930928Y-98073809D02*
X190002357Y-97916666D01*
X190002357Y-97916666D02*
X190073785Y-97864285D01*
X189930928Y-97183333D02*
X189930928Y-96973809D01*
X189930928Y-96973809D02*
X190002357Y-96869047D01*
X190002357Y-96869047D02*
X190145214Y-96764285D01*
X190145214Y-96764285D02*
X190430928Y-96711904D01*
X190430928Y-96711904D02*
X190930928Y-96711904D01*
X190930928Y-96711904D02*
X191216642Y-96764285D01*
X191216642Y-96764285D02*
X191359500Y-96869047D01*
X191359500Y-96869047D02*
X191430928Y-96973809D01*
X191430928Y-96973809D02*
X191430928Y-97183333D01*
X191430928Y-97183333D02*
X191359500Y-97288095D01*
X191359500Y-97288095D02*
X191216642Y-97392857D01*
X191216642Y-97392857D02*
X190930928Y-97445238D01*
X190930928Y-97445238D02*
X190430928Y-97445238D01*
X190430928Y-97445238D02*
X190145214Y-97392857D01*
X190145214Y-97392857D02*
X190002357Y-97288095D01*
X190002357Y-97288095D02*
X189930928Y-97183333D01*
X191430928Y-96240476D02*
X189930928Y-96240476D01*
X189930928Y-96240476D02*
X191002357Y-95873809D01*
X191002357Y-95873809D02*
X189930928Y-95507142D01*
X189930928Y-95507142D02*
X191430928Y-95507142D01*
D10*
%TO.C,C1*%
X170009580Y-102916666D02*
X170057200Y-102964285D01*
X170057200Y-102964285D02*
X170104819Y-103107142D01*
X170104819Y-103107142D02*
X170104819Y-103202380D01*
X170104819Y-103202380D02*
X170057200Y-103345237D01*
X170057200Y-103345237D02*
X169961961Y-103440475D01*
X169961961Y-103440475D02*
X169866723Y-103488094D01*
X169866723Y-103488094D02*
X169676247Y-103535713D01*
X169676247Y-103535713D02*
X169533390Y-103535713D01*
X169533390Y-103535713D02*
X169342914Y-103488094D01*
X169342914Y-103488094D02*
X169247676Y-103440475D01*
X169247676Y-103440475D02*
X169152438Y-103345237D01*
X169152438Y-103345237D02*
X169104819Y-103202380D01*
X169104819Y-103202380D02*
X169104819Y-103107142D01*
X169104819Y-103107142D02*
X169152438Y-102964285D01*
X169152438Y-102964285D02*
X169200057Y-102916666D01*
X170104819Y-101964285D02*
X170104819Y-102535713D01*
X170104819Y-102249999D02*
X169104819Y-102249999D01*
X169104819Y-102249999D02*
X169247676Y-102345237D01*
X169247676Y-102345237D02*
X169342914Y-102440475D01*
X169342914Y-102440475D02*
X169390533Y-102535713D01*
%TO.C,U8*%
X131238095Y-91954819D02*
X131238095Y-92764342D01*
X131238095Y-92764342D02*
X131285714Y-92859580D01*
X131285714Y-92859580D02*
X131333333Y-92907200D01*
X131333333Y-92907200D02*
X131428571Y-92954819D01*
X131428571Y-92954819D02*
X131619047Y-92954819D01*
X131619047Y-92954819D02*
X131714285Y-92907200D01*
X131714285Y-92907200D02*
X131761904Y-92859580D01*
X131761904Y-92859580D02*
X131809523Y-92764342D01*
X131809523Y-92764342D02*
X131809523Y-91954819D01*
X132428571Y-92383390D02*
X132333333Y-92335771D01*
X132333333Y-92335771D02*
X132285714Y-92288152D01*
X132285714Y-92288152D02*
X132238095Y-92192914D01*
X132238095Y-92192914D02*
X132238095Y-92145295D01*
X132238095Y-92145295D02*
X132285714Y-92050057D01*
X132285714Y-92050057D02*
X132333333Y-92002438D01*
X132333333Y-92002438D02*
X132428571Y-91954819D01*
X132428571Y-91954819D02*
X132619047Y-91954819D01*
X132619047Y-91954819D02*
X132714285Y-92002438D01*
X132714285Y-92002438D02*
X132761904Y-92050057D01*
X132761904Y-92050057D02*
X132809523Y-92145295D01*
X132809523Y-92145295D02*
X132809523Y-92192914D01*
X132809523Y-92192914D02*
X132761904Y-92288152D01*
X132761904Y-92288152D02*
X132714285Y-92335771D01*
X132714285Y-92335771D02*
X132619047Y-92383390D01*
X132619047Y-92383390D02*
X132428571Y-92383390D01*
X132428571Y-92383390D02*
X132333333Y-92431009D01*
X132333333Y-92431009D02*
X132285714Y-92478628D01*
X132285714Y-92478628D02*
X132238095Y-92573866D01*
X132238095Y-92573866D02*
X132238095Y-92764342D01*
X132238095Y-92764342D02*
X132285714Y-92859580D01*
X132285714Y-92859580D02*
X132333333Y-92907200D01*
X132333333Y-92907200D02*
X132428571Y-92954819D01*
X132428571Y-92954819D02*
X132619047Y-92954819D01*
X132619047Y-92954819D02*
X132714285Y-92907200D01*
X132714285Y-92907200D02*
X132761904Y-92859580D01*
X132761904Y-92859580D02*
X132809523Y-92764342D01*
X132809523Y-92764342D02*
X132809523Y-92573866D01*
X132809523Y-92573866D02*
X132761904Y-92478628D01*
X132761904Y-92478628D02*
X132714285Y-92431009D01*
X132714285Y-92431009D02*
X132619047Y-92383390D01*
%TO.C,U21*%
X169861905Y-57729819D02*
X169861905Y-58539342D01*
X169861905Y-58539342D02*
X169909524Y-58634580D01*
X169909524Y-58634580D02*
X169957143Y-58682200D01*
X169957143Y-58682200D02*
X170052381Y-58729819D01*
X170052381Y-58729819D02*
X170242857Y-58729819D01*
X170242857Y-58729819D02*
X170338095Y-58682200D01*
X170338095Y-58682200D02*
X170385714Y-58634580D01*
X170385714Y-58634580D02*
X170433333Y-58539342D01*
X170433333Y-58539342D02*
X170433333Y-57729819D01*
X170861905Y-57825057D02*
X170909524Y-57777438D01*
X170909524Y-57777438D02*
X171004762Y-57729819D01*
X171004762Y-57729819D02*
X171242857Y-57729819D01*
X171242857Y-57729819D02*
X171338095Y-57777438D01*
X171338095Y-57777438D02*
X171385714Y-57825057D01*
X171385714Y-57825057D02*
X171433333Y-57920295D01*
X171433333Y-57920295D02*
X171433333Y-58015533D01*
X171433333Y-58015533D02*
X171385714Y-58158390D01*
X171385714Y-58158390D02*
X170814286Y-58729819D01*
X170814286Y-58729819D02*
X171433333Y-58729819D01*
X172385714Y-58729819D02*
X171814286Y-58729819D01*
X172100000Y-58729819D02*
X172100000Y-57729819D01*
X172100000Y-57729819D02*
X172004762Y-57872676D01*
X172004762Y-57872676D02*
X171909524Y-57967914D01*
X171909524Y-57967914D02*
X171814286Y-58015533D01*
%TO.C,U4*%
X130988095Y-72454819D02*
X130988095Y-73264342D01*
X130988095Y-73264342D02*
X131035714Y-73359580D01*
X131035714Y-73359580D02*
X131083333Y-73407200D01*
X131083333Y-73407200D02*
X131178571Y-73454819D01*
X131178571Y-73454819D02*
X131369047Y-73454819D01*
X131369047Y-73454819D02*
X131464285Y-73407200D01*
X131464285Y-73407200D02*
X131511904Y-73359580D01*
X131511904Y-73359580D02*
X131559523Y-73264342D01*
X131559523Y-73264342D02*
X131559523Y-72454819D01*
X132464285Y-72788152D02*
X132464285Y-73454819D01*
X132226190Y-72407200D02*
X131988095Y-73121485D01*
X131988095Y-73121485D02*
X132607142Y-73121485D01*
%TO.C,R7*%
X117783333Y-90374819D02*
X117450000Y-89898628D01*
X117211905Y-90374819D02*
X117211905Y-89374819D01*
X117211905Y-89374819D02*
X117592857Y-89374819D01*
X117592857Y-89374819D02*
X117688095Y-89422438D01*
X117688095Y-89422438D02*
X117735714Y-89470057D01*
X117735714Y-89470057D02*
X117783333Y-89565295D01*
X117783333Y-89565295D02*
X117783333Y-89708152D01*
X117783333Y-89708152D02*
X117735714Y-89803390D01*
X117735714Y-89803390D02*
X117688095Y-89851009D01*
X117688095Y-89851009D02*
X117592857Y-89898628D01*
X117592857Y-89898628D02*
X117211905Y-89898628D01*
X118116667Y-89374819D02*
X118783333Y-89374819D01*
X118783333Y-89374819D02*
X118354762Y-90374819D01*
%TO.C,U15*%
X142186905Y-115629819D02*
X142186905Y-116439342D01*
X142186905Y-116439342D02*
X142234524Y-116534580D01*
X142234524Y-116534580D02*
X142282143Y-116582200D01*
X142282143Y-116582200D02*
X142377381Y-116629819D01*
X142377381Y-116629819D02*
X142567857Y-116629819D01*
X142567857Y-116629819D02*
X142663095Y-116582200D01*
X142663095Y-116582200D02*
X142710714Y-116534580D01*
X142710714Y-116534580D02*
X142758333Y-116439342D01*
X142758333Y-116439342D02*
X142758333Y-115629819D01*
X143758333Y-116629819D02*
X143186905Y-116629819D01*
X143472619Y-116629819D02*
X143472619Y-115629819D01*
X143472619Y-115629819D02*
X143377381Y-115772676D01*
X143377381Y-115772676D02*
X143282143Y-115867914D01*
X143282143Y-115867914D02*
X143186905Y-115915533D01*
X144663095Y-115629819D02*
X144186905Y-115629819D01*
X144186905Y-115629819D02*
X144139286Y-116106009D01*
X144139286Y-116106009D02*
X144186905Y-116058390D01*
X144186905Y-116058390D02*
X144282143Y-116010771D01*
X144282143Y-116010771D02*
X144520238Y-116010771D01*
X144520238Y-116010771D02*
X144615476Y-116058390D01*
X144615476Y-116058390D02*
X144663095Y-116106009D01*
X144663095Y-116106009D02*
X144710714Y-116201247D01*
X144710714Y-116201247D02*
X144710714Y-116439342D01*
X144710714Y-116439342D02*
X144663095Y-116534580D01*
X144663095Y-116534580D02*
X144615476Y-116582200D01*
X144615476Y-116582200D02*
X144520238Y-116629819D01*
X144520238Y-116629819D02*
X144282143Y-116629819D01*
X144282143Y-116629819D02*
X144186905Y-116582200D01*
X144186905Y-116582200D02*
X144139286Y-116534580D01*
%TO.C,R3*%
X118033333Y-70124819D02*
X117700000Y-69648628D01*
X117461905Y-70124819D02*
X117461905Y-69124819D01*
X117461905Y-69124819D02*
X117842857Y-69124819D01*
X117842857Y-69124819D02*
X117938095Y-69172438D01*
X117938095Y-69172438D02*
X117985714Y-69220057D01*
X117985714Y-69220057D02*
X118033333Y-69315295D01*
X118033333Y-69315295D02*
X118033333Y-69458152D01*
X118033333Y-69458152D02*
X117985714Y-69553390D01*
X117985714Y-69553390D02*
X117938095Y-69601009D01*
X117938095Y-69601009D02*
X117842857Y-69648628D01*
X117842857Y-69648628D02*
X117461905Y-69648628D01*
X118366667Y-69124819D02*
X118985714Y-69124819D01*
X118985714Y-69124819D02*
X118652381Y-69505771D01*
X118652381Y-69505771D02*
X118795238Y-69505771D01*
X118795238Y-69505771D02*
X118890476Y-69553390D01*
X118890476Y-69553390D02*
X118938095Y-69601009D01*
X118938095Y-69601009D02*
X118985714Y-69696247D01*
X118985714Y-69696247D02*
X118985714Y-69934342D01*
X118985714Y-69934342D02*
X118938095Y-70029580D01*
X118938095Y-70029580D02*
X118890476Y-70077200D01*
X118890476Y-70077200D02*
X118795238Y-70124819D01*
X118795238Y-70124819D02*
X118509524Y-70124819D01*
X118509524Y-70124819D02*
X118414286Y-70077200D01*
X118414286Y-70077200D02*
X118366667Y-70029580D01*
%TO.C,U1*%
X131238095Y-56954819D02*
X131238095Y-57764342D01*
X131238095Y-57764342D02*
X131285714Y-57859580D01*
X131285714Y-57859580D02*
X131333333Y-57907200D01*
X131333333Y-57907200D02*
X131428571Y-57954819D01*
X131428571Y-57954819D02*
X131619047Y-57954819D01*
X131619047Y-57954819D02*
X131714285Y-57907200D01*
X131714285Y-57907200D02*
X131761904Y-57859580D01*
X131761904Y-57859580D02*
X131809523Y-57764342D01*
X131809523Y-57764342D02*
X131809523Y-56954819D01*
X132809523Y-57954819D02*
X132238095Y-57954819D01*
X132523809Y-57954819D02*
X132523809Y-56954819D01*
X132523809Y-56954819D02*
X132428571Y-57097676D01*
X132428571Y-57097676D02*
X132333333Y-57192914D01*
X132333333Y-57192914D02*
X132238095Y-57240533D01*
%TO.C,R11*%
X165089174Y-79477279D02*
X164755841Y-79001088D01*
X164517746Y-79477279D02*
X164517746Y-78477279D01*
X164517746Y-78477279D02*
X164898698Y-78477279D01*
X164898698Y-78477279D02*
X164993936Y-78524898D01*
X164993936Y-78524898D02*
X165041555Y-78572517D01*
X165041555Y-78572517D02*
X165089174Y-78667755D01*
X165089174Y-78667755D02*
X165089174Y-78810612D01*
X165089174Y-78810612D02*
X165041555Y-78905850D01*
X165041555Y-78905850D02*
X164993936Y-78953469D01*
X164993936Y-78953469D02*
X164898698Y-79001088D01*
X164898698Y-79001088D02*
X164517746Y-79001088D01*
X166041555Y-79477279D02*
X165470127Y-79477279D01*
X165755841Y-79477279D02*
X165755841Y-78477279D01*
X165755841Y-78477279D02*
X165660603Y-78620136D01*
X165660603Y-78620136D02*
X165565365Y-78715374D01*
X165565365Y-78715374D02*
X165470127Y-78762993D01*
X166993936Y-79477279D02*
X166422508Y-79477279D01*
X166708222Y-79477279D02*
X166708222Y-78477279D01*
X166708222Y-78477279D02*
X166612984Y-78620136D01*
X166612984Y-78620136D02*
X166517746Y-78715374D01*
X166517746Y-78715374D02*
X166422508Y-78762993D01*
%TO.C,U10*%
X131011905Y-101954819D02*
X131011905Y-102764342D01*
X131011905Y-102764342D02*
X131059524Y-102859580D01*
X131059524Y-102859580D02*
X131107143Y-102907200D01*
X131107143Y-102907200D02*
X131202381Y-102954819D01*
X131202381Y-102954819D02*
X131392857Y-102954819D01*
X131392857Y-102954819D02*
X131488095Y-102907200D01*
X131488095Y-102907200D02*
X131535714Y-102859580D01*
X131535714Y-102859580D02*
X131583333Y-102764342D01*
X131583333Y-102764342D02*
X131583333Y-101954819D01*
X132583333Y-102954819D02*
X132011905Y-102954819D01*
X132297619Y-102954819D02*
X132297619Y-101954819D01*
X132297619Y-101954819D02*
X132202381Y-102097676D01*
X132202381Y-102097676D02*
X132107143Y-102192914D01*
X132107143Y-102192914D02*
X132011905Y-102240533D01*
X133202381Y-101954819D02*
X133297619Y-101954819D01*
X133297619Y-101954819D02*
X133392857Y-102002438D01*
X133392857Y-102002438D02*
X133440476Y-102050057D01*
X133440476Y-102050057D02*
X133488095Y-102145295D01*
X133488095Y-102145295D02*
X133535714Y-102335771D01*
X133535714Y-102335771D02*
X133535714Y-102573866D01*
X133535714Y-102573866D02*
X133488095Y-102764342D01*
X133488095Y-102764342D02*
X133440476Y-102859580D01*
X133440476Y-102859580D02*
X133392857Y-102907200D01*
X133392857Y-102907200D02*
X133297619Y-102954819D01*
X133297619Y-102954819D02*
X133202381Y-102954819D01*
X133202381Y-102954819D02*
X133107143Y-102907200D01*
X133107143Y-102907200D02*
X133059524Y-102859580D01*
X133059524Y-102859580D02*
X133011905Y-102764342D01*
X133011905Y-102764342D02*
X132964286Y-102573866D01*
X132964286Y-102573866D02*
X132964286Y-102335771D01*
X132964286Y-102335771D02*
X133011905Y-102145295D01*
X133011905Y-102145295D02*
X133059524Y-102050057D01*
X133059524Y-102050057D02*
X133107143Y-102002438D01*
X133107143Y-102002438D02*
X133202381Y-101954819D01*
%TO.C,U14*%
X172053937Y-84358945D02*
X172053937Y-85168468D01*
X172053937Y-85168468D02*
X172101556Y-85263706D01*
X172101556Y-85263706D02*
X172149175Y-85311326D01*
X172149175Y-85311326D02*
X172244413Y-85358945D01*
X172244413Y-85358945D02*
X172434889Y-85358945D01*
X172434889Y-85358945D02*
X172530127Y-85311326D01*
X172530127Y-85311326D02*
X172577746Y-85263706D01*
X172577746Y-85263706D02*
X172625365Y-85168468D01*
X172625365Y-85168468D02*
X172625365Y-84358945D01*
X173625365Y-85358945D02*
X173053937Y-85358945D01*
X173339651Y-85358945D02*
X173339651Y-84358945D01*
X173339651Y-84358945D02*
X173244413Y-84501802D01*
X173244413Y-84501802D02*
X173149175Y-84597040D01*
X173149175Y-84597040D02*
X173053937Y-84644659D01*
X174482508Y-84692278D02*
X174482508Y-85358945D01*
X174244413Y-84311326D02*
X174006318Y-85025611D01*
X174006318Y-85025611D02*
X174625365Y-85025611D01*
%TO.C,U16*%
X172053937Y-89452278D02*
X172053937Y-90261801D01*
X172053937Y-90261801D02*
X172101556Y-90357039D01*
X172101556Y-90357039D02*
X172149175Y-90404659D01*
X172149175Y-90404659D02*
X172244413Y-90452278D01*
X172244413Y-90452278D02*
X172434889Y-90452278D01*
X172434889Y-90452278D02*
X172530127Y-90404659D01*
X172530127Y-90404659D02*
X172577746Y-90357039D01*
X172577746Y-90357039D02*
X172625365Y-90261801D01*
X172625365Y-90261801D02*
X172625365Y-89452278D01*
X173625365Y-90452278D02*
X173053937Y-90452278D01*
X173339651Y-90452278D02*
X173339651Y-89452278D01*
X173339651Y-89452278D02*
X173244413Y-89595135D01*
X173244413Y-89595135D02*
X173149175Y-89690373D01*
X173149175Y-89690373D02*
X173053937Y-89737992D01*
X174482508Y-89452278D02*
X174292032Y-89452278D01*
X174292032Y-89452278D02*
X174196794Y-89499897D01*
X174196794Y-89499897D02*
X174149175Y-89547516D01*
X174149175Y-89547516D02*
X174053937Y-89690373D01*
X174053937Y-89690373D02*
X174006318Y-89880849D01*
X174006318Y-89880849D02*
X174006318Y-90261801D01*
X174006318Y-90261801D02*
X174053937Y-90357039D01*
X174053937Y-90357039D02*
X174101556Y-90404659D01*
X174101556Y-90404659D02*
X174196794Y-90452278D01*
X174196794Y-90452278D02*
X174387270Y-90452278D01*
X174387270Y-90452278D02*
X174482508Y-90404659D01*
X174482508Y-90404659D02*
X174530127Y-90357039D01*
X174530127Y-90357039D02*
X174577746Y-90261801D01*
X174577746Y-90261801D02*
X174577746Y-90023706D01*
X174577746Y-90023706D02*
X174530127Y-89928468D01*
X174530127Y-89928468D02*
X174482508Y-89880849D01*
X174482508Y-89880849D02*
X174387270Y-89833230D01*
X174387270Y-89833230D02*
X174196794Y-89833230D01*
X174196794Y-89833230D02*
X174101556Y-89880849D01*
X174101556Y-89880849D02*
X174053937Y-89928468D01*
X174053937Y-89928468D02*
X174006318Y-90023706D01*
%TO.C,R13*%
X165089174Y-89477279D02*
X164755841Y-89001088D01*
X164517746Y-89477279D02*
X164517746Y-88477279D01*
X164517746Y-88477279D02*
X164898698Y-88477279D01*
X164898698Y-88477279D02*
X164993936Y-88524898D01*
X164993936Y-88524898D02*
X165041555Y-88572517D01*
X165041555Y-88572517D02*
X165089174Y-88667755D01*
X165089174Y-88667755D02*
X165089174Y-88810612D01*
X165089174Y-88810612D02*
X165041555Y-88905850D01*
X165041555Y-88905850D02*
X164993936Y-88953469D01*
X164993936Y-88953469D02*
X164898698Y-89001088D01*
X164898698Y-89001088D02*
X164517746Y-89001088D01*
X166041555Y-89477279D02*
X165470127Y-89477279D01*
X165755841Y-89477279D02*
X165755841Y-88477279D01*
X165755841Y-88477279D02*
X165660603Y-88620136D01*
X165660603Y-88620136D02*
X165565365Y-88715374D01*
X165565365Y-88715374D02*
X165470127Y-88762993D01*
X166374889Y-88477279D02*
X166993936Y-88477279D01*
X166993936Y-88477279D02*
X166660603Y-88858231D01*
X166660603Y-88858231D02*
X166803460Y-88858231D01*
X166803460Y-88858231D02*
X166898698Y-88905850D01*
X166898698Y-88905850D02*
X166946317Y-88953469D01*
X166946317Y-88953469D02*
X166993936Y-89048707D01*
X166993936Y-89048707D02*
X166993936Y-89286802D01*
X166993936Y-89286802D02*
X166946317Y-89382040D01*
X166946317Y-89382040D02*
X166898698Y-89429660D01*
X166898698Y-89429660D02*
X166803460Y-89477279D01*
X166803460Y-89477279D02*
X166517746Y-89477279D01*
X166517746Y-89477279D02*
X166422508Y-89429660D01*
X166422508Y-89429660D02*
X166374889Y-89382040D01*
%TO.C,R15*%
X174284819Y-110092857D02*
X173808628Y-110426190D01*
X174284819Y-110664285D02*
X173284819Y-110664285D01*
X173284819Y-110664285D02*
X173284819Y-110283333D01*
X173284819Y-110283333D02*
X173332438Y-110188095D01*
X173332438Y-110188095D02*
X173380057Y-110140476D01*
X173380057Y-110140476D02*
X173475295Y-110092857D01*
X173475295Y-110092857D02*
X173618152Y-110092857D01*
X173618152Y-110092857D02*
X173713390Y-110140476D01*
X173713390Y-110140476D02*
X173761009Y-110188095D01*
X173761009Y-110188095D02*
X173808628Y-110283333D01*
X173808628Y-110283333D02*
X173808628Y-110664285D01*
X174284819Y-109140476D02*
X174284819Y-109711904D01*
X174284819Y-109426190D02*
X173284819Y-109426190D01*
X173284819Y-109426190D02*
X173427676Y-109521428D01*
X173427676Y-109521428D02*
X173522914Y-109616666D01*
X173522914Y-109616666D02*
X173570533Y-109711904D01*
X173284819Y-108235714D02*
X173284819Y-108711904D01*
X173284819Y-108711904D02*
X173761009Y-108759523D01*
X173761009Y-108759523D02*
X173713390Y-108711904D01*
X173713390Y-108711904D02*
X173665771Y-108616666D01*
X173665771Y-108616666D02*
X173665771Y-108378571D01*
X173665771Y-108378571D02*
X173713390Y-108283333D01*
X173713390Y-108283333D02*
X173761009Y-108235714D01*
X173761009Y-108235714D02*
X173856247Y-108188095D01*
X173856247Y-108188095D02*
X174094342Y-108188095D01*
X174094342Y-108188095D02*
X174189580Y-108235714D01*
X174189580Y-108235714D02*
X174237200Y-108283333D01*
X174237200Y-108283333D02*
X174284819Y-108378571D01*
X174284819Y-108378571D02*
X174284819Y-108616666D01*
X174284819Y-108616666D02*
X174237200Y-108711904D01*
X174237200Y-108711904D02*
X174189580Y-108759523D01*
%TO.C,R6*%
X117783333Y-85374819D02*
X117450000Y-84898628D01*
X117211905Y-85374819D02*
X117211905Y-84374819D01*
X117211905Y-84374819D02*
X117592857Y-84374819D01*
X117592857Y-84374819D02*
X117688095Y-84422438D01*
X117688095Y-84422438D02*
X117735714Y-84470057D01*
X117735714Y-84470057D02*
X117783333Y-84565295D01*
X117783333Y-84565295D02*
X117783333Y-84708152D01*
X117783333Y-84708152D02*
X117735714Y-84803390D01*
X117735714Y-84803390D02*
X117688095Y-84851009D01*
X117688095Y-84851009D02*
X117592857Y-84898628D01*
X117592857Y-84898628D02*
X117211905Y-84898628D01*
X118640476Y-84374819D02*
X118450000Y-84374819D01*
X118450000Y-84374819D02*
X118354762Y-84422438D01*
X118354762Y-84422438D02*
X118307143Y-84470057D01*
X118307143Y-84470057D02*
X118211905Y-84612914D01*
X118211905Y-84612914D02*
X118164286Y-84803390D01*
X118164286Y-84803390D02*
X118164286Y-85184342D01*
X118164286Y-85184342D02*
X118211905Y-85279580D01*
X118211905Y-85279580D02*
X118259524Y-85327200D01*
X118259524Y-85327200D02*
X118354762Y-85374819D01*
X118354762Y-85374819D02*
X118545238Y-85374819D01*
X118545238Y-85374819D02*
X118640476Y-85327200D01*
X118640476Y-85327200D02*
X118688095Y-85279580D01*
X118688095Y-85279580D02*
X118735714Y-85184342D01*
X118735714Y-85184342D02*
X118735714Y-84946247D01*
X118735714Y-84946247D02*
X118688095Y-84851009D01*
X118688095Y-84851009D02*
X118640476Y-84803390D01*
X118640476Y-84803390D02*
X118545238Y-84755771D01*
X118545238Y-84755771D02*
X118354762Y-84755771D01*
X118354762Y-84755771D02*
X118259524Y-84803390D01*
X118259524Y-84803390D02*
X118211905Y-84851009D01*
X118211905Y-84851009D02*
X118164286Y-84946247D01*
%TO.C,U9*%
X130738095Y-97204819D02*
X130738095Y-98014342D01*
X130738095Y-98014342D02*
X130785714Y-98109580D01*
X130785714Y-98109580D02*
X130833333Y-98157200D01*
X130833333Y-98157200D02*
X130928571Y-98204819D01*
X130928571Y-98204819D02*
X131119047Y-98204819D01*
X131119047Y-98204819D02*
X131214285Y-98157200D01*
X131214285Y-98157200D02*
X131261904Y-98109580D01*
X131261904Y-98109580D02*
X131309523Y-98014342D01*
X131309523Y-98014342D02*
X131309523Y-97204819D01*
X131833333Y-98204819D02*
X132023809Y-98204819D01*
X132023809Y-98204819D02*
X132119047Y-98157200D01*
X132119047Y-98157200D02*
X132166666Y-98109580D01*
X132166666Y-98109580D02*
X132261904Y-97966723D01*
X132261904Y-97966723D02*
X132309523Y-97776247D01*
X132309523Y-97776247D02*
X132309523Y-97395295D01*
X132309523Y-97395295D02*
X132261904Y-97300057D01*
X132261904Y-97300057D02*
X132214285Y-97252438D01*
X132214285Y-97252438D02*
X132119047Y-97204819D01*
X132119047Y-97204819D02*
X131928571Y-97204819D01*
X131928571Y-97204819D02*
X131833333Y-97252438D01*
X131833333Y-97252438D02*
X131785714Y-97300057D01*
X131785714Y-97300057D02*
X131738095Y-97395295D01*
X131738095Y-97395295D02*
X131738095Y-97633390D01*
X131738095Y-97633390D02*
X131785714Y-97728628D01*
X131785714Y-97728628D02*
X131833333Y-97776247D01*
X131833333Y-97776247D02*
X131928571Y-97823866D01*
X131928571Y-97823866D02*
X132119047Y-97823866D01*
X132119047Y-97823866D02*
X132214285Y-97776247D01*
X132214285Y-97776247D02*
X132261904Y-97728628D01*
X132261904Y-97728628D02*
X132309523Y-97633390D01*
%TO.C,R4*%
X118033333Y-75124819D02*
X117700000Y-74648628D01*
X117461905Y-75124819D02*
X117461905Y-74124819D01*
X117461905Y-74124819D02*
X117842857Y-74124819D01*
X117842857Y-74124819D02*
X117938095Y-74172438D01*
X117938095Y-74172438D02*
X117985714Y-74220057D01*
X117985714Y-74220057D02*
X118033333Y-74315295D01*
X118033333Y-74315295D02*
X118033333Y-74458152D01*
X118033333Y-74458152D02*
X117985714Y-74553390D01*
X117985714Y-74553390D02*
X117938095Y-74601009D01*
X117938095Y-74601009D02*
X117842857Y-74648628D01*
X117842857Y-74648628D02*
X117461905Y-74648628D01*
X118890476Y-74458152D02*
X118890476Y-75124819D01*
X118652381Y-74077200D02*
X118414286Y-74791485D01*
X118414286Y-74791485D02*
X119033333Y-74791485D01*
%TO.C,R12*%
X165119174Y-84477279D02*
X164785841Y-84001088D01*
X164547746Y-84477279D02*
X164547746Y-83477279D01*
X164547746Y-83477279D02*
X164928698Y-83477279D01*
X164928698Y-83477279D02*
X165023936Y-83524898D01*
X165023936Y-83524898D02*
X165071555Y-83572517D01*
X165071555Y-83572517D02*
X165119174Y-83667755D01*
X165119174Y-83667755D02*
X165119174Y-83810612D01*
X165119174Y-83810612D02*
X165071555Y-83905850D01*
X165071555Y-83905850D02*
X165023936Y-83953469D01*
X165023936Y-83953469D02*
X164928698Y-84001088D01*
X164928698Y-84001088D02*
X164547746Y-84001088D01*
X166071555Y-84477279D02*
X165500127Y-84477279D01*
X165785841Y-84477279D02*
X165785841Y-83477279D01*
X165785841Y-83477279D02*
X165690603Y-83620136D01*
X165690603Y-83620136D02*
X165595365Y-83715374D01*
X165595365Y-83715374D02*
X165500127Y-83762993D01*
X166452508Y-83572517D02*
X166500127Y-83524898D01*
X166500127Y-83524898D02*
X166595365Y-83477279D01*
X166595365Y-83477279D02*
X166833460Y-83477279D01*
X166833460Y-83477279D02*
X166928698Y-83524898D01*
X166928698Y-83524898D02*
X166976317Y-83572517D01*
X166976317Y-83572517D02*
X167023936Y-83667755D01*
X167023936Y-83667755D02*
X167023936Y-83762993D01*
X167023936Y-83762993D02*
X166976317Y-83905850D01*
X166976317Y-83905850D02*
X166404889Y-84477279D01*
X166404889Y-84477279D02*
X167023936Y-84477279D01*
%TO.C,R9*%
X117783333Y-100124819D02*
X117450000Y-99648628D01*
X117211905Y-100124819D02*
X117211905Y-99124819D01*
X117211905Y-99124819D02*
X117592857Y-99124819D01*
X117592857Y-99124819D02*
X117688095Y-99172438D01*
X117688095Y-99172438D02*
X117735714Y-99220057D01*
X117735714Y-99220057D02*
X117783333Y-99315295D01*
X117783333Y-99315295D02*
X117783333Y-99458152D01*
X117783333Y-99458152D02*
X117735714Y-99553390D01*
X117735714Y-99553390D02*
X117688095Y-99601009D01*
X117688095Y-99601009D02*
X117592857Y-99648628D01*
X117592857Y-99648628D02*
X117211905Y-99648628D01*
X118259524Y-100124819D02*
X118450000Y-100124819D01*
X118450000Y-100124819D02*
X118545238Y-100077200D01*
X118545238Y-100077200D02*
X118592857Y-100029580D01*
X118592857Y-100029580D02*
X118688095Y-99886723D01*
X118688095Y-99886723D02*
X118735714Y-99696247D01*
X118735714Y-99696247D02*
X118735714Y-99315295D01*
X118735714Y-99315295D02*
X118688095Y-99220057D01*
X118688095Y-99220057D02*
X118640476Y-99172438D01*
X118640476Y-99172438D02*
X118545238Y-99124819D01*
X118545238Y-99124819D02*
X118354762Y-99124819D01*
X118354762Y-99124819D02*
X118259524Y-99172438D01*
X118259524Y-99172438D02*
X118211905Y-99220057D01*
X118211905Y-99220057D02*
X118164286Y-99315295D01*
X118164286Y-99315295D02*
X118164286Y-99553390D01*
X118164286Y-99553390D02*
X118211905Y-99648628D01*
X118211905Y-99648628D02*
X118259524Y-99696247D01*
X118259524Y-99696247D02*
X118354762Y-99743866D01*
X118354762Y-99743866D02*
X118545238Y-99743866D01*
X118545238Y-99743866D02*
X118640476Y-99696247D01*
X118640476Y-99696247D02*
X118688095Y-99648628D01*
X118688095Y-99648628D02*
X118735714Y-99553390D01*
%TO.C,R1*%
X118033333Y-60124819D02*
X117700000Y-59648628D01*
X117461905Y-60124819D02*
X117461905Y-59124819D01*
X117461905Y-59124819D02*
X117842857Y-59124819D01*
X117842857Y-59124819D02*
X117938095Y-59172438D01*
X117938095Y-59172438D02*
X117985714Y-59220057D01*
X117985714Y-59220057D02*
X118033333Y-59315295D01*
X118033333Y-59315295D02*
X118033333Y-59458152D01*
X118033333Y-59458152D02*
X117985714Y-59553390D01*
X117985714Y-59553390D02*
X117938095Y-59601009D01*
X117938095Y-59601009D02*
X117842857Y-59648628D01*
X117842857Y-59648628D02*
X117461905Y-59648628D01*
X118985714Y-60124819D02*
X118414286Y-60124819D01*
X118700000Y-60124819D02*
X118700000Y-59124819D01*
X118700000Y-59124819D02*
X118604762Y-59267676D01*
X118604762Y-59267676D02*
X118509524Y-59362914D01*
X118509524Y-59362914D02*
X118414286Y-59410533D01*
%TO.C,R10*%
X117307142Y-105044707D02*
X116973809Y-104568516D01*
X116735714Y-105044707D02*
X116735714Y-104044707D01*
X116735714Y-104044707D02*
X117116666Y-104044707D01*
X117116666Y-104044707D02*
X117211904Y-104092326D01*
X117211904Y-104092326D02*
X117259523Y-104139945D01*
X117259523Y-104139945D02*
X117307142Y-104235183D01*
X117307142Y-104235183D02*
X117307142Y-104378040D01*
X117307142Y-104378040D02*
X117259523Y-104473278D01*
X117259523Y-104473278D02*
X117211904Y-104520897D01*
X117211904Y-104520897D02*
X117116666Y-104568516D01*
X117116666Y-104568516D02*
X116735714Y-104568516D01*
X118259523Y-105044707D02*
X117688095Y-105044707D01*
X117973809Y-105044707D02*
X117973809Y-104044707D01*
X117973809Y-104044707D02*
X117878571Y-104187564D01*
X117878571Y-104187564D02*
X117783333Y-104282802D01*
X117783333Y-104282802D02*
X117688095Y-104330421D01*
X118878571Y-104044707D02*
X118973809Y-104044707D01*
X118973809Y-104044707D02*
X119069047Y-104092326D01*
X119069047Y-104092326D02*
X119116666Y-104139945D01*
X119116666Y-104139945D02*
X119164285Y-104235183D01*
X119164285Y-104235183D02*
X119211904Y-104425659D01*
X119211904Y-104425659D02*
X119211904Y-104663754D01*
X119211904Y-104663754D02*
X119164285Y-104854230D01*
X119164285Y-104854230D02*
X119116666Y-104949468D01*
X119116666Y-104949468D02*
X119069047Y-104997088D01*
X119069047Y-104997088D02*
X118973809Y-105044707D01*
X118973809Y-105044707D02*
X118878571Y-105044707D01*
X118878571Y-105044707D02*
X118783333Y-104997088D01*
X118783333Y-104997088D02*
X118735714Y-104949468D01*
X118735714Y-104949468D02*
X118688095Y-104854230D01*
X118688095Y-104854230D02*
X118640476Y-104663754D01*
X118640476Y-104663754D02*
X118640476Y-104425659D01*
X118640476Y-104425659D02*
X118688095Y-104235183D01*
X118688095Y-104235183D02*
X118735714Y-104139945D01*
X118735714Y-104139945D02*
X118783333Y-104092326D01*
X118783333Y-104092326D02*
X118878571Y-104044707D01*
%TO.C,R8*%
X117783333Y-95124819D02*
X117450000Y-94648628D01*
X117211905Y-95124819D02*
X117211905Y-94124819D01*
X117211905Y-94124819D02*
X117592857Y-94124819D01*
X117592857Y-94124819D02*
X117688095Y-94172438D01*
X117688095Y-94172438D02*
X117735714Y-94220057D01*
X117735714Y-94220057D02*
X117783333Y-94315295D01*
X117783333Y-94315295D02*
X117783333Y-94458152D01*
X117783333Y-94458152D02*
X117735714Y-94553390D01*
X117735714Y-94553390D02*
X117688095Y-94601009D01*
X117688095Y-94601009D02*
X117592857Y-94648628D01*
X117592857Y-94648628D02*
X117211905Y-94648628D01*
X118354762Y-94553390D02*
X118259524Y-94505771D01*
X118259524Y-94505771D02*
X118211905Y-94458152D01*
X118211905Y-94458152D02*
X118164286Y-94362914D01*
X118164286Y-94362914D02*
X118164286Y-94315295D01*
X118164286Y-94315295D02*
X118211905Y-94220057D01*
X118211905Y-94220057D02*
X118259524Y-94172438D01*
X118259524Y-94172438D02*
X118354762Y-94124819D01*
X118354762Y-94124819D02*
X118545238Y-94124819D01*
X118545238Y-94124819D02*
X118640476Y-94172438D01*
X118640476Y-94172438D02*
X118688095Y-94220057D01*
X118688095Y-94220057D02*
X118735714Y-94315295D01*
X118735714Y-94315295D02*
X118735714Y-94362914D01*
X118735714Y-94362914D02*
X118688095Y-94458152D01*
X118688095Y-94458152D02*
X118640476Y-94505771D01*
X118640476Y-94505771D02*
X118545238Y-94553390D01*
X118545238Y-94553390D02*
X118354762Y-94553390D01*
X118354762Y-94553390D02*
X118259524Y-94601009D01*
X118259524Y-94601009D02*
X118211905Y-94648628D01*
X118211905Y-94648628D02*
X118164286Y-94743866D01*
X118164286Y-94743866D02*
X118164286Y-94934342D01*
X118164286Y-94934342D02*
X118211905Y-95029580D01*
X118211905Y-95029580D02*
X118259524Y-95077200D01*
X118259524Y-95077200D02*
X118354762Y-95124819D01*
X118354762Y-95124819D02*
X118545238Y-95124819D01*
X118545238Y-95124819D02*
X118640476Y-95077200D01*
X118640476Y-95077200D02*
X118688095Y-95029580D01*
X118688095Y-95029580D02*
X118735714Y-94934342D01*
X118735714Y-94934342D02*
X118735714Y-94743866D01*
X118735714Y-94743866D02*
X118688095Y-94648628D01*
X118688095Y-94648628D02*
X118640476Y-94601009D01*
X118640476Y-94601009D02*
X118545238Y-94553390D01*
%TO.C,U12*%
X172033937Y-74172279D02*
X172033937Y-74981802D01*
X172033937Y-74981802D02*
X172081556Y-75077040D01*
X172081556Y-75077040D02*
X172129175Y-75124660D01*
X172129175Y-75124660D02*
X172224413Y-75172279D01*
X172224413Y-75172279D02*
X172414889Y-75172279D01*
X172414889Y-75172279D02*
X172510127Y-75124660D01*
X172510127Y-75124660D02*
X172557746Y-75077040D01*
X172557746Y-75077040D02*
X172605365Y-74981802D01*
X172605365Y-74981802D02*
X172605365Y-74172279D01*
X173605365Y-75172279D02*
X173033937Y-75172279D01*
X173319651Y-75172279D02*
X173319651Y-74172279D01*
X173319651Y-74172279D02*
X173224413Y-74315136D01*
X173224413Y-74315136D02*
X173129175Y-74410374D01*
X173129175Y-74410374D02*
X173033937Y-74457993D01*
X173986318Y-74267517D02*
X174033937Y-74219898D01*
X174033937Y-74219898D02*
X174129175Y-74172279D01*
X174129175Y-74172279D02*
X174367270Y-74172279D01*
X174367270Y-74172279D02*
X174462508Y-74219898D01*
X174462508Y-74219898D02*
X174510127Y-74267517D01*
X174510127Y-74267517D02*
X174557746Y-74362755D01*
X174557746Y-74362755D02*
X174557746Y-74457993D01*
X174557746Y-74457993D02*
X174510127Y-74600850D01*
X174510127Y-74600850D02*
X173938699Y-75172279D01*
X173938699Y-75172279D02*
X174557746Y-75172279D01*
%TO.C,J1*%
X177194819Y-85083333D02*
X177909104Y-85083333D01*
X177909104Y-85083333D02*
X178051961Y-85130952D01*
X178051961Y-85130952D02*
X178147200Y-85226190D01*
X178147200Y-85226190D02*
X178194819Y-85369047D01*
X178194819Y-85369047D02*
X178194819Y-85464285D01*
X178194819Y-84083333D02*
X178194819Y-84654761D01*
X178194819Y-84369047D02*
X177194819Y-84369047D01*
X177194819Y-84369047D02*
X177337676Y-84464285D01*
X177337676Y-84464285D02*
X177432914Y-84559523D01*
X177432914Y-84559523D02*
X177480533Y-84654761D01*
%TO.C,R2*%
X118033333Y-65374819D02*
X117700000Y-64898628D01*
X117461905Y-65374819D02*
X117461905Y-64374819D01*
X117461905Y-64374819D02*
X117842857Y-64374819D01*
X117842857Y-64374819D02*
X117938095Y-64422438D01*
X117938095Y-64422438D02*
X117985714Y-64470057D01*
X117985714Y-64470057D02*
X118033333Y-64565295D01*
X118033333Y-64565295D02*
X118033333Y-64708152D01*
X118033333Y-64708152D02*
X117985714Y-64803390D01*
X117985714Y-64803390D02*
X117938095Y-64851009D01*
X117938095Y-64851009D02*
X117842857Y-64898628D01*
X117842857Y-64898628D02*
X117461905Y-64898628D01*
X118414286Y-64470057D02*
X118461905Y-64422438D01*
X118461905Y-64422438D02*
X118557143Y-64374819D01*
X118557143Y-64374819D02*
X118795238Y-64374819D01*
X118795238Y-64374819D02*
X118890476Y-64422438D01*
X118890476Y-64422438D02*
X118938095Y-64470057D01*
X118938095Y-64470057D02*
X118985714Y-64565295D01*
X118985714Y-64565295D02*
X118985714Y-64660533D01*
X118985714Y-64660533D02*
X118938095Y-64803390D01*
X118938095Y-64803390D02*
X118366667Y-65374819D01*
X118366667Y-65374819D02*
X118985714Y-65374819D01*
%TO.C,R16*%
X119624819Y-110942857D02*
X119148628Y-111276190D01*
X119624819Y-111514285D02*
X118624819Y-111514285D01*
X118624819Y-111514285D02*
X118624819Y-111133333D01*
X118624819Y-111133333D02*
X118672438Y-111038095D01*
X118672438Y-111038095D02*
X118720057Y-110990476D01*
X118720057Y-110990476D02*
X118815295Y-110942857D01*
X118815295Y-110942857D02*
X118958152Y-110942857D01*
X118958152Y-110942857D02*
X119053390Y-110990476D01*
X119053390Y-110990476D02*
X119101009Y-111038095D01*
X119101009Y-111038095D02*
X119148628Y-111133333D01*
X119148628Y-111133333D02*
X119148628Y-111514285D01*
X119624819Y-109990476D02*
X119624819Y-110561904D01*
X119624819Y-110276190D02*
X118624819Y-110276190D01*
X118624819Y-110276190D02*
X118767676Y-110371428D01*
X118767676Y-110371428D02*
X118862914Y-110466666D01*
X118862914Y-110466666D02*
X118910533Y-110561904D01*
X118624819Y-109133333D02*
X118624819Y-109323809D01*
X118624819Y-109323809D02*
X118672438Y-109419047D01*
X118672438Y-109419047D02*
X118720057Y-109466666D01*
X118720057Y-109466666D02*
X118862914Y-109561904D01*
X118862914Y-109561904D02*
X119053390Y-109609523D01*
X119053390Y-109609523D02*
X119434342Y-109609523D01*
X119434342Y-109609523D02*
X119529580Y-109561904D01*
X119529580Y-109561904D02*
X119577200Y-109514285D01*
X119577200Y-109514285D02*
X119624819Y-109419047D01*
X119624819Y-109419047D02*
X119624819Y-109228571D01*
X119624819Y-109228571D02*
X119577200Y-109133333D01*
X119577200Y-109133333D02*
X119529580Y-109085714D01*
X119529580Y-109085714D02*
X119434342Y-109038095D01*
X119434342Y-109038095D02*
X119196247Y-109038095D01*
X119196247Y-109038095D02*
X119101009Y-109085714D01*
X119101009Y-109085714D02*
X119053390Y-109133333D01*
X119053390Y-109133333D02*
X119005771Y-109228571D01*
X119005771Y-109228571D02*
X119005771Y-109419047D01*
X119005771Y-109419047D02*
X119053390Y-109514285D01*
X119053390Y-109514285D02*
X119101009Y-109561904D01*
X119101009Y-109561904D02*
X119196247Y-109609523D01*
%TO.C,U3*%
X130988095Y-67454819D02*
X130988095Y-68264342D01*
X130988095Y-68264342D02*
X131035714Y-68359580D01*
X131035714Y-68359580D02*
X131083333Y-68407200D01*
X131083333Y-68407200D02*
X131178571Y-68454819D01*
X131178571Y-68454819D02*
X131369047Y-68454819D01*
X131369047Y-68454819D02*
X131464285Y-68407200D01*
X131464285Y-68407200D02*
X131511904Y-68359580D01*
X131511904Y-68359580D02*
X131559523Y-68264342D01*
X131559523Y-68264342D02*
X131559523Y-67454819D01*
X131940476Y-67454819D02*
X132559523Y-67454819D01*
X132559523Y-67454819D02*
X132226190Y-67835771D01*
X132226190Y-67835771D02*
X132369047Y-67835771D01*
X132369047Y-67835771D02*
X132464285Y-67883390D01*
X132464285Y-67883390D02*
X132511904Y-67931009D01*
X132511904Y-67931009D02*
X132559523Y-68026247D01*
X132559523Y-68026247D02*
X132559523Y-68264342D01*
X132559523Y-68264342D02*
X132511904Y-68359580D01*
X132511904Y-68359580D02*
X132464285Y-68407200D01*
X132464285Y-68407200D02*
X132369047Y-68454819D01*
X132369047Y-68454819D02*
X132083333Y-68454819D01*
X132083333Y-68454819D02*
X131988095Y-68407200D01*
X131988095Y-68407200D02*
X131940476Y-68359580D01*
%TO.C,U13*%
X172053937Y-79265612D02*
X172053937Y-80075135D01*
X172053937Y-80075135D02*
X172101556Y-80170373D01*
X172101556Y-80170373D02*
X172149175Y-80217993D01*
X172149175Y-80217993D02*
X172244413Y-80265612D01*
X172244413Y-80265612D02*
X172434889Y-80265612D01*
X172434889Y-80265612D02*
X172530127Y-80217993D01*
X172530127Y-80217993D02*
X172577746Y-80170373D01*
X172577746Y-80170373D02*
X172625365Y-80075135D01*
X172625365Y-80075135D02*
X172625365Y-79265612D01*
X173625365Y-80265612D02*
X173053937Y-80265612D01*
X173339651Y-80265612D02*
X173339651Y-79265612D01*
X173339651Y-79265612D02*
X173244413Y-79408469D01*
X173244413Y-79408469D02*
X173149175Y-79503707D01*
X173149175Y-79503707D02*
X173053937Y-79551326D01*
X173958699Y-79265612D02*
X174577746Y-79265612D01*
X174577746Y-79265612D02*
X174244413Y-79646564D01*
X174244413Y-79646564D02*
X174387270Y-79646564D01*
X174387270Y-79646564D02*
X174482508Y-79694183D01*
X174482508Y-79694183D02*
X174530127Y-79741802D01*
X174530127Y-79741802D02*
X174577746Y-79837040D01*
X174577746Y-79837040D02*
X174577746Y-80075135D01*
X174577746Y-80075135D02*
X174530127Y-80170373D01*
X174530127Y-80170373D02*
X174482508Y-80217993D01*
X174482508Y-80217993D02*
X174387270Y-80265612D01*
X174387270Y-80265612D02*
X174101556Y-80265612D01*
X174101556Y-80265612D02*
X174006318Y-80217993D01*
X174006318Y-80217993D02*
X173958699Y-80170373D01*
%TO.C,U7*%
X130738095Y-87454819D02*
X130738095Y-88264342D01*
X130738095Y-88264342D02*
X130785714Y-88359580D01*
X130785714Y-88359580D02*
X130833333Y-88407200D01*
X130833333Y-88407200D02*
X130928571Y-88454819D01*
X130928571Y-88454819D02*
X131119047Y-88454819D01*
X131119047Y-88454819D02*
X131214285Y-88407200D01*
X131214285Y-88407200D02*
X131261904Y-88359580D01*
X131261904Y-88359580D02*
X131309523Y-88264342D01*
X131309523Y-88264342D02*
X131309523Y-87454819D01*
X131690476Y-87454819D02*
X132357142Y-87454819D01*
X132357142Y-87454819D02*
X131928571Y-88454819D01*
%TO.C,R5*%
X117783333Y-80124819D02*
X117450000Y-79648628D01*
X117211905Y-80124819D02*
X117211905Y-79124819D01*
X117211905Y-79124819D02*
X117592857Y-79124819D01*
X117592857Y-79124819D02*
X117688095Y-79172438D01*
X117688095Y-79172438D02*
X117735714Y-79220057D01*
X117735714Y-79220057D02*
X117783333Y-79315295D01*
X117783333Y-79315295D02*
X117783333Y-79458152D01*
X117783333Y-79458152D02*
X117735714Y-79553390D01*
X117735714Y-79553390D02*
X117688095Y-79601009D01*
X117688095Y-79601009D02*
X117592857Y-79648628D01*
X117592857Y-79648628D02*
X117211905Y-79648628D01*
X118688095Y-79124819D02*
X118211905Y-79124819D01*
X118211905Y-79124819D02*
X118164286Y-79601009D01*
X118164286Y-79601009D02*
X118211905Y-79553390D01*
X118211905Y-79553390D02*
X118307143Y-79505771D01*
X118307143Y-79505771D02*
X118545238Y-79505771D01*
X118545238Y-79505771D02*
X118640476Y-79553390D01*
X118640476Y-79553390D02*
X118688095Y-79601009D01*
X118688095Y-79601009D02*
X118735714Y-79696247D01*
X118735714Y-79696247D02*
X118735714Y-79934342D01*
X118735714Y-79934342D02*
X118688095Y-80029580D01*
X118688095Y-80029580D02*
X118640476Y-80077200D01*
X118640476Y-80077200D02*
X118545238Y-80124819D01*
X118545238Y-80124819D02*
X118307143Y-80124819D01*
X118307143Y-80124819D02*
X118211905Y-80077200D01*
X118211905Y-80077200D02*
X118164286Y-80029580D01*
%TO.C,U5*%
X131238095Y-77204819D02*
X131238095Y-78014342D01*
X131238095Y-78014342D02*
X131285714Y-78109580D01*
X131285714Y-78109580D02*
X131333333Y-78157200D01*
X131333333Y-78157200D02*
X131428571Y-78204819D01*
X131428571Y-78204819D02*
X131619047Y-78204819D01*
X131619047Y-78204819D02*
X131714285Y-78157200D01*
X131714285Y-78157200D02*
X131761904Y-78109580D01*
X131761904Y-78109580D02*
X131809523Y-78014342D01*
X131809523Y-78014342D02*
X131809523Y-77204819D01*
X132761904Y-77204819D02*
X132285714Y-77204819D01*
X132285714Y-77204819D02*
X132238095Y-77681009D01*
X132238095Y-77681009D02*
X132285714Y-77633390D01*
X132285714Y-77633390D02*
X132380952Y-77585771D01*
X132380952Y-77585771D02*
X132619047Y-77585771D01*
X132619047Y-77585771D02*
X132714285Y-77633390D01*
X132714285Y-77633390D02*
X132761904Y-77681009D01*
X132761904Y-77681009D02*
X132809523Y-77776247D01*
X132809523Y-77776247D02*
X132809523Y-78014342D01*
X132809523Y-78014342D02*
X132761904Y-78109580D01*
X132761904Y-78109580D02*
X132714285Y-78157200D01*
X132714285Y-78157200D02*
X132619047Y-78204819D01*
X132619047Y-78204819D02*
X132380952Y-78204819D01*
X132380952Y-78204819D02*
X132285714Y-78157200D01*
X132285714Y-78157200D02*
X132238095Y-78109580D01*
%TO.C,U22*%
X167691905Y-105554819D02*
X167691905Y-106364342D01*
X167691905Y-106364342D02*
X167739524Y-106459580D01*
X167739524Y-106459580D02*
X167787143Y-106507200D01*
X167787143Y-106507200D02*
X167882381Y-106554819D01*
X167882381Y-106554819D02*
X168072857Y-106554819D01*
X168072857Y-106554819D02*
X168168095Y-106507200D01*
X168168095Y-106507200D02*
X168215714Y-106459580D01*
X168215714Y-106459580D02*
X168263333Y-106364342D01*
X168263333Y-106364342D02*
X168263333Y-105554819D01*
X168691905Y-105650057D02*
X168739524Y-105602438D01*
X168739524Y-105602438D02*
X168834762Y-105554819D01*
X168834762Y-105554819D02*
X169072857Y-105554819D01*
X169072857Y-105554819D02*
X169168095Y-105602438D01*
X169168095Y-105602438D02*
X169215714Y-105650057D01*
X169215714Y-105650057D02*
X169263333Y-105745295D01*
X169263333Y-105745295D02*
X169263333Y-105840533D01*
X169263333Y-105840533D02*
X169215714Y-105983390D01*
X169215714Y-105983390D02*
X168644286Y-106554819D01*
X168644286Y-106554819D02*
X169263333Y-106554819D01*
X169644286Y-105650057D02*
X169691905Y-105602438D01*
X169691905Y-105602438D02*
X169787143Y-105554819D01*
X169787143Y-105554819D02*
X170025238Y-105554819D01*
X170025238Y-105554819D02*
X170120476Y-105602438D01*
X170120476Y-105602438D02*
X170168095Y-105650057D01*
X170168095Y-105650057D02*
X170215714Y-105745295D01*
X170215714Y-105745295D02*
X170215714Y-105840533D01*
X170215714Y-105840533D02*
X170168095Y-105983390D01*
X170168095Y-105983390D02*
X169596667Y-106554819D01*
X169596667Y-106554819D02*
X170215714Y-106554819D01*
%TO.C,U6*%
X130738095Y-82454819D02*
X130738095Y-83264342D01*
X130738095Y-83264342D02*
X130785714Y-83359580D01*
X130785714Y-83359580D02*
X130833333Y-83407200D01*
X130833333Y-83407200D02*
X130928571Y-83454819D01*
X130928571Y-83454819D02*
X131119047Y-83454819D01*
X131119047Y-83454819D02*
X131214285Y-83407200D01*
X131214285Y-83407200D02*
X131261904Y-83359580D01*
X131261904Y-83359580D02*
X131309523Y-83264342D01*
X131309523Y-83264342D02*
X131309523Y-82454819D01*
X132214285Y-82454819D02*
X132023809Y-82454819D01*
X132023809Y-82454819D02*
X131928571Y-82502438D01*
X131928571Y-82502438D02*
X131880952Y-82550057D01*
X131880952Y-82550057D02*
X131785714Y-82692914D01*
X131785714Y-82692914D02*
X131738095Y-82883390D01*
X131738095Y-82883390D02*
X131738095Y-83264342D01*
X131738095Y-83264342D02*
X131785714Y-83359580D01*
X131785714Y-83359580D02*
X131833333Y-83407200D01*
X131833333Y-83407200D02*
X131928571Y-83454819D01*
X131928571Y-83454819D02*
X132119047Y-83454819D01*
X132119047Y-83454819D02*
X132214285Y-83407200D01*
X132214285Y-83407200D02*
X132261904Y-83359580D01*
X132261904Y-83359580D02*
X132309523Y-83264342D01*
X132309523Y-83264342D02*
X132309523Y-83026247D01*
X132309523Y-83026247D02*
X132261904Y-82931009D01*
X132261904Y-82931009D02*
X132214285Y-82883390D01*
X132214285Y-82883390D02*
X132119047Y-82835771D01*
X132119047Y-82835771D02*
X131928571Y-82835771D01*
X131928571Y-82835771D02*
X131833333Y-82883390D01*
X131833333Y-82883390D02*
X131785714Y-82931009D01*
X131785714Y-82931009D02*
X131738095Y-83026247D01*
%TO.C,R14*%
X165089174Y-94477279D02*
X164755841Y-94001088D01*
X164517746Y-94477279D02*
X164517746Y-93477279D01*
X164517746Y-93477279D02*
X164898698Y-93477279D01*
X164898698Y-93477279D02*
X164993936Y-93524898D01*
X164993936Y-93524898D02*
X165041555Y-93572517D01*
X165041555Y-93572517D02*
X165089174Y-93667755D01*
X165089174Y-93667755D02*
X165089174Y-93810612D01*
X165089174Y-93810612D02*
X165041555Y-93905850D01*
X165041555Y-93905850D02*
X164993936Y-93953469D01*
X164993936Y-93953469D02*
X164898698Y-94001088D01*
X164898698Y-94001088D02*
X164517746Y-94001088D01*
X166041555Y-94477279D02*
X165470127Y-94477279D01*
X165755841Y-94477279D02*
X165755841Y-93477279D01*
X165755841Y-93477279D02*
X165660603Y-93620136D01*
X165660603Y-93620136D02*
X165565365Y-93715374D01*
X165565365Y-93715374D02*
X165470127Y-93762993D01*
X166898698Y-93810612D02*
X166898698Y-94477279D01*
X166660603Y-93429660D02*
X166422508Y-94143945D01*
X166422508Y-94143945D02*
X167041555Y-94143945D01*
%TO.C,U2*%
X131238095Y-62454819D02*
X131238095Y-63264342D01*
X131238095Y-63264342D02*
X131285714Y-63359580D01*
X131285714Y-63359580D02*
X131333333Y-63407200D01*
X131333333Y-63407200D02*
X131428571Y-63454819D01*
X131428571Y-63454819D02*
X131619047Y-63454819D01*
X131619047Y-63454819D02*
X131714285Y-63407200D01*
X131714285Y-63407200D02*
X131761904Y-63359580D01*
X131761904Y-63359580D02*
X131809523Y-63264342D01*
X131809523Y-63264342D02*
X131809523Y-62454819D01*
X132238095Y-62550057D02*
X132285714Y-62502438D01*
X132285714Y-62502438D02*
X132380952Y-62454819D01*
X132380952Y-62454819D02*
X132619047Y-62454819D01*
X132619047Y-62454819D02*
X132714285Y-62502438D01*
X132714285Y-62502438D02*
X132761904Y-62550057D01*
X132761904Y-62550057D02*
X132809523Y-62645295D01*
X132809523Y-62645295D02*
X132809523Y-62740533D01*
X132809523Y-62740533D02*
X132761904Y-62883390D01*
X132761904Y-62883390D02*
X132190476Y-63454819D01*
X132190476Y-63454819D02*
X132809523Y-63454819D01*
%TO.C,J2*%
X108916666Y-53204819D02*
X108916666Y-53919104D01*
X108916666Y-53919104D02*
X108869047Y-54061961D01*
X108869047Y-54061961D02*
X108773809Y-54157200D01*
X108773809Y-54157200D02*
X108630952Y-54204819D01*
X108630952Y-54204819D02*
X108535714Y-54204819D01*
X109345238Y-53300057D02*
X109392857Y-53252438D01*
X109392857Y-53252438D02*
X109488095Y-53204819D01*
X109488095Y-53204819D02*
X109726190Y-53204819D01*
X109726190Y-53204819D02*
X109821428Y-53252438D01*
X109821428Y-53252438D02*
X109869047Y-53300057D01*
X109869047Y-53300057D02*
X109916666Y-53395295D01*
X109916666Y-53395295D02*
X109916666Y-53490533D01*
X109916666Y-53490533D02*
X109869047Y-53633390D01*
X109869047Y-53633390D02*
X109297619Y-54204819D01*
X109297619Y-54204819D02*
X109916666Y-54204819D01*
%TO.C,U11*%
X147761905Y-83204819D02*
X147761905Y-84014342D01*
X147761905Y-84014342D02*
X147809524Y-84109580D01*
X147809524Y-84109580D02*
X147857143Y-84157200D01*
X147857143Y-84157200D02*
X147952381Y-84204819D01*
X147952381Y-84204819D02*
X148142857Y-84204819D01*
X148142857Y-84204819D02*
X148238095Y-84157200D01*
X148238095Y-84157200D02*
X148285714Y-84109580D01*
X148285714Y-84109580D02*
X148333333Y-84014342D01*
X148333333Y-84014342D02*
X148333333Y-83204819D01*
X149333333Y-84204819D02*
X148761905Y-84204819D01*
X149047619Y-84204819D02*
X149047619Y-83204819D01*
X149047619Y-83204819D02*
X148952381Y-83347676D01*
X148952381Y-83347676D02*
X148857143Y-83442914D01*
X148857143Y-83442914D02*
X148761905Y-83490533D01*
X150285714Y-84204819D02*
X149714286Y-84204819D01*
X150000000Y-84204819D02*
X150000000Y-83204819D01*
X150000000Y-83204819D02*
X149904762Y-83347676D01*
X149904762Y-83347676D02*
X149809524Y-83442914D01*
X149809524Y-83442914D02*
X149714286Y-83490533D01*
D12*
%TO.C,C1*%
X172410000Y-103461252D02*
X172410000Y-102038748D01*
X170590000Y-103461252D02*
X170590000Y-102038748D01*
%TO.C,U8*%
X123110000Y-90145000D02*
X123110000Y-95345000D01*
X123110000Y-95345000D02*
X128410000Y-95345000D01*
X124760000Y-90145000D02*
X123110000Y-90145000D01*
X128410000Y-90145000D02*
X126760000Y-90145000D01*
X128410000Y-95345000D02*
X128410000Y-90145000D01*
X124760000Y-90145000D02*
G75*
G03*
X126760000Y-90145000I1000000J0D01*
G01*
%TO.C,U21*%
X171100000Y-59115000D02*
X167650000Y-59115000D01*
X171100000Y-59115000D02*
X173050000Y-59115000D01*
X171100000Y-64235000D02*
X169150000Y-64235000D01*
X171100000Y-64235000D02*
X173050000Y-64235000D01*
%TO.C,U4*%
X123110000Y-70145000D02*
X123110000Y-75345000D01*
X123110000Y-75345000D02*
X128410000Y-75345000D01*
X124760000Y-70145000D02*
X123110000Y-70145000D01*
X128410000Y-70145000D02*
X126760000Y-70145000D01*
X128410000Y-75345000D02*
X128410000Y-70145000D01*
X124760000Y-70145000D02*
G75*
G03*
X126760000Y-70145000I1000000J0D01*
G01*
%TO.C,R7*%
X118300000Y-88000000D02*
X117680000Y-88000000D01*
X120140000Y-88000000D02*
G75*
G03*
X120140000Y-88000000I-920000J0D01*
G01*
%TO.C,U15*%
X148250000Y-114725000D02*
X148250000Y-112915000D01*
X148250000Y-112915000D02*
X153375000Y-112915000D01*
X148250000Y-106135000D02*
X149350000Y-106135000D01*
X148250000Y-104325000D02*
X148250000Y-106135000D01*
X146750000Y-114725000D02*
X148250000Y-114725000D01*
X146750000Y-104325000D02*
X148250000Y-104325000D01*
%TO.C,R3*%
X118550000Y-67750000D02*
X117930000Y-67750000D01*
X120390000Y-67750000D02*
G75*
G03*
X120390000Y-67750000I-920000J0D01*
G01*
%TO.C,U1*%
X123110000Y-54895000D02*
X123110000Y-60095000D01*
X123110000Y-60095000D02*
X128410000Y-60095000D01*
X124760000Y-54895000D02*
X123110000Y-54895000D01*
X128410000Y-54895000D02*
X126760000Y-54895000D01*
X128410000Y-60095000D02*
X128410000Y-54895000D01*
X124760000Y-54895000D02*
G75*
G03*
X126760000Y-54895000I1000000J0D01*
G01*
%TO.C,R11*%
X166082032Y-77102460D02*
X165462032Y-77102460D01*
X167922032Y-77102460D02*
G75*
G03*
X167922032Y-77102460I-920000J0D01*
G01*
%TO.C,U10*%
X123110000Y-100145000D02*
X123110000Y-105345000D01*
X123110000Y-105345000D02*
X128410000Y-105345000D01*
X124760000Y-100145000D02*
X123110000Y-100145000D01*
X128410000Y-100145000D02*
X126760000Y-100145000D01*
X128410000Y-105345000D02*
X128410000Y-100145000D01*
X124760000Y-100145000D02*
G75*
G03*
X126760000Y-100145000I1000000J0D01*
G01*
%TO.C,U14*%
X170642032Y-85904126D02*
X170642032Y-91104126D01*
X170642032Y-91104126D02*
X175942032Y-91104126D01*
X172292032Y-85904126D02*
X170642032Y-85904126D01*
X175942032Y-85904126D02*
X174292032Y-85904126D01*
X175942032Y-91104126D02*
X175942032Y-85904126D01*
X172292032Y-85904126D02*
G75*
G03*
X174292032Y-85904126I1000000J0D01*
G01*
%TO.C,U16*%
X170642032Y-90997459D02*
X170642032Y-96197459D01*
X170642032Y-96197459D02*
X175942032Y-96197459D01*
X172292032Y-90997459D02*
X170642032Y-90997459D01*
X175942032Y-90997459D02*
X174292032Y-90997459D01*
X175942032Y-96197459D02*
X175942032Y-90997459D01*
X172292032Y-90997459D02*
G75*
G03*
X174292032Y-90997459I1000000J0D01*
G01*
%TO.C,R13*%
X166082032Y-87102460D02*
X165462032Y-87102460D01*
X167922032Y-87102460D02*
G75*
G03*
X167922032Y-87102460I-920000J0D01*
G01*
%TO.C,R15*%
X175750000Y-109800000D02*
X175750000Y-109180000D01*
X176670000Y-110720000D02*
G75*
G03*
X176670000Y-110720000I-920000J0D01*
G01*
%TO.C,R6*%
X118300000Y-83000000D02*
X117680000Y-83000000D01*
X120140000Y-83000000D02*
G75*
G03*
X120140000Y-83000000I-920000J0D01*
G01*
%TO.C,U9*%
X123110000Y-95145000D02*
X123110000Y-100345000D01*
X123110000Y-100345000D02*
X128410000Y-100345000D01*
X124760000Y-95145000D02*
X123110000Y-95145000D01*
X128410000Y-95145000D02*
X126760000Y-95145000D01*
X128410000Y-100345000D02*
X128410000Y-95145000D01*
X124760000Y-95145000D02*
G75*
G03*
X126760000Y-95145000I1000000J0D01*
G01*
%TO.C,R4*%
X118550000Y-72750000D02*
X117930000Y-72750000D01*
X120390000Y-72750000D02*
G75*
G03*
X120390000Y-72750000I-920000J0D01*
G01*
%TO.C,R12*%
X166112032Y-82102460D02*
X165492032Y-82102460D01*
X167952032Y-82102460D02*
G75*
G03*
X167952032Y-82102460I-920000J0D01*
G01*
%TO.C,R9*%
X118300000Y-97750000D02*
X117680000Y-97750000D01*
X120140000Y-97750000D02*
G75*
G03*
X120140000Y-97750000I-920000J0D01*
G01*
%TO.C,R1*%
X118550000Y-57750000D02*
X117930000Y-57750000D01*
X120390000Y-57750000D02*
G75*
G03*
X120390000Y-57750000I-920000J0D01*
G01*
%TO.C,R10*%
X118300000Y-102669888D02*
X117680000Y-102669888D01*
X120140000Y-102669888D02*
G75*
G03*
X120140000Y-102669888I-920000J0D01*
G01*
%TO.C,R8*%
X118300000Y-92750000D02*
X117680000Y-92750000D01*
X120140000Y-92750000D02*
G75*
G03*
X120140000Y-92750000I-920000J0D01*
G01*
%TO.C,U12*%
X170622032Y-75717460D02*
X170622032Y-80917460D01*
X170622032Y-80917460D02*
X175922032Y-80917460D01*
X172272032Y-75717460D02*
X170622032Y-75717460D01*
X175922032Y-75717460D02*
X174272032Y-75717460D01*
X175922032Y-80917460D02*
X175922032Y-75717460D01*
X172272032Y-75717460D02*
G75*
G03*
X174272032Y-75717460I1000000J0D01*
G01*
%TO.C,J1*%
X188160000Y-115050000D02*
X188900000Y-115050000D01*
X188900000Y-115050000D02*
X188900000Y-114550000D01*
X178739000Y-114810000D02*
X188660000Y-114810000D01*
X178739000Y-114810000D02*
X178739000Y-54690000D01*
X181699000Y-114810000D02*
X181699000Y-54690000D01*
X186600000Y-114810000D02*
X186600000Y-54690000D01*
X188100000Y-114810000D02*
X188100000Y-54690000D01*
X188660000Y-114810000D02*
X188660000Y-54690000D01*
X185023000Y-108477000D02*
X185069000Y-108524000D01*
X185239000Y-108284000D02*
X185274000Y-108319000D01*
X182725000Y-106180000D02*
X182761000Y-106215000D01*
X182931000Y-105975000D02*
X182977000Y-106022000D01*
X185023000Y-103477000D02*
X185069000Y-103524000D01*
X185239000Y-103284000D02*
X185274000Y-103319000D01*
X182725000Y-101180000D02*
X182761000Y-101215000D01*
X182931000Y-100975000D02*
X182977000Y-101022000D01*
X185023000Y-98477000D02*
X185069000Y-98524000D01*
X185239000Y-98284000D02*
X185274000Y-98319000D01*
X182725000Y-96180000D02*
X182761000Y-96215000D01*
X182931000Y-95975000D02*
X182977000Y-96022000D01*
X185023000Y-93477000D02*
X185069000Y-93524000D01*
X185239000Y-93284000D02*
X185274000Y-93319000D01*
X182725000Y-91180000D02*
X182761000Y-91215000D01*
X182931000Y-90975000D02*
X182977000Y-91022000D01*
X185023000Y-88477000D02*
X185069000Y-88524000D01*
X185239000Y-88284000D02*
X185274000Y-88319000D01*
X182725000Y-86180000D02*
X182761000Y-86215000D01*
X182931000Y-85975000D02*
X182977000Y-86022000D01*
X185023000Y-83477000D02*
X185069000Y-83524000D01*
X185239000Y-83284000D02*
X185274000Y-83319000D01*
X182725000Y-81180000D02*
X182761000Y-81215000D01*
X182931000Y-80975000D02*
X182977000Y-81022000D01*
X185023000Y-78477000D02*
X185069000Y-78524000D01*
X185239000Y-78284000D02*
X185274000Y-78319000D01*
X182725000Y-76180000D02*
X182761000Y-76215000D01*
X182931000Y-75975000D02*
X182977000Y-76022000D01*
X185023000Y-73477000D02*
X185069000Y-73524000D01*
X185239000Y-73284000D02*
X185274000Y-73319000D01*
X182725000Y-71180000D02*
X182761000Y-71215000D01*
X182931000Y-70975000D02*
X182977000Y-71022000D01*
X185023000Y-68477000D02*
X185069000Y-68524000D01*
X185239000Y-68284000D02*
X185274000Y-68319000D01*
X182725000Y-66180000D02*
X182761000Y-66215000D01*
X182931000Y-65975000D02*
X182977000Y-66022000D01*
X185023000Y-63477000D02*
X185069000Y-63524000D01*
X185239000Y-63284000D02*
X185274000Y-63319000D01*
X182725000Y-61180000D02*
X182761000Y-61215000D01*
X182931000Y-60975000D02*
X182977000Y-61022000D01*
X185023000Y-58477000D02*
X185069000Y-58524000D01*
X185239000Y-58284000D02*
X185274000Y-58319000D01*
X182725000Y-56180000D02*
X182761000Y-56215000D01*
X182931000Y-55975000D02*
X182977000Y-56022000D01*
X178739000Y-54690000D02*
X188660000Y-54690000D01*
X183316001Y-113784999D02*
G75*
G03*
X184683042Y-113785426I684000J1534992D01*
G01*
X182465001Y-111566001D02*
G75*
G03*
X182464574Y-112933042I1534992J-684000D01*
G01*
X185534999Y-112934000D02*
G75*
G03*
X185680252Y-112221195I-1535000J683999D01*
G01*
X185679999Y-112250000D02*
G75*
G03*
X185534755Y-111566682I-1679999J0D01*
G01*
X184684000Y-110715000D02*
G75*
G03*
X183316958Y-110714574I-684000J-1535000D01*
G01*
X185680000Y-107250000D02*
G75*
G03*
X185680000Y-107250000I-1680000J0D01*
G01*
X185680000Y-102250000D02*
G75*
G03*
X185680000Y-102250000I-1680000J0D01*
G01*
X185680000Y-97250000D02*
G75*
G03*
X185680000Y-97250000I-1680000J0D01*
G01*
X185680000Y-92250000D02*
G75*
G03*
X185680000Y-92250000I-1680000J0D01*
G01*
X185680000Y-87250000D02*
G75*
G03*
X185680000Y-87250000I-1680000J0D01*
G01*
X185680000Y-82250000D02*
G75*
G03*
X185680000Y-82250000I-1680000J0D01*
G01*
X185680000Y-77250000D02*
G75*
G03*
X185680000Y-77250000I-1680000J0D01*
G01*
X185680000Y-72250000D02*
G75*
G03*
X185680000Y-72250000I-1680000J0D01*
G01*
X185680000Y-67250000D02*
G75*
G03*
X185680000Y-67250000I-1680000J0D01*
G01*
X185680000Y-62250000D02*
G75*
G03*
X185680000Y-62250000I-1680000J0D01*
G01*
X185680000Y-57250000D02*
G75*
G03*
X185680000Y-57250000I-1680000J0D01*
G01*
%TO.C,R2*%
X118550000Y-63000000D02*
X117930000Y-63000000D01*
X120390000Y-63000000D02*
G75*
G03*
X120390000Y-63000000I-920000J0D01*
G01*
%TO.C,R16*%
X117250000Y-109950000D02*
X117250000Y-110570000D01*
X118170000Y-109030000D02*
G75*
G03*
X118170000Y-109030000I-920000J0D01*
G01*
%TO.C,U3*%
X123110000Y-65145000D02*
X123110000Y-70345000D01*
X123110000Y-70345000D02*
X128410000Y-70345000D01*
X124760000Y-65145000D02*
X123110000Y-65145000D01*
X128410000Y-65145000D02*
X126760000Y-65145000D01*
X128410000Y-70345000D02*
X128410000Y-65145000D01*
X124760000Y-65145000D02*
G75*
G03*
X126760000Y-65145000I1000000J0D01*
G01*
%TO.C,U13*%
X170642032Y-80810793D02*
X170642032Y-86010793D01*
X170642032Y-86010793D02*
X175942032Y-86010793D01*
X172292032Y-80810793D02*
X170642032Y-80810793D01*
X175942032Y-80810793D02*
X174292032Y-80810793D01*
X175942032Y-86010793D02*
X175942032Y-80810793D01*
X172292032Y-80810793D02*
G75*
G03*
X174292032Y-80810793I1000000J0D01*
G01*
%TO.C,U7*%
X123110000Y-85145000D02*
X123110000Y-90345000D01*
X123110000Y-90345000D02*
X128410000Y-90345000D01*
X124760000Y-85145000D02*
X123110000Y-85145000D01*
X128410000Y-85145000D02*
X126760000Y-85145000D01*
X128410000Y-90345000D02*
X128410000Y-85145000D01*
X124760000Y-85145000D02*
G75*
G03*
X126760000Y-85145000I1000000J0D01*
G01*
%TO.C,R5*%
X118300000Y-77750000D02*
X117680000Y-77750000D01*
X120140000Y-77750000D02*
G75*
G03*
X120140000Y-77750000I-920000J0D01*
G01*
%TO.C,U5*%
X123110000Y-75145000D02*
X123110000Y-80345000D01*
X123110000Y-80345000D02*
X128410000Y-80345000D01*
X124760000Y-75145000D02*
X123110000Y-75145000D01*
X128410000Y-75145000D02*
X126760000Y-75145000D01*
X128410000Y-80345000D02*
X128410000Y-75145000D01*
X124760000Y-75145000D02*
G75*
G03*
X126760000Y-75145000I1000000J0D01*
G01*
%TO.C,U22*%
X168930000Y-106940000D02*
X165480000Y-106940000D01*
X168930000Y-106940000D02*
X170880000Y-106940000D01*
X168930000Y-112060000D02*
X166980000Y-112060000D01*
X168930000Y-112060000D02*
X170880000Y-112060000D01*
%TO.C,U6*%
X123110000Y-80145000D02*
X123110000Y-85345000D01*
X123110000Y-85345000D02*
X128410000Y-85345000D01*
X124760000Y-80145000D02*
X123110000Y-80145000D01*
X128410000Y-80145000D02*
X126760000Y-80145000D01*
X128410000Y-85345000D02*
X128410000Y-80145000D01*
X124760000Y-80145000D02*
G75*
G03*
X126760000Y-80145000I1000000J0D01*
G01*
%TO.C,R14*%
X166082032Y-92102460D02*
X165462032Y-92102460D01*
X167922032Y-92102460D02*
G75*
G03*
X167922032Y-92102460I-920000J0D01*
G01*
%TO.C,U2*%
X123110000Y-60145000D02*
X123110000Y-65345000D01*
X123110000Y-65345000D02*
X128410000Y-65345000D01*
X124760000Y-60145000D02*
X123110000Y-60145000D01*
X128410000Y-60145000D02*
X126760000Y-60145000D01*
X128410000Y-65345000D02*
X128410000Y-60145000D01*
X124760000Y-60145000D02*
G75*
G03*
X126760000Y-60145000I1000000J0D01*
G01*
%TO.C,J2*%
X105340000Y-54950000D02*
X104600000Y-54950000D01*
X104600000Y-54950000D02*
X104600000Y-55450000D01*
X114761000Y-55190000D02*
X104840000Y-55190000D01*
X114761000Y-55190000D02*
X114761000Y-115310000D01*
X111801000Y-55190000D02*
X111801000Y-115310000D01*
X106900000Y-55190000D02*
X106900000Y-115310000D01*
X105400000Y-55190000D02*
X105400000Y-115310000D01*
X104840000Y-55190000D02*
X104840000Y-115310000D01*
X108477000Y-61523000D02*
X108431000Y-61476000D01*
X108261000Y-61716000D02*
X108226000Y-61681000D01*
X110775000Y-63820000D02*
X110739000Y-63785000D01*
X110569000Y-64025000D02*
X110523000Y-63978000D01*
X108477000Y-66523000D02*
X108431000Y-66476000D01*
X108261000Y-66716000D02*
X108226000Y-66681000D01*
X110775000Y-68820000D02*
X110739000Y-68785000D01*
X110569000Y-69025000D02*
X110523000Y-68978000D01*
X108477000Y-71523000D02*
X108431000Y-71476000D01*
X108261000Y-71716000D02*
X108226000Y-71681000D01*
X110775000Y-73820000D02*
X110739000Y-73785000D01*
X110569000Y-74025000D02*
X110523000Y-73978000D01*
X108477000Y-76523000D02*
X108431000Y-76476000D01*
X108261000Y-76716000D02*
X108226000Y-76681000D01*
X110775000Y-78820000D02*
X110739000Y-78785000D01*
X110569000Y-79025000D02*
X110523000Y-78978000D01*
X108477000Y-81523000D02*
X108431000Y-81476000D01*
X108261000Y-81716000D02*
X108226000Y-81681000D01*
X110775000Y-83820000D02*
X110739000Y-83785000D01*
X110569000Y-84025000D02*
X110523000Y-83978000D01*
X108477000Y-86523000D02*
X108431000Y-86476000D01*
X108261000Y-86716000D02*
X108226000Y-86681000D01*
X110775000Y-88820000D02*
X110739000Y-88785000D01*
X110569000Y-89025000D02*
X110523000Y-88978000D01*
X108477000Y-91523000D02*
X108431000Y-91476000D01*
X108261000Y-91716000D02*
X108226000Y-91681000D01*
X110775000Y-93820000D02*
X110739000Y-93785000D01*
X110569000Y-94025000D02*
X110523000Y-93978000D01*
X108477000Y-96523000D02*
X108431000Y-96476000D01*
X108261000Y-96716000D02*
X108226000Y-96681000D01*
X110775000Y-98820000D02*
X110739000Y-98785000D01*
X110569000Y-99025000D02*
X110523000Y-98978000D01*
X108477000Y-101523000D02*
X108431000Y-101476000D01*
X108261000Y-101716000D02*
X108226000Y-101681000D01*
X110775000Y-103820000D02*
X110739000Y-103785000D01*
X110569000Y-104025000D02*
X110523000Y-103978000D01*
X108477000Y-106523000D02*
X108431000Y-106476000D01*
X108261000Y-106716000D02*
X108226000Y-106681000D01*
X110775000Y-108820000D02*
X110739000Y-108785000D01*
X110569000Y-109025000D02*
X110523000Y-108978000D01*
X108477000Y-111523000D02*
X108431000Y-111476000D01*
X108261000Y-111716000D02*
X108226000Y-111681000D01*
X110775000Y-113820000D02*
X110739000Y-113785000D01*
X110569000Y-114025000D02*
X110523000Y-113978000D01*
X114761000Y-115310000D02*
X104840000Y-115310000D01*
X110183999Y-56215001D02*
G75*
G03*
X108816958Y-56214574I-684000J-1534992D01*
G01*
X111034999Y-58433999D02*
G75*
G03*
X111035426Y-57066958I-1534992J684000D01*
G01*
X107965001Y-57066000D02*
G75*
G03*
X107819748Y-57778805I1535000J-683999D01*
G01*
X107820001Y-57750000D02*
G75*
G03*
X107965245Y-58433318I1679999J0D01*
G01*
X108816000Y-59285000D02*
G75*
G03*
X110183042Y-59285426I684000J1535000D01*
G01*
X111180000Y-62750000D02*
G75*
G03*
X111180000Y-62750000I-1680000J0D01*
G01*
X111180000Y-67750000D02*
G75*
G03*
X111180000Y-67750000I-1680000J0D01*
G01*
X111180000Y-72750000D02*
G75*
G03*
X111180000Y-72750000I-1680000J0D01*
G01*
X111180000Y-77750000D02*
G75*
G03*
X111180000Y-77750000I-1680000J0D01*
G01*
X111180000Y-82750000D02*
G75*
G03*
X111180000Y-82750000I-1680000J0D01*
G01*
X111180000Y-87750000D02*
G75*
G03*
X111180000Y-87750000I-1680000J0D01*
G01*
X111180000Y-92750000D02*
G75*
G03*
X111180000Y-92750000I-1680000J0D01*
G01*
X111180000Y-97750000D02*
G75*
G03*
X111180000Y-97750000I-1680000J0D01*
G01*
X111180000Y-102750000D02*
G75*
G03*
X111180000Y-102750000I-1680000J0D01*
G01*
X111180000Y-107750000D02*
G75*
G03*
X111180000Y-107750000I-1680000J0D01*
G01*
X111180000Y-112750000D02*
G75*
G03*
X111180000Y-112750000I-1680000J0D01*
G01*
%TD*%
M02*
