<svg xmlns="http://www.w3.org/2000/svg"
   xmlns:xlink="http://www.w3.org/1999/xlink"
   version="1.1"
   id="/home/fred-olav/ESP32projects/Gand-RIO-Trainer/Tegninger/Kobling" width="100%" height="100%"  viewBox="-6 -6 654 845">
<desc>
XCircuit Version 3.10
File "/home/fred-olav/ESP32projects/Gand-RIO-Trainer/Tegninger/Kobling.esp" Page 1
</desc>
<g stroke="black">
<path d="M152,464 L152,560 200,560 200,464 z" fill="#000000" stroke-width="2" stroke-linejoin="bevel" stroke-linecap="round" stroke="#000000" />
<path d="M156,556 L156,564 164,564 164,556 z" fill="#cccccc" stroke-width="2" stroke-linejoin="bevel" stroke-linecap="round" stroke="#cccccc" />
<path d="M188,556 L188,564 196,564 196,556 z" fill="#cccccc" stroke-width="2" stroke-linejoin="bevel" stroke-linecap="round" stroke="#cccccc" />
<path d="M188,460 L188,468 196,468 196,460 z" fill="#cccccc" stroke-width="2" stroke-linejoin="bevel" stroke-linecap="round" stroke="#cccccc" />
<path d="M156,460 L156,468 164,468 164,460 z" fill="#cccccc" stroke-width="2" stroke-linejoin="bevel" stroke-linecap="round" stroke="#cccccc" />
<g transform="matrix(-1.90928e-11 -0.7  0.7 -1.90928e-11 176 512)" fill="#ffffff" >
<text stroke="none" font-family="Helvetica" font-size="40" ><tspan x="-56" y="13">PC817</tspan>
</text></g>
<ellipse cx="160" cy="548" rx="4" ry="4" fill="#999999" stroke-width="2" stroke-linejoin="bevel" stroke-linecap="round" stroke="#999999" />
<path d="M216,464 L216,560 264,560 264,464 z" fill="#000000" stroke-width="2" stroke-linejoin="bevel" stroke-linecap="round" stroke="#000000" />
<path d="M220,556 L220,564 228,564 228,556 z" fill="#cccccc" stroke-width="2" stroke-linejoin="bevel" stroke-linecap="round" stroke="#cccccc" />
<path d="M252,556 L252,564 260,564 260,556 z" fill="#cccccc" stroke-width="2" stroke-linejoin="bevel" stroke-linecap="round" stroke="#cccccc" />
<path d="M252,460 L252,468 260,468 260,460 z" fill="#cccccc" stroke-width="2" stroke-linejoin="bevel" stroke-linecap="round" stroke="#cccccc" />
<path d="M220,460 L220,468 228,468 228,460 z" fill="#cccccc" stroke-width="2" stroke-linejoin="bevel" stroke-linecap="round" stroke="#cccccc" />
<g transform="matrix(-1.90928e-11 -0.7  0.7 -1.90928e-11 240 512)" fill="#ffffff" >
<text stroke="none" font-family="Helvetica" font-size="40" ><tspan x="-56" y="13">PC817</tspan>
</text></g>
<ellipse cx="224" cy="548" rx="4" ry="4" fill="#999999" stroke-width="2" stroke-linejoin="bevel" stroke-linecap="round" stroke="#999999" />
<path d="M280,464 L280,560 328,560 328,464 z" fill="#000000" stroke-width="2" stroke-linejoin="bevel" stroke-linecap="round" stroke="#000000" />
<path d="M284,556 L284,564 292,564 292,556 z" fill="#cccccc" stroke-width="2" stroke-linejoin="bevel" stroke-linecap="round" stroke="#cccccc" />
<path d="M316,556 L316,564 324,564 324,556 z" fill="#cccccc" stroke-width="2" stroke-linejoin="bevel" stroke-linecap="round" stroke="#cccccc" />
<path d="M316,460 L316,468 324,468 324,460 z" fill="#cccccc" stroke-width="2" stroke-linejoin="bevel" stroke-linecap="round" stroke="#cccccc" />
<path d="M284,460 L284,468 292,468 292,460 z" fill="#cccccc" stroke-width="2" stroke-linejoin="bevel" stroke-linecap="round" stroke="#cccccc" />
<g transform="matrix(-1.90928e-11 -0.7  0.7 -1.90928e-11 304 512)" fill="#ffffff" >
<text stroke="none" font-family="Helvetica" font-size="40" ><tspan x="-56" y="13">PC817</tspan>
</text></g>
<ellipse cx="288" cy="548" rx="4" ry="4" fill="#999999" stroke-width="2" stroke-linejoin="bevel" stroke-linecap="round" stroke="#999999" />
<path d="M344,464 L344,560 392,560 392,464 z" fill="#000000" stroke-width="2" stroke-linejoin="bevel" stroke-linecap="round" stroke="#000000" />
<path d="M348,556 L348,564 356,564 356,556 z" fill="#cccccc" stroke-width="2" stroke-linejoin="bevel" stroke-linecap="round" stroke="#cccccc" />
<path d="M380,556 L380,564 388,564 388,556 z" fill="#cccccc" stroke-width="2" stroke-linejoin="bevel" stroke-linecap="round" stroke="#cccccc" />
<path d="M380,460 L380,468 388,468 388,460 z" fill="#cccccc" stroke-width="2" stroke-linejoin="bevel" stroke-linecap="round" stroke="#cccccc" />
<path d="M348,460 L348,468 356,468 356,460 z" fill="#cccccc" stroke-width="2" stroke-linejoin="bevel" stroke-linecap="round" stroke="#cccccc" />
<g transform="matrix(-1.90928e-11 -0.7  0.7 -1.90928e-11 368 512)" fill="#ffffff" >
<text stroke="none" font-family="Helvetica" font-size="40" ><tspan x="-56" y="13">PC817</tspan>
</text></g>
<ellipse cx="352" cy="548" rx="4" ry="4" fill="#999999" stroke-width="2" stroke-linejoin="bevel" stroke-linecap="round" stroke="#999999" />
<path d="M128,680 L128,752 256,752 256,680 z" fill="#4968d9" stroke-width="2" stroke-linejoin="bevel" stroke-linecap="round" stroke="#4968d9" />
<ellipse cx="160" cy="716" rx="16" ry="16" fill="#e5e5e5" stroke-width="2" stroke-linejoin="bevel" stroke-linecap="round" stroke="#e5e5e5" />
<ellipse cx="224" cy="716" rx="16" ry="16" fill="#e5e5e5" stroke-width="2" stroke-linejoin="bevel" stroke-linecap="round" stroke="#e5e5e5" />
<path d="M148,728 L172,704 " fill="none" stroke-width="2" stroke-linejoin="bevel" stroke-linecap="round" stroke="#999999" />
<path d="M212,728 L236,704 " fill="none" stroke-width="2" stroke-linejoin="bevel" stroke-linecap="round" stroke="#999999" />
<path d="M256,680 L256,752 384,752 384,680 z" fill="#4968d9" stroke-width="2" stroke-linejoin="bevel" stroke-linecap="round" stroke="#4968d9" />
<ellipse cx="288" cy="716" rx="16" ry="16" fill="#e5e5e5" stroke-width="2" stroke-linejoin="bevel" stroke-linecap="round" stroke="#e5e5e5" />
<ellipse cx="352" cy="716" rx="16" ry="16" fill="#e5e5e5" stroke-width="2" stroke-linejoin="bevel" stroke-linecap="round" stroke="#e5e5e5" />
<path d="M276,728 L300,704 " fill="none" stroke-width="2" stroke-linejoin="bevel" stroke-linecap="round" stroke="#999999" />
<path d="M340,728 L364,704 " fill="none" stroke-width="2" stroke-linejoin="bevel" stroke-linecap="round" stroke="#999999" />
<path d="M384,680 L384,752 512,752 512,680 z" fill="#4968d9" stroke-width="2" stroke-linejoin="bevel" stroke-linecap="round" stroke="#4968d9" />
<ellipse cx="416" cy="716" rx="16" ry="16" fill="#e5e5e5" stroke-width="2" stroke-linejoin="bevel" stroke-linecap="round" stroke="#e5e5e5" />
<ellipse cx="480" cy="716" rx="16" ry="16" fill="#e5e5e5" stroke-width="2" stroke-linejoin="bevel" stroke-linecap="round" stroke="#e5e5e5" />
<path d="M404,728 L428,704 " fill="none" stroke-width="2" stroke-linejoin="bevel" stroke-linecap="round" stroke="#999999" />
<path d="M468,728 L492,704 " fill="none" stroke-width="2" stroke-linejoin="bevel" stroke-linecap="round" stroke="#999999" />
<path d="M512,680 L512,752 640,752 640,680 z" fill="#4968d9" stroke-width="2" stroke-linejoin="bevel" stroke-linecap="round" stroke="#4968d9" />
<ellipse cx="544" cy="716" rx="16" ry="16" fill="#e5e5e5" stroke-width="2" stroke-linejoin="bevel" stroke-linecap="round" stroke="#e5e5e5" />
<ellipse cx="608" cy="716" rx="16" ry="16" fill="#e5e5e5" stroke-width="2" stroke-linejoin="bevel" stroke-linecap="round" stroke="#e5e5e5" />
<path d="M532,728 L556,704 " fill="none" stroke-width="2" stroke-linejoin="bevel" stroke-linecap="round" stroke="#999999" />
<path d="M596,728 L620,704 " fill="none" stroke-width="2" stroke-linejoin="bevel" stroke-linecap="round" stroke="#999999" />
<path d="M408,464 L408,560 456,560 456,464 z" fill="#000000" stroke-width="2" stroke-linejoin="bevel" stroke-linecap="round" stroke="#000000" />
<path d="M412,556 L412,564 420,564 420,556 z" fill="#cccccc" stroke-width="2" stroke-linejoin="bevel" stroke-linecap="round" stroke="#cccccc" />
<path d="M444,556 L444,564 452,564 452,556 z" fill="#cccccc" stroke-width="2" stroke-linejoin="bevel" stroke-linecap="round" stroke="#cccccc" />
<path d="M444,460 L444,468 452,468 452,460 z" fill="#cccccc" stroke-width="2" stroke-linejoin="bevel" stroke-linecap="round" stroke="#cccccc" />
<path d="M412,460 L412,468 420,468 420,460 z" fill="#cccccc" stroke-width="2" stroke-linejoin="bevel" stroke-linecap="round" stroke="#cccccc" />
<g transform="matrix(-1.90928e-11 -0.7  0.7 -1.90928e-11 432 512)" fill="#ffffff" >
<text stroke="none" font-family="Helvetica" font-size="40" ><tspan x="-56" y="13">PC817</tspan>
</text></g>
<ellipse cx="416" cy="548" rx="4" ry="4" fill="#999999" stroke-width="2" stroke-linejoin="bevel" stroke-linecap="round" stroke="#999999" />
<path d="M472,464 L472,560 520,560 520,464 z" fill="#000000" stroke-width="2" stroke-linejoin="bevel" stroke-linecap="round" stroke="#000000" />
<path d="M476,556 L476,564 484,564 484,556 z" fill="#cccccc" stroke-width="2" stroke-linejoin="bevel" stroke-linecap="round" stroke="#cccccc" />
<path d="M508,556 L508,564 516,564 516,556 z" fill="#cccccc" stroke-width="2" stroke-linejoin="bevel" stroke-linecap="round" stroke="#cccccc" />
<path d="M508,460 L508,468 516,468 516,460 z" fill="#cccccc" stroke-width="2" stroke-linejoin="bevel" stroke-linecap="round" stroke="#cccccc" />
<path d="M476,460 L476,468 484,468 484,460 z" fill="#cccccc" stroke-width="2" stroke-linejoin="bevel" stroke-linecap="round" stroke="#cccccc" />
<g transform="matrix(-1.90928e-11 -0.7  0.7 -1.90928e-11 496 512)" fill="#ffffff" >
<text stroke="none" font-family="Helvetica" font-size="40" ><tspan x="-56" y="13">PC817</tspan>
</text></g>
<ellipse cx="480" cy="548" rx="4" ry="4" fill="#999999" stroke-width="2" stroke-linejoin="bevel" stroke-linecap="round" stroke="#999999" />
<path d="M536,464 L536,560 584,560 584,464 z" fill="#000000" stroke-width="2" stroke-linejoin="bevel" stroke-linecap="round" stroke="#000000" />
<path d="M540,556 L540,564 548,564 548,556 z" fill="#cccccc" stroke-width="2" stroke-linejoin="bevel" stroke-linecap="round" stroke="#cccccc" />
<path d="M572,556 L572,564 580,564 580,556 z" fill="#cccccc" stroke-width="2" stroke-linejoin="bevel" stroke-linecap="round" stroke="#cccccc" />
<path d="M572,460 L572,468 580,468 580,460 z" fill="#cccccc" stroke-width="2" stroke-linejoin="bevel" stroke-linecap="round" stroke="#cccccc" />
<path d="M540,460 L540,468 548,468 548,460 z" fill="#cccccc" stroke-width="2" stroke-linejoin="bevel" stroke-linecap="round" stroke="#cccccc" />
<g transform="matrix(-1.90928e-11 -0.7  0.7 -1.90928e-11 560 512)" fill="#ffffff" >
<text stroke="none" font-family="Helvetica" font-size="40" ><tspan x="-56" y="13">PC817</tspan>
</text></g>
<ellipse cx="544" cy="548" rx="4" ry="4" fill="#999999" stroke-width="2" stroke-linejoin="bevel" stroke-linecap="round" stroke="#999999" />
<path d="M600,464 L600,560 648,560 648,464 z" fill="#000000" stroke-width="2" stroke-linejoin="bevel" stroke-linecap="round" stroke="#000000" />
<path d="M604,556 L604,564 612,564 612,556 z" fill="#cccccc" stroke-width="2" stroke-linejoin="bevel" stroke-linecap="round" stroke="#cccccc" />
<path d="M636,556 L636,564 644,564 644,556 z" fill="#cccccc" stroke-width="2" stroke-linejoin="bevel" stroke-linecap="round" stroke="#cccccc" />
<path d="M636,460 L636,468 644,468 644,460 z" fill="#cccccc" stroke-width="2" stroke-linejoin="bevel" stroke-linecap="round" stroke="#cccccc" />
<path d="M604,460 L604,468 612,468 612,460 z" fill="#cccccc" stroke-width="2" stroke-linejoin="bevel" stroke-linecap="round" stroke="#cccccc" />
<g transform="matrix(-1.90928e-11 -0.7  0.7 -1.90928e-11 624 512)" fill="#ffffff" >
<text stroke="none" font-family="Helvetica" font-size="40" ><tspan x="-56" y="13">PC817</tspan>
</text></g>
<ellipse cx="608" cy="548" rx="4" ry="4" fill="#999999" stroke-width="2" stroke-linejoin="bevel" stroke-linecap="round" stroke="#999999" />
<path d="M184,584 L184,628 200,628 200,584 z" fill="#d2b48c" stroke-width="2" stroke-linejoin="bevel" stroke-linecap="round" stroke="#d2b48c" />
<path d="M184,620 L184,624 200,624 200,620 z" fill="#ff0000" stroke-width="2" stroke-linejoin="bevel" stroke-linecap="round" stroke="#ff0000" />
<path d="M184,616 L184,612 200,612 200,616 z" fill="#ff0000" stroke-width="2" stroke-linejoin="bevel" stroke-linecap="round" stroke="#ff0000" />
<path d="M184,608 L184,604 200,604 200,608 z" fill="#a52a2a" stroke-width="2" stroke-linejoin="bevel" stroke-linecap="round" stroke="#a52a2a" />
<path d="M184,588 L184,592 200,592 200,588 z" fill="#d4af37" stroke-width="2" stroke-linejoin="bevel" stroke-linecap="round" stroke="#d4af37" />
<path d="M248,584 L248,628 264,628 264,584 z" fill="#d2b48c" stroke-width="2" stroke-linejoin="bevel" stroke-linecap="round" stroke="#d2b48c" />
<path d="M248,620 L248,624 264,624 264,620 z" fill="#ff0000" stroke-width="2" stroke-linejoin="bevel" stroke-linecap="round" stroke="#ff0000" />
<path d="M248,616 L248,612 264,612 264,616 z" fill="#ff0000" stroke-width="2" stroke-linejoin="bevel" stroke-linecap="round" stroke="#ff0000" />
<path d="M248,608 L248,604 264,604 264,608 z" fill="#a52a2a" stroke-width="2" stroke-linejoin="bevel" stroke-linecap="round" stroke="#a52a2a" />
<path d="M248,588 L248,592 264,592 264,588 z" fill="#d4af37" stroke-width="2" stroke-linejoin="bevel" stroke-linecap="round" stroke="#d4af37" />
<path d="M312,584 L312,628 328,628 328,584 z" fill="#d2b48c" stroke-width="2" stroke-linejoin="bevel" stroke-linecap="round" stroke="#d2b48c" />
<path d="M312,620 L312,624 328,624 328,620 z" fill="#ff0000" stroke-width="2" stroke-linejoin="bevel" stroke-linecap="round" stroke="#ff0000" />
<path d="M312,616 L312,612 328,612 328,616 z" fill="#ff0000" stroke-width="2" stroke-linejoin="bevel" stroke-linecap="round" stroke="#ff0000" />
<path d="M312,608 L312,604 328,604 328,608 z" fill="#a52a2a" stroke-width="2" stroke-linejoin="bevel" stroke-linecap="round" stroke="#a52a2a" />
<path d="M312,588 L312,592 328,592 328,588 z" fill="#d4af37" stroke-width="2" stroke-linejoin="bevel" stroke-linecap="round" stroke="#d4af37" />
<path d="M376,584 L376,628 392,628 392,584 z" fill="#d2b48c" stroke-width="2" stroke-linejoin="bevel" stroke-linecap="round" stroke="#d2b48c" />
<path d="M376,620 L376,624 392,624 392,620 z" fill="#ff0000" stroke-width="2" stroke-linejoin="bevel" stroke-linecap="round" stroke="#ff0000" />
<path d="M376,616 L376,612 392,612 392,616 z" fill="#ff0000" stroke-width="2" stroke-linejoin="bevel" stroke-linecap="round" stroke="#ff0000" />
<path d="M376,608 L376,604 392,604 392,608 z" fill="#a52a2a" stroke-width="2" stroke-linejoin="bevel" stroke-linecap="round" stroke="#a52a2a" />
<path d="M376,588 L376,592 392,592 392,588 z" fill="#d4af37" stroke-width="2" stroke-linejoin="bevel" stroke-linecap="round" stroke="#d4af37" />
<path d="M440,584 L440,628 456,628 456,584 z" fill="#d2b48c" stroke-width="2" stroke-linejoin="bevel" stroke-linecap="round" stroke="#d2b48c" />
<path d="M440,620 L440,624 456,624 456,620 z" fill="#ff0000" stroke-width="2" stroke-linejoin="bevel" stroke-linecap="round" stroke="#ff0000" />
<path d="M440,616 L440,612 456,612 456,616 z" fill="#ff0000" stroke-width="2" stroke-linejoin="bevel" stroke-linecap="round" stroke="#ff0000" />
<path d="M440,608 L440,604 456,604 456,608 z" fill="#a52a2a" stroke-width="2" stroke-linejoin="bevel" stroke-linecap="round" stroke="#a52a2a" />
<path d="M440,588 L440,592 456,592 456,588 z" fill="#d4af37" stroke-width="2" stroke-linejoin="bevel" stroke-linecap="round" stroke="#d4af37" />
<path d="M504,584 L504,628 520,628 520,584 z" fill="#d2b48c" stroke-width="2" stroke-linejoin="bevel" stroke-linecap="round" stroke="#d2b48c" />
<path d="M504,620 L504,624 520,624 520,620 z" fill="#ff0000" stroke-width="2" stroke-linejoin="bevel" stroke-linecap="round" stroke="#ff0000" />
<path d="M504,616 L504,612 520,612 520,616 z" fill="#ff0000" stroke-width="2" stroke-linejoin="bevel" stroke-linecap="round" stroke="#ff0000" />
<path d="M504,608 L504,604 520,604 520,608 z" fill="#a52a2a" stroke-width="2" stroke-linejoin="bevel" stroke-linecap="round" stroke="#a52a2a" />
<path d="M504,588 L504,592 520,592 520,588 z" fill="#d4af37" stroke-width="2" stroke-linejoin="bevel" stroke-linecap="round" stroke="#d4af37" />
<path d="M568,584 L568,628 584,628 584,584 z" fill="#d2b48c" stroke-width="2" stroke-linejoin="bevel" stroke-linecap="round" stroke="#d2b48c" />
<path d="M568,620 L568,624 584,624 584,620 z" fill="#ff0000" stroke-width="2" stroke-linejoin="bevel" stroke-linecap="round" stroke="#ff0000" />
<path d="M568,616 L568,612 584,612 584,616 z" fill="#ff0000" stroke-width="2" stroke-linejoin="bevel" stroke-linecap="round" stroke="#ff0000" />
<path d="M568,608 L568,604 584,604 584,608 z" fill="#a52a2a" stroke-width="2" stroke-linejoin="bevel" stroke-linecap="round" stroke="#a52a2a" />
<path d="M568,588 L568,592 584,592 584,588 z" fill="#d4af37" stroke-width="2" stroke-linejoin="bevel" stroke-linecap="round" stroke="#d4af37" />
<path d="M632,584 L632,628 648,628 648,584 z" fill="#d2b48c" stroke-width="2" stroke-linejoin="bevel" stroke-linecap="round" stroke="#d2b48c" />
<path d="M632,620 L632,624 648,624 648,620 z" fill="#ff0000" stroke-width="2" stroke-linejoin="bevel" stroke-linecap="round" stroke="#ff0000" />
<path d="M632,616 L632,612 648,612 648,616 z" fill="#ff0000" stroke-width="2" stroke-linejoin="bevel" stroke-linecap="round" stroke="#ff0000" />
<path d="M632,608 L632,604 648,604 648,608 z" fill="#a52a2a" stroke-width="2" stroke-linejoin="bevel" stroke-linecap="round" stroke="#a52a2a" />
<path d="M632,588 L632,592 648,592 648,588 z" fill="#d4af37" stroke-width="2" stroke-linejoin="bevel" stroke-linecap="round" stroke="#d4af37" />
<path d="M160,560 L160,680 " fill="none" stroke-width="2" stroke-linejoin="bevel" stroke-linecap="round" stroke="#000000" />
<path d="M224,560 L224,680 " fill="none" stroke-width="2" stroke-linejoin="bevel" stroke-linecap="round" stroke="#000000" />
<path d="M288,560 L288,680 " fill="none" stroke-width="2" stroke-linejoin="bevel" stroke-linecap="round" stroke="#000000" />
<path d="M352,560 L352,680 " fill="none" stroke-width="2" stroke-linejoin="bevel" stroke-linecap="round" stroke="#000000" />
<path d="M416,560 L416,680 " fill="none" stroke-width="2" stroke-linejoin="bevel" stroke-linecap="round" stroke="#000000" />
<path d="M480,560 L480,680 " fill="none" stroke-width="2" stroke-linejoin="bevel" stroke-linecap="round" stroke="#000000" />
<path d="M544,560 L544,680 " fill="none" stroke-width="2" stroke-linejoin="bevel" stroke-linecap="round" stroke="#000000" />
<path d="M608,560 L608,680 " fill="none" stroke-width="2" stroke-linejoin="bevel" stroke-linecap="round" stroke="#000000" />
<path d="M192,628 L192,644 " fill="none" stroke-width="2" stroke-linejoin="bevel" stroke-linecap="round" stroke="#000000" />
<path d="M96,644 L640,644 " fill="none" stroke-width="2" stroke-linejoin="bevel" stroke-linecap="round" stroke="#000000" />
<path d="M256,628 L256,644 " fill="none" stroke-width="2" stroke-linejoin="bevel" stroke-linecap="round" stroke="#000000" />
<path d="M320,628 L320,644 " fill="none" stroke-width="2" stroke-linejoin="bevel" stroke-linecap="round" stroke="#000000" />
<path d="M384,628 L384,644 " fill="none" stroke-width="2" stroke-linejoin="bevel" stroke-linecap="round" stroke="#000000" />
<path d="M448,628 L448,644 " fill="none" stroke-width="2" stroke-linejoin="bevel" stroke-linecap="round" stroke="#000000" />
<path d="M512,628 L512,644 " fill="none" stroke-width="2" stroke-linejoin="bevel" stroke-linecap="round" stroke="#000000" />
<path d="M576,628 L576,644 " fill="none" stroke-width="2" stroke-linejoin="bevel" stroke-linecap="round" stroke="#000000" />
<path d="M640,628 L640,644 " fill="none" stroke-width="2" stroke-linejoin="bevel" stroke-linecap="round" stroke="#000000" />
<path d="M100,0 L100,288 552,288 552,0 z" fill="#1ff56c73bbf800001f" stroke-width="2" stroke-linejoin="bevel" stroke-linecap="round" stroke="#666666" />
<ellipse cx="160" cy="12" rx="8" ry="8" fill="#e5e5e5" stroke-width="2" stroke-linejoin="bevel" stroke-linecap="round" stroke="#e5e5e5" />
<path d="M156,8 L156,16 164,16 164,8 z" fill="#cccccc" stroke-width="2" stroke-linejoin="bevel" stroke-linecap="round" stroke="#cccccc" />
<ellipse cx="184" cy="12" rx="8" ry="8" fill="#e5e5e5" stroke-width="2" stroke-linejoin="bevel" stroke-linecap="round" stroke="#e5e5e5" />
<path d="M180,8 L180,16 188,16 188,8 z" fill="#cccccc" stroke-width="2" stroke-linejoin="bevel" stroke-linecap="round" stroke="#cccccc" />
<ellipse cx="208" cy="12" rx="8" ry="8" fill="#e5e5e5" stroke-width="2" stroke-linejoin="bevel" stroke-linecap="round" stroke="#e5e5e5" />
<path d="M204,8 L204,16 212,16 212,8 z" fill="#cccccc" stroke-width="2" stroke-linejoin="bevel" stroke-linecap="round" stroke="#cccccc" />
<ellipse cx="232" cy="12" rx="8" ry="8" fill="#e5e5e5" stroke-width="2" stroke-linejoin="bevel" stroke-linecap="round" stroke="#e5e5e5" />
<path d="M228,8 L228,16 236,16 236,8 z" fill="#cccccc" stroke-width="2" stroke-linejoin="bevel" stroke-linecap="round" stroke="#cccccc" />
<ellipse cx="256" cy="12" rx="8" ry="8" fill="#e5e5e5" stroke-width="2" stroke-linejoin="bevel" stroke-linecap="round" stroke="#e5e5e5" />
<path d="M252,8 L252,16 260,16 260,8 z" fill="#cccccc" stroke-width="2" stroke-linejoin="bevel" stroke-linecap="round" stroke="#cccccc" />
<ellipse cx="280" cy="12" rx="8" ry="8" fill="#e5e5e5" stroke-width="2" stroke-linejoin="bevel" stroke-linecap="round" stroke="#e5e5e5" />
<path d="M276,8 L276,16 284,16 284,8 z" fill="#cccccc" stroke-width="2" stroke-linejoin="bevel" stroke-linecap="round" stroke="#cccccc" />
<ellipse cx="304" cy="12" rx="8" ry="8" fill="#e5e5e5" stroke-width="2" stroke-linejoin="bevel" stroke-linecap="round" stroke="#e5e5e5" />
<path d="M300,8 L300,16 308,16 308,8 z" fill="#cccccc" stroke-width="2" stroke-linejoin="bevel" stroke-linecap="round" stroke="#cccccc" />
<ellipse cx="328" cy="12" rx="8" ry="8" fill="#e5e5e5" stroke-width="2" stroke-linejoin="bevel" stroke-linecap="round" stroke="#e5e5e5" />
<path d="M324,8 L324,16 332,16 332,8 z" fill="#cccccc" stroke-width="2" stroke-linejoin="bevel" stroke-linecap="round" stroke="#cccccc" />
<ellipse cx="352" cy="12" rx="8" ry="8" fill="#e5e5e5" stroke-width="2" stroke-linejoin="bevel" stroke-linecap="round" stroke="#e5e5e5" />
<path d="M348,8 L348,16 356,16 356,8 z" fill="#cccccc" stroke-width="2" stroke-linejoin="bevel" stroke-linecap="round" stroke="#cccccc" />
<ellipse cx="376" cy="12" rx="8" ry="8" fill="#e5e5e5" stroke-width="2" stroke-linejoin="bevel" stroke-linecap="round" stroke="#e5e5e5" />
<path d="M372,8 L372,16 380,16 380,8 z" fill="#cccccc" stroke-width="2" stroke-linejoin="bevel" stroke-linecap="round" stroke="#cccccc" />
<ellipse cx="400" cy="12" rx="8" ry="8" fill="#e5e5e5" stroke-width="2" stroke-linejoin="bevel" stroke-linecap="round" stroke="#e5e5e5" />
<path d="M396,8 L396,16 404,16 404,8 z" fill="#cccccc" stroke-width="2" stroke-linejoin="bevel" stroke-linecap="round" stroke="#cccccc" />
<ellipse cx="424" cy="12" rx="8" ry="8" fill="#e5e5e5" stroke-width="2" stroke-linejoin="bevel" stroke-linecap="round" stroke="#e5e5e5" />
<path d="M420,8 L420,16 428,16 428,8 z" fill="#cccccc" stroke-width="2" stroke-linejoin="bevel" stroke-linecap="round" stroke="#cccccc" />
<ellipse cx="448" cy="12" rx="8" ry="8" fill="#e5e5e5" stroke-width="2" stroke-linejoin="bevel" stroke-linecap="round" stroke="#e5e5e5" />
<path d="M444,8 L444,16 452,16 452,8 z" fill="#cccccc" stroke-width="2" stroke-linejoin="bevel" stroke-linecap="round" stroke="#cccccc" />
<ellipse cx="472" cy="12" rx="8" ry="8" fill="#e5e5e5" stroke-width="2" stroke-linejoin="bevel" stroke-linecap="round" stroke="#e5e5e5" />
<path d="M468,8 L468,16 476,16 476,8 z" fill="#cccccc" stroke-width="2" stroke-linejoin="bevel" stroke-linecap="round" stroke="#cccccc" />
<ellipse cx="496" cy="12" rx="8" ry="8" fill="#e5e5e5" stroke-width="2" stroke-linejoin="bevel" stroke-linecap="round" stroke="#e5e5e5" />
<path d="M492,8 L492,16 500,16 500,8 z" fill="#cccccc" stroke-width="2" stroke-linejoin="bevel" stroke-linecap="round" stroke="#cccccc" />
<ellipse cx="160" cy="276" rx="8" ry="8" fill="#e5e5e5" stroke-width="2" stroke-linejoin="bevel" stroke-linecap="round" stroke="#e5e5e5" />
<path d="M156,272 L156,280 164,280 164,272 z" fill="#cccccc" stroke-width="2" stroke-linejoin="bevel" stroke-linecap="round" stroke="#cccccc" />
<ellipse cx="184" cy="276" rx="8" ry="8" fill="#e5e5e5" stroke-width="2" stroke-linejoin="bevel" stroke-linecap="round" stroke="#e5e5e5" />
<path d="M180,272 L180,280 188,280 188,272 z" fill="#cccccc" stroke-width="2" stroke-linejoin="bevel" stroke-linecap="round" stroke="#cccccc" />
<ellipse cx="208" cy="276" rx="8" ry="8" fill="#e5e5e5" stroke-width="2" stroke-linejoin="bevel" stroke-linecap="round" stroke="#e5e5e5" />
<path d="M204,272 L204,280 212,280 212,272 z" fill="#cccccc" stroke-width="2" stroke-linejoin="bevel" stroke-linecap="round" stroke="#cccccc" />
<ellipse cx="232" cy="276" rx="8" ry="8" fill="#e5e5e5" stroke-width="2" stroke-linejoin="bevel" stroke-linecap="round" stroke="#e5e5e5" />
<path d="M228,272 L228,280 236,280 236,272 z" fill="#cccccc" stroke-width="2" stroke-linejoin="bevel" stroke-linecap="round" stroke="#cccccc" />
<ellipse cx="256" cy="276" rx="8" ry="8" fill="#e5e5e5" stroke-width="2" stroke-linejoin="bevel" stroke-linecap="round" stroke="#e5e5e5" />
<path d="M252,272 L252,280 260,280 260,272 z" fill="#cccccc" stroke-width="2" stroke-linejoin="bevel" stroke-linecap="round" stroke="#cccccc" />
<ellipse cx="280" cy="276" rx="8" ry="8" fill="#e5e5e5" stroke-width="2" stroke-linejoin="bevel" stroke-linecap="round" stroke="#e5e5e5" />
<path d="M276,272 L276,280 284,280 284,272 z" fill="#cccccc" stroke-width="2" stroke-linejoin="bevel" stroke-linecap="round" stroke="#cccccc" />
<ellipse cx="304" cy="276" rx="8" ry="8" fill="#e5e5e5" stroke-width="2" stroke-linejoin="bevel" stroke-linecap="round" stroke="#e5e5e5" />
<path d="M300,272 L300,280 308,280 308,272 z" fill="#cccccc" stroke-width="2" stroke-linejoin="bevel" stroke-linecap="round" stroke="#cccccc" />
<ellipse cx="328" cy="276" rx="8" ry="8" fill="#e5e5e5" stroke-width="2" stroke-linejoin="bevel" stroke-linecap="round" stroke="#e5e5e5" />
<path d="M324,272 L324,280 332,280 332,272 z" fill="#cccccc" stroke-width="2" stroke-linejoin="bevel" stroke-linecap="round" stroke="#cccccc" />
<ellipse cx="352" cy="276" rx="8" ry="8" fill="#e5e5e5" stroke-width="2" stroke-linejoin="bevel" stroke-linecap="round" stroke="#e5e5e5" />
<path d="M348,272 L348,280 356,280 356,272 z" fill="#cccccc" stroke-width="2" stroke-linejoin="bevel" stroke-linecap="round" stroke="#cccccc" />
<ellipse cx="376" cy="276" rx="8" ry="8" fill="#e5e5e5" stroke-width="2" stroke-linejoin="bevel" stroke-linecap="round" stroke="#e5e5e5" />
<path d="M372,272 L372,280 380,280 380,272 z" fill="#cccccc" stroke-width="2" stroke-linejoin="bevel" stroke-linecap="round" stroke="#cccccc" />
<ellipse cx="400" cy="276" rx="8" ry="8" fill="#e5e5e5" stroke-width="2" stroke-linejoin="bevel" stroke-linecap="round" stroke="#e5e5e5" />
<path d="M396,272 L396,280 404,280 404,272 z" fill="#cccccc" stroke-width="2" stroke-linejoin="bevel" stroke-linecap="round" stroke="#cccccc" />
<ellipse cx="424" cy="276" rx="8" ry="8" fill="#e5e5e5" stroke-width="2" stroke-linejoin="bevel" stroke-linecap="round" stroke="#e5e5e5" />
<path d="M420,272 L420,280 428,280 428,272 z" fill="#cccccc" stroke-width="2" stroke-linejoin="bevel" stroke-linecap="round" stroke="#cccccc" />
<ellipse cx="448" cy="276" rx="8" ry="8" fill="#e5e5e5" stroke-width="2" stroke-linejoin="bevel" stroke-linecap="round" stroke="#e5e5e5" />
<path d="M444,272 L444,280 452,280 452,272 z" fill="#cccccc" stroke-width="2" stroke-linejoin="bevel" stroke-linecap="round" stroke="#cccccc" />
<ellipse cx="472" cy="276" rx="8" ry="8" fill="#e5e5e5" stroke-width="2" stroke-linejoin="bevel" stroke-linecap="round" stroke="#e5e5e5" />
<path d="M468,272 L468,280 476,280 476,272 z" fill="#cccccc" stroke-width="2" stroke-linejoin="bevel" stroke-linecap="round" stroke="#cccccc" />
<ellipse cx="496" cy="276" rx="8" ry="8" fill="#e5e5e5" stroke-width="2" stroke-linejoin="bevel" stroke-linecap="round" stroke="#e5e5e5" />
<path d="M492,272 L492,280 500,280 500,272 z" fill="#cccccc" stroke-width="2" stroke-linejoin="bevel" stroke-linecap="round" stroke="#cccccc" />
<ellipse cx="532" cy="268" rx="14" ry="14" fill="#e5e5e5" stroke-width="2" stroke-linejoin="bevel" stroke-linecap="round" stroke="#e5e5e5" />
<g transform="matrix(-3.50685e-12 -0.3  0.3 -3.50685e-12 232  24)" fill="#ffffff" >
<text stroke="none" font-family="Helvetica"  font-weight="bold" font-size="40" ><tspan x="-37" y="13">12</tspan>
</text></g>
<g transform="matrix(-3.50685e-12 -0.3  0.3 -3.50685e-12 256  24)" fill="#ffffff" >
<text stroke="none" font-family="Helvetica"  font-weight="bold" font-size="40" ><tspan x="-39" y="13">14</tspan>
</text></g>
<g transform="matrix(-3.50685e-12 -0.3  0.3 -3.50685e-12 280  24)" fill="#ffffff" >
<text stroke="none" font-family="Helvetica"  font-weight="bold" font-size="40" ><tspan x="-43" y="13">27</tspan>
</text></g>
<g transform="matrix(-3.50685e-12 -0.3  0.3 -3.50685e-12 328  24)" fill="#ffffff" >
<text stroke="none" font-family="Helvetica"  font-weight="bold" font-size="40" ><tspan x="-45" y="13">25</tspan>
</text></g>
<g transform="matrix(-3.50685e-12 -0.3  0.3 -3.50685e-12 376  24)" fill="#ffffff" >
<text stroke="none" font-family="Helvetica"  font-weight="bold" font-size="40" ><tspan x="-43" y="13">32</tspan>
</text></g>
<g transform="matrix(-3.50685e-12 -0.3  0.3 -3.50685e-12 424  24)" fill="#ffffff" >
<text stroke="none" font-family="Helvetica"  font-weight="bold" font-size="40" ><tspan x="-45" y="13">34</tspan>
</text></g>
<g transform="matrix(-3.50685e-12 -0.3  0.3 -3.50685e-12 160  24)" fill="#ffffff" >
<text stroke="none" font-family="Helvetica"  font-weight="bold" font-size="40" ><tspan x="-58" y="13">Vin</tspan>
</text></g>
<g transform="matrix(-3.50685e-12 -0.3  0.3 -3.50685e-12 352  24)" fill="#ffffff" >
<text stroke="none" font-family="Helvetica"  font-weight="bold" font-size="40" ><tspan x="-40" y="13">33</tspan>
</text></g>
<g transform="matrix(-3.50685e-12 -0.3  0.3 -3.50685e-12 304  24)" fill="#ffffff" >
<text stroke="none" font-family="Helvetica"  font-weight="bold" font-size="40" ><tspan x="-45" y="13">26</tspan>
</text></g>
<g transform="matrix(-3.50685e-12 -0.3  0.3 -3.50685e-12 128  20)" fill="#ffffff" >
<text stroke="none" font-family="Helvetica"  font-weight="bold" font-size="40" ><tspan x="-34" y="13">13</tspan>
</text></g>
<g transform="matrix(-3.50685e-12 -0.3  0.3 -3.50685e-12 184  24)" fill="#ffffff" >
<text stroke="none" font-family="Helvetica"  font-weight="bold" font-size="40" ><tspan x="-86" y="13">GND</tspan>
</text></g>
<g transform="matrix(-3.50685e-12 -0.3  0.3 -3.50685e-12 400  24)" fill="#ffffff" >
<text stroke="none" font-family="Helvetica"  font-weight="bold" font-size="40" ><tspan x="-42" y="13">35</tspan>
</text></g>
<g transform="matrix(-3.50685e-12 -0.3  0.3 -3.50685e-12 232 264)" fill="#ffffff" >
<text stroke="none" font-family="Helvetica"  font-weight="bold" font-size="40" ><tspan x="0" y="13">D2</tspan>
</text></g>
<g transform="matrix(-3.50685e-12 -0.3  0.3 -3.50685e-12 400 264)" fill="#ffffff" >
<text stroke="none" font-family="Helvetica"  font-weight="bold" font-size="40" ><tspan x="0" y="13">21</tspan>
</text></g>
<g transform="matrix(-3.50685e-12 -0.3  0.3 -3.50685e-12 424 264)" fill="#ffffff" >
<text stroke="none" font-family="Helvetica"  font-weight="bold" font-size="40" ><tspan x="0" y="13">RX</tspan>
</text></g>
<g transform="matrix(-3.50685e-12 -0.3  0.3 -3.50685e-12 160 264)" fill="#ffffff" >
<text stroke="none" font-family="Helvetica"  font-weight="bold" font-size="40" ><tspan x="0" y="13">3V3</tspan>
</text></g>
<g transform="matrix(-3.50685e-12 -0.3  0.3 -3.50685e-12 208 264)" fill="#ffffff" >
<text stroke="none" font-family="Helvetica"  font-weight="bold" font-size="40" ><tspan x="0" y="13">D15</tspan>
</text></g>
<g transform="matrix(-3.50685e-12 -0.3  0.3 -3.50685e-12 280 264)" fill="#ffffff" >
<text stroke="none" font-family="Helvetica"  font-weight="bold" font-size="40" ><tspan x="0" y="13">RX2</tspan>
</text></g>
<g transform="matrix(-3.50685e-12 -0.3  0.3 -3.50685e-12 256 264)" fill="#ffffff" >
<text stroke="none" font-family="Helvetica"  font-weight="bold" font-size="40" ><tspan x="0" y="13">D4</tspan>
</text></g>
<g transform="matrix(-3.50685e-12 -0.3  0.3 -3.50685e-12 304 264)" fill="#ffffff" >
<text stroke="none" font-family="Helvetica"  font-weight="bold" font-size="40" ><tspan x="0" y="13">TX2</tspan>
</text></g>
<g transform="matrix(-3.50685e-12 -0.3  0.3 -3.50685e-12 352 264)" fill="#ffffff" >
<text stroke="none" font-family="Helvetica"  font-weight="bold" font-size="40" ><tspan x="0" y="13">18</tspan>
</text></g>
<g transform="matrix(-3.50685e-12 -0.3  0.3 -3.50685e-12 376 264)" fill="#ffffff" >
<text stroke="none" font-family="Helvetica"  font-weight="bold" font-size="40" ><tspan x="0" y="13">19</tspan>
</text></g>
<g transform="matrix(-3.50685e-12 -0.3  0.3 -3.50685e-12 472  24)" fill="#ffffff" >
<text stroke="none" font-family="Helvetica"  font-weight="bold" font-size="40" ><tspan x="-42" y="13">36</tspan>
</text></g>
<g transform="matrix(-3.50685e-12 -0.3  0.3 -3.50685e-12 448  24)" fill="#ffffff" >
<text stroke="none" font-family="Helvetica"  font-weight="bold" font-size="40" ><tspan x="-42" y="13">39</tspan>
</text></g>
<g transform="matrix(-3.50685e-12 -0.3  0.3 -3.50685e-12 496  24)" fill="#ffffff" >
<text stroke="none" font-family="Helvetica"  font-weight="bold" font-size="40" ><tspan x="-54" y="13">EN</tspan>
</text></g>
<g transform="matrix(-3.50685e-12 -0.3  0.3 -3.50685e-12 472 264)" fill="#ffffff" >
<text stroke="none" font-family="Helvetica"  font-weight="bold" font-size="40" ><tspan x="0" y="13">22</tspan>
</text></g>
<g transform="matrix(-3.50685e-12 -0.3  0.3 -3.50685e-12 496 264)" fill="#ffffff" >
<text stroke="none" font-family="Helvetica"  font-weight="bold" font-size="40" ><tspan x="0" y="13">23</tspan>
</text></g>
<g transform="matrix(-3.50685e-12 -0.3  0.3 -3.50685e-12 448 264)" fill="#ffffff" >
<text stroke="none" font-family="Helvetica"  font-weight="bold" font-size="40" ><tspan x="0" y="13">TX</tspan>
</text></g>
<path d="M96,112 L96,180 172,180 172,112 z" fill="#e5e5e5" stroke-width="2" stroke-linejoin="bevel" stroke-linecap="round" stroke="#e5e5e5" />
<path d="M504,60 L332,60 332,228 504,228 504,224 504,224 504,60 " fill="#1ff56c73bbf800001f" stroke-width="2" stroke-linejoin="bevel" stroke-linecap="round" stroke="#e5e5e5" />
<g transform="matrix(2.72755e-12  0.7 -0.7 2.72755e-12 480  64)" fill="#ffffff" >
<text stroke="none" font-family="Helvetica"  font-style="oblique" font-size="40" ><tspan x="0" y="0">espressif</tspan>
</text></g>
<g transform="matrix(1.5586e-12  0.4 -0.4 1.5586e-12 436  64)" fill="#ffffff" >
<text stroke="none" font-family="Helvetica" font-size="40" ><tspan x="0" y="0">ESP32-WROOM-32U</tspan>
</text></g>
<path d="M108,196 L108,228 172,228 172,196 z" fill="#e5e5e5" stroke-width="2" stroke-linejoin="bevel" stroke-linecap="round" stroke="#e5e5e5" />
<ellipse cx="140" cy="212" rx="8" ry="8" fill="#666666" stroke-width="2" stroke-linejoin="bevel" stroke-linecap="round" stroke="#666666" />
<path d="M108,64 L108,96 172,96 172,64 z" fill="#e5e5e5" stroke-width="2" stroke-linejoin="bevel" stroke-linecap="round" stroke="#e5e5e5" />
<ellipse cx="140" cy="80" rx="8" ry="8" fill="#666666" stroke-width="2" stroke-linejoin="bevel" stroke-linecap="round" stroke="#666666" />
<g transform="matrix(-3.50685e-12 -0.3  0.3 -3.50685e-12 184 264)" fill="#ffffff" >
<text stroke="none" font-family="Helvetica"  font-weight="bold" font-size="40" ><tspan x="0" y="13">GND</tspan>
</text></g>
<g transform="matrix(-3.50685e-12 -0.3  0.3 -3.50685e-12 328 264)" fill="#ffffff" >
<text stroke="none" font-family="Helvetica"  font-weight="bold" font-size="40" ><tspan x="0" y="13">D5</tspan>
</text></g>
<ellipse cx="532" cy="20" rx="14" ry="14" fill="#e5e5e5" stroke-width="2" stroke-linejoin="bevel" stroke-linecap="round" stroke="#e5e5e5" />
<ellipse cx="120" cy="268" rx="14" ry="14" fill="#e5e5e5" stroke-width="2" stroke-linejoin="bevel" stroke-linecap="round" stroke="#e5e5e5" />
<ellipse cx="120" cy="20" rx="14" ry="14" fill="#e5e5e5" stroke-width="2" stroke-linejoin="bevel" stroke-linecap="round" stroke="#e5e5e5" />
<path d="M504,220 L540,220 540,196 516,196 516,176 540,176 540,156 516,156 516,140 516,136 540,136 540,112 516,112 516,92 540,92 540,68 508,68 " fill="none" stroke-width="2" stroke-linejoin="bevel" stroke-linecap="round" stroke="#e5e5e5" />
<path d="M192,560 L192,584 " fill="none" stroke-width="2" stroke-linejoin="bevel" stroke-linecap="round" stroke="#000000" />
<path d="M256,560 L256,584 " fill="none" stroke-width="2" stroke-linejoin="bevel" stroke-linecap="round" stroke="#000000" />
<path d="M320,560 L320,584 " fill="none" stroke-width="2" stroke-linejoin="bevel" stroke-linecap="round" stroke="#000000" />
<path d="M384,560 L384,584 " fill="none" stroke-width="2" stroke-linejoin="bevel" stroke-linecap="round" stroke="#000000" />
<path d="M448,560 L448,584 " fill="none" stroke-width="2" stroke-linejoin="bevel" stroke-linecap="round" stroke="#000000" />
<path d="M512,560 L512,584 " fill="none" stroke-width="2" stroke-linejoin="bevel" stroke-linecap="round" stroke="#000000" />
<path d="M576,560 L576,584 " fill="none" stroke-width="2" stroke-linejoin="bevel" stroke-linecap="round" stroke="#000000" />
<path d="M640,560 L640,584 " fill="none" stroke-width="2" stroke-linejoin="bevel" stroke-linecap="round" stroke="#000000" />
<path d="M96,644 L96,336 184,336 184,276 " fill="none" stroke-width="2" stroke-linejoin="bevel" stroke-linecap="round" stroke="#000000" />
<path d="M160,276 L160,464 " fill="none" stroke-width="2" stroke-linejoin="bevel" stroke-linecap="round" stroke="#ff0000" />
<path d="M224,464 A32,32 0 0,0 160,464 " fill="none" stroke-width="2" stroke-linejoin="bevel" stroke-linecap="round" stroke="#ff0000" />
<path d="M288,464 A32,32 0 0,0 224,464 " fill="none" stroke-width="2" stroke-linejoin="bevel" stroke-linecap="round" stroke="#ff0000" />
<path d="M352,464 A32,32 0 0,0 288,464 " fill="none" stroke-width="2" stroke-linejoin="bevel" stroke-linecap="round" stroke="#ff0000" />
<path d="M416,464 A32,32 0 0,0 352,464 " fill="none" stroke-width="2" stroke-linejoin="bevel" stroke-linecap="round" stroke="#ff0000" />
<path d="M480,464 A32,32 0 0,0 416,464 " fill="none" stroke-width="2" stroke-linejoin="bevel" stroke-linecap="round" stroke="#ff0000" />
<path d="M544,464 A32,32 0 0,0 480,464 " fill="none" stroke-width="2" stroke-linejoin="bevel" stroke-linecap="round" stroke="#ff0000" />
<path d="M608,464 A32,32 0 0,0 544,464 " fill="none" stroke-width="2" stroke-linejoin="bevel" stroke-linecap="round" stroke="#ff0000" />
<path d="M192,464 L192,352 192,320 256,320 256,276 " fill="none" stroke-width="2" stroke-linejoin="bevel" stroke-linecap="round" stroke="#0000ff" />
<path d="M256,464 L256,336 280,336 280,276 " fill="none" stroke-width="2" stroke-linejoin="bevel" stroke-linecap="round" stroke="#0000ff" />
<path d="M320,464 L320,336 304,336 304,276 " fill="none" stroke-width="2" stroke-linejoin="bevel" stroke-linecap="round" stroke="#0000ff" />
<path d="M384,464 L384,368 352,368 352,276 " fill="none" stroke-width="2" stroke-linejoin="bevel" stroke-linecap="round" stroke="#0000ff" />
<path d="M448,464 L448,352 376,352 376,276 376,280 " fill="none" stroke-width="2" stroke-linejoin="bevel" stroke-linecap="round" stroke="#0000ff" />
<path d="M512,464 L512,336 400,336 400,276 " fill="none" stroke-width="2" stroke-linejoin="bevel" stroke-linecap="round" stroke="#0000ff" />
<path d="M576,464 L576,324 472,324 472,276 " fill="none" stroke-width="2" stroke-linejoin="bevel" stroke-linecap="round" stroke="#0000ff" />
<path d="M640,464 L640,308 496,308 496,276 " fill="none" stroke-width="2" stroke-linejoin="bevel" stroke-linecap="round" stroke="#0000ff" />
<path d="M0,680 L0,752 128,752 128,680 z" fill="#4968d9" stroke-width="2" stroke-linejoin="bevel" stroke-linecap="round" stroke="#4968d9" />
<ellipse cx="32" cy="716" rx="16" ry="16" fill="#e5e5e5" stroke-width="2" stroke-linejoin="bevel" stroke-linecap="round" stroke="#e5e5e5" />
<ellipse cx="96" cy="716" rx="16" ry="16" fill="#e5e5e5" stroke-width="2" stroke-linejoin="bevel" stroke-linecap="round" stroke="#e5e5e5" />
<path d="M20,728 L44,704 " fill="none" stroke-width="2" stroke-linejoin="bevel" stroke-linecap="round" stroke="#999999" />
<path d="M84,728 L108,704 " fill="none" stroke-width="2" stroke-linejoin="bevel" stroke-linecap="round" stroke="#999999" />
<path d="M96,644 L96,680 " fill="none" stroke-width="2" stroke-linejoin="bevel" stroke-linecap="round" stroke="#000000" />
<g transform="matrix(3.8965e-12    1   -1 3.8965e-12  96 752)" fill="#0000ff" >
<text stroke="none" font-family="Times" font-size="40" ><tspan x="0" y="13">GND</tspan>
</text></g>
<g transform="matrix(3.8965e-12    1   -1 3.8965e-12 164 752)" fill="#0000ff" >
<text stroke="none" font-family="Times" font-size="40" ><tspan x="0" y="13">DI1</tspan>
</text></g>
<g transform="matrix(3.8965e-12    1   -1 3.8965e-12 228 752)" fill="#000000" >
<text stroke="none" font-family="Times" font-size="40" ><tspan x="0" y="13">DI2</tspan>
</text></g>
<g transform="matrix(3.8965e-12    1   -1 3.8965e-12 288 752)" fill="#0000ff" >
<text stroke="none" font-family="Times" font-size="40" ><tspan x="0" y="13">DI3</tspan>
</text></g>
<g transform="matrix(3.8965e-12    1   -1 3.8965e-12 352 752)" fill="#0000ff" >
<text stroke="none" font-family="Times" font-size="40" ><tspan x="0" y="13">DI4</tspan>
</text></g>
<g transform="matrix(3.8965e-12    1   -1 3.8965e-12 416 752)" fill="#0000ff" >
<text stroke="none" font-family="Times" font-size="40" ><tspan x="0" y="13">DI5</tspan>
</text></g>
<g transform="matrix(3.8965e-12    1   -1 3.8965e-12 480 752)" fill="#0000ff" >
<text stroke="none" font-family="Times" font-size="40" ><tspan x="0" y="13">DI6</tspan>
</text></g>
<g transform="matrix(3.8965e-12    1   -1 3.8965e-12 544 752)" fill="#0000ff" >
<text stroke="none" font-family="Times" font-size="40" ><tspan x="0" y="13">DI7</tspan>
</text></g>
<g transform="matrix(3.8965e-12    1   -1 3.8965e-12 608 752)" fill="#0000ff" >
<text stroke="none" font-family="Times" font-size="40" ><tspan x="0" y="13">DI8</tspan>
</text></g>
</g>
</svg>
