M48
; DRILL file {KiCad 7.0.6} date Mon Sep  4 23:14:25 2023
; FORMAT={-:-/ absolute / inch / decimal}
; #@! TF.CreationDate,2023-09-04T23:14:25+02:00
; #@! TF.GenerationSoftware,Kicad,Pcbnew,7.0.6
; #@! TF.FileFunction,Plated,1,4,PTH
FMAT,2
INCH
; #@! TA.AperFunction,Plated,PTH,ViaDrill
T1C0.0118
; #@! TA.AperFunction,Plated,PTH,ViaDrill
T2C0.0157
; #@! TA.AperFunction,Plated,PTH,ComponentDrill
T3C0.0276
; #@! TA.AperFunction,Plated,PTH,ComponentDrill
T4C0.0315
; #@! TA.AperFunction,Plated,PTH,ComponentDrill
T5C0.0394
; #@! TA.AperFunction,Plated,PTH,ComponentDrill
T6C0.0512
%
G90
G05
T1
X5.4823Y-4.2224
X5.4823Y-4.2618
X5.4823Y-4.3012
X5.4823Y-4.3406
X5.4823Y-4.3701
X5.4823Y-4.4094
X5.5217Y-4.2224
X5.5217Y-4.2618
X5.5217Y-4.3012
X5.5217Y-4.3406
X5.5217Y-4.3701
X5.5217Y-4.4094
X5.561Y-4.2224
X5.561Y-4.2618
X5.561Y-4.3012
X5.561Y-4.3406
X5.561Y-4.3701
X5.561Y-4.4094
X5.6004Y-4.2224
X5.6004Y-4.2618
X5.6004Y-4.3012
X5.6004Y-4.3406
X5.6004Y-4.3701
X5.6004Y-4.4094
X5.6398Y-4.2224
X5.6398Y-4.2618
X5.6398Y-4.3012
X5.6398Y-4.3406
X5.6398Y-4.3799
X5.6398Y-4.4094
X5.6791Y-4.2224
X5.6791Y-4.2618
X5.6791Y-4.3012
X5.6791Y-4.3406
X5.6791Y-4.3799
X5.6791Y-4.4094
X5.7185Y-4.2224
X5.7185Y-4.2618
X5.7185Y-4.3012
X5.7185Y-4.3406
X5.7185Y-4.3799
X5.7185Y-4.4094
X6.7028Y-2.3819
X6.7028Y-2.4114
X6.7028Y-2.4409
X6.7028Y-2.4705
X6.7323Y-2.3819
X6.7323Y-2.4114
X6.7323Y-2.4409
X6.7323Y-2.4705
X6.7618Y-2.3819
X6.7618Y-2.4114
X6.7618Y-2.4409
X6.7618Y-2.4705
X6.8701Y-2.6378
X6.8799Y-2.6181
X6.8799Y-2.6575
X6.8996Y-2.6083
X6.8996Y-2.6378
X6.8996Y-2.6673
X6.9193Y-2.2539
X6.9193Y-2.4508
X6.9193Y-2.6181
X6.9193Y-2.6575
X6.9291Y-2.2343
X6.9291Y-2.2736
X6.9291Y-2.4311
X6.9291Y-2.4705
X6.9291Y-2.6378
X6.9488Y-2.2244
X6.9488Y-2.2539
X6.9488Y-2.2835
X6.9488Y-2.4213
X6.9488Y-2.4508
X6.9488Y-2.4803
X6.9685Y-2.2343
X6.9685Y-2.2736
X6.9685Y-2.4311
X6.9685Y-2.4705
X6.9783Y-2.2539
X6.9783Y-2.4508
T2
X5.8465Y-4.2224
X5.8465Y-4.3996
X6.4961Y-4.2421
X6.4961Y-4.2815
X6.4961Y-4.3898
X6.5748Y-2.4016
X6.5748Y-2.4606
X6.752Y-4.1831
T3
X4.5937Y-3.061
X4.5937Y-3.2677
X4.5937Y-3.4646
X4.5937Y-3.6516
X4.5937Y-3.8484
X4.5937Y-4.0421
X4.5937Y-4.2421
X4.5937Y-4.439
X4.6035Y-2.2736
X4.6035Y-2.4803
X4.6035Y-2.6673
X4.6035Y-2.8642
X4.6937Y-3.061
X4.6937Y-3.2677
X4.6937Y-3.4646
X4.6937Y-3.6516
X4.6937Y-3.8484
X4.6937Y-4.0421
X4.6937Y-4.2421
X4.6937Y-4.439
X4.7035Y-2.2736
X4.7035Y-2.4803
X4.7035Y-2.6673
X4.7035Y-2.8642
X6.4749Y-3.0355
X6.4749Y-3.4292
X6.4749Y-3.6261
X6.4761Y-3.2324
X6.5749Y-3.0355
X6.5749Y-3.4292
X6.5749Y-3.6261
X6.5761Y-3.2324
X6.9193Y-4.2591
X6.9193Y-4.3591
T4
X4.8012Y-2.2136
X4.8012Y-2.3136
X4.8012Y-2.4203
X4.8012Y-2.5203
X4.8012Y-2.6171
X4.8012Y-2.7171
X4.8012Y-2.814
X4.8012Y-2.914
X4.8012Y-3.0108
X4.8012Y-3.1108
X4.8012Y-3.2077
X4.8012Y-3.3077
X4.8012Y-3.4045
X4.8012Y-3.5045
X4.8012Y-3.6014
X4.8012Y-3.7014
X4.8012Y-3.7982
X4.8012Y-3.8982
X4.8012Y-3.9951
X4.8012Y-4.0951
X5.1012Y-2.2136
X5.1012Y-2.3136
X5.1012Y-2.4203
X5.1012Y-2.5203
X5.1012Y-2.6171
X5.1012Y-2.7171
X5.1012Y-2.814
X5.1012Y-2.914
X5.1012Y-3.0108
X5.1012Y-3.1108
X5.1012Y-3.2077
X5.1012Y-3.3077
X5.1012Y-3.4045
X5.1012Y-3.5045
X5.1012Y-3.6014
X5.1012Y-3.7014
X5.1012Y-3.7982
X5.1012Y-3.8982
X5.1012Y-3.9951
X5.1012Y-4.0951
X6.6717Y-3.0334
X6.6717Y-3.1334
X6.6725Y-3.2339
X6.6725Y-3.3339
X6.6725Y-3.4344
X6.6725Y-3.5344
X6.6725Y-3.6349
X6.6725Y-3.7349
X6.8209Y-2.7362
X6.8209Y-2.8346
X6.9717Y-3.0334
X6.9717Y-3.1334
X6.9725Y-3.2339
X6.9725Y-3.3339
X6.9725Y-3.4344
X6.9725Y-3.5344
X6.9725Y-3.6349
X6.9725Y-3.7349
T5
X5.4056Y-2.9057
X5.4056Y-3.0057
X5.4056Y-3.1057
X5.4056Y-3.2057
X5.4056Y-3.3057
X5.4056Y-3.4057
X5.4056Y-3.5057
X5.4056Y-3.6057
X5.5056Y-2.9057
X5.5056Y-3.0057
X5.5056Y-3.1057
X5.5056Y-3.2057
X5.5056Y-3.3057
X5.5056Y-3.4057
X5.5056Y-3.5057
X5.5056Y-3.6057
X6.2056Y-2.9057
X6.2056Y-3.0057
X6.2056Y-3.1057
X6.2056Y-3.2057
X6.2056Y-3.3057
X6.2056Y-3.4057
X6.2056Y-3.5057
X6.2056Y-3.6057
X6.3056Y-2.9057
X6.3056Y-3.0057
X6.3056Y-3.1057
X6.3056Y-3.2057
X6.3056Y-3.3057
X6.3056Y-3.4057
X6.3056Y-3.5057
X6.3056Y-3.6057
T6
X4.311Y-2.2736
X4.311Y-2.4705
X4.311Y-2.6673
X4.311Y-2.8642
X4.311Y-3.061
X4.311Y-3.2579
X4.311Y-3.4547
X4.311Y-3.6516
X4.311Y-3.8484
X4.311Y-4.0453
X4.311Y-4.2421
X4.311Y-4.439
X7.2441Y-2.2539
X7.2441Y-2.4508
X7.2441Y-2.6476
X7.2441Y-2.8445
X7.2441Y-3.0413
X7.2441Y-3.2382
X7.2441Y-3.435
X7.2441Y-3.6319
X7.2441Y-3.8287
X7.2441Y-4.0256
X7.2441Y-4.2224
X7.2441Y-4.4193
T0
M30
