%TF.GenerationSoftware,KiCad,Pcbnew,7.0.6*%
%TF.CreationDate,2023-09-04T23:14:32+02:00*%
%TF.ProjectId,ESP32RIO,45535033-3252-4494-9f2e-6b696361645f,rev?*%
%TF.SameCoordinates,Original*%
%TF.FileFunction,Drillmap*%
%TF.FilePolarity,Positive*%
%FSLAX45Y45*%
G04 Gerber Fmt 4.5, Leading zero omitted, Abs format (unit mm)*
G04 Created by KiCad (PCBNEW 7.0.6) date 2023-09-04 23:14:32*
%MOMM*%
%LPD*%
G01*
G04 APERTURE LIST*
%ADD10C,0.100000*%
%ADD11C,0.200000*%
%ADD12C,0.030000*%
%ADD13C,0.040000*%
%ADD14C,0.070000*%
%ADD15C,0.080000*%
%ADD16C,0.130000*%
G04 APERTURE END LIST*
D10*
X9925000Y-5200000D02*
X19425000Y-5200000D01*
X19425000Y-11700000D01*
X9925000Y-11700000D01*
X9925000Y-5200000D01*
D11*
D12*
X13910000Y-10710000D02*
X13940000Y-10740000D01*
X13940000Y-10710000D02*
X13910000Y-10740000D01*
X13910000Y-10810000D02*
X13940000Y-10840000D01*
X13940000Y-10810000D02*
X13910000Y-10840000D01*
X13910000Y-10910000D02*
X13940000Y-10940000D01*
X13940000Y-10910000D02*
X13910000Y-10940000D01*
X13910000Y-11010000D02*
X13940000Y-11040000D01*
X13940000Y-11010000D02*
X13910000Y-11040000D01*
X13910000Y-11085000D02*
X13940000Y-11115000D01*
X13940000Y-11085000D02*
X13910000Y-11115000D01*
X13910000Y-11185000D02*
X13940000Y-11215000D01*
X13940000Y-11185000D02*
X13910000Y-11215000D01*
X14010000Y-10710000D02*
X14040000Y-10740000D01*
X14040000Y-10710000D02*
X14010000Y-10740000D01*
X14010000Y-10810000D02*
X14040000Y-10840000D01*
X14040000Y-10810000D02*
X14010000Y-10840000D01*
X14010000Y-10910000D02*
X14040000Y-10940000D01*
X14040000Y-10910000D02*
X14010000Y-10940000D01*
X14010000Y-11010000D02*
X14040000Y-11040000D01*
X14040000Y-11010000D02*
X14010000Y-11040000D01*
X14010000Y-11085000D02*
X14040000Y-11115000D01*
X14040000Y-11085000D02*
X14010000Y-11115000D01*
X14010000Y-11185000D02*
X14040000Y-11215000D01*
X14040000Y-11185000D02*
X14010000Y-11215000D01*
X14110000Y-10710000D02*
X14140000Y-10740000D01*
X14140000Y-10710000D02*
X14110000Y-10740000D01*
X14110000Y-10810000D02*
X14140000Y-10840000D01*
X14140000Y-10810000D02*
X14110000Y-10840000D01*
X14110000Y-10910000D02*
X14140000Y-10940000D01*
X14140000Y-10910000D02*
X14110000Y-10940000D01*
X14110000Y-11010000D02*
X14140000Y-11040000D01*
X14140000Y-11010000D02*
X14110000Y-11040000D01*
X14110000Y-11085000D02*
X14140000Y-11115000D01*
X14140000Y-11085000D02*
X14110000Y-11115000D01*
X14110000Y-11185000D02*
X14140000Y-11215000D01*
X14140000Y-11185000D02*
X14110000Y-11215000D01*
X14210000Y-10710000D02*
X14240000Y-10740000D01*
X14240000Y-10710000D02*
X14210000Y-10740000D01*
X14210000Y-10810000D02*
X14240000Y-10840000D01*
X14240000Y-10810000D02*
X14210000Y-10840000D01*
X14210000Y-10910000D02*
X14240000Y-10940000D01*
X14240000Y-10910000D02*
X14210000Y-10940000D01*
X14210000Y-11010000D02*
X14240000Y-11040000D01*
X14240000Y-11010000D02*
X14210000Y-11040000D01*
X14210000Y-11085000D02*
X14240000Y-11115000D01*
X14240000Y-11085000D02*
X14210000Y-11115000D01*
X14210000Y-11185000D02*
X14240000Y-11215000D01*
X14240000Y-11185000D02*
X14210000Y-11215000D01*
X14310000Y-10710000D02*
X14340000Y-10740000D01*
X14340000Y-10710000D02*
X14310000Y-10740000D01*
X14310000Y-10810000D02*
X14340000Y-10840000D01*
X14340000Y-10810000D02*
X14310000Y-10840000D01*
X14310000Y-10910000D02*
X14340000Y-10940000D01*
X14340000Y-10910000D02*
X14310000Y-10940000D01*
X14310000Y-11010000D02*
X14340000Y-11040000D01*
X14340000Y-11010000D02*
X14310000Y-11040000D01*
X14310000Y-11110000D02*
X14340000Y-11140000D01*
X14340000Y-11110000D02*
X14310000Y-11140000D01*
X14310000Y-11185000D02*
X14340000Y-11215000D01*
X14340000Y-11185000D02*
X14310000Y-11215000D01*
X14410000Y-10710000D02*
X14440000Y-10740000D01*
X14440000Y-10710000D02*
X14410000Y-10740000D01*
X14410000Y-10810000D02*
X14440000Y-10840000D01*
X14440000Y-10810000D02*
X14410000Y-10840000D01*
X14410000Y-10910000D02*
X14440000Y-10940000D01*
X14440000Y-10910000D02*
X14410000Y-10940000D01*
X14410000Y-11010000D02*
X14440000Y-11040000D01*
X14440000Y-11010000D02*
X14410000Y-11040000D01*
X14410000Y-11110000D02*
X14440000Y-11140000D01*
X14440000Y-11110000D02*
X14410000Y-11140000D01*
X14410000Y-11185000D02*
X14440000Y-11215000D01*
X14440000Y-11185000D02*
X14410000Y-11215000D01*
X14510000Y-10710000D02*
X14540000Y-10740000D01*
X14540000Y-10710000D02*
X14510000Y-10740000D01*
X14510000Y-10810000D02*
X14540000Y-10840000D01*
X14540000Y-10810000D02*
X14510000Y-10840000D01*
X14510000Y-10910000D02*
X14540000Y-10940000D01*
X14540000Y-10910000D02*
X14510000Y-10940000D01*
X14510000Y-11010000D02*
X14540000Y-11040000D01*
X14540000Y-11010000D02*
X14510000Y-11040000D01*
X14510000Y-11110000D02*
X14540000Y-11140000D01*
X14540000Y-11110000D02*
X14510000Y-11140000D01*
X14510000Y-11185000D02*
X14540000Y-11215000D01*
X14540000Y-11185000D02*
X14510000Y-11215000D01*
X17010000Y-6035000D02*
X17040000Y-6065000D01*
X17040000Y-6035000D02*
X17010000Y-6065000D01*
X17010000Y-6110000D02*
X17040000Y-6140000D01*
X17040000Y-6110000D02*
X17010000Y-6140000D01*
X17010000Y-6185000D02*
X17040000Y-6215000D01*
X17040000Y-6185000D02*
X17010000Y-6215000D01*
X17010000Y-6260000D02*
X17040000Y-6290000D01*
X17040000Y-6260000D02*
X17010000Y-6290000D01*
X17085000Y-6035000D02*
X17115000Y-6065000D01*
X17115000Y-6035000D02*
X17085000Y-6065000D01*
X17085000Y-6110000D02*
X17115000Y-6140000D01*
X17115000Y-6110000D02*
X17085000Y-6140000D01*
X17085000Y-6185000D02*
X17115000Y-6215000D01*
X17115000Y-6185000D02*
X17085000Y-6215000D01*
X17085000Y-6260000D02*
X17115000Y-6290000D01*
X17115000Y-6260000D02*
X17085000Y-6290000D01*
X17160000Y-6035000D02*
X17190000Y-6065000D01*
X17190000Y-6035000D02*
X17160000Y-6065000D01*
X17160000Y-6110000D02*
X17190000Y-6140000D01*
X17190000Y-6110000D02*
X17160000Y-6140000D01*
X17160000Y-6185000D02*
X17190000Y-6215000D01*
X17190000Y-6185000D02*
X17160000Y-6215000D01*
X17160000Y-6260000D02*
X17190000Y-6290000D01*
X17190000Y-6260000D02*
X17160000Y-6290000D01*
X17435000Y-6685000D02*
X17465000Y-6715000D01*
X17465000Y-6685000D02*
X17435000Y-6715000D01*
X17460000Y-6635000D02*
X17490000Y-6665000D01*
X17490000Y-6635000D02*
X17460000Y-6665000D01*
X17460000Y-6735000D02*
X17490000Y-6765000D01*
X17490000Y-6735000D02*
X17460000Y-6765000D01*
X17510000Y-6610000D02*
X17540000Y-6640000D01*
X17540000Y-6610000D02*
X17510000Y-6640000D01*
X17510000Y-6685000D02*
X17540000Y-6715000D01*
X17540000Y-6685000D02*
X17510000Y-6715000D01*
X17510000Y-6760000D02*
X17540000Y-6790000D01*
X17540000Y-6760000D02*
X17510000Y-6790000D01*
X17560000Y-5710000D02*
X17590000Y-5740000D01*
X17590000Y-5710000D02*
X17560000Y-5740000D01*
X17560000Y-6210000D02*
X17590000Y-6240000D01*
X17590000Y-6210000D02*
X17560000Y-6240000D01*
X17560000Y-6635000D02*
X17590000Y-6665000D01*
X17590000Y-6635000D02*
X17560000Y-6665000D01*
X17560000Y-6735000D02*
X17590000Y-6765000D01*
X17590000Y-6735000D02*
X17560000Y-6765000D01*
X17585000Y-5660000D02*
X17615000Y-5690000D01*
X17615000Y-5660000D02*
X17585000Y-5690000D01*
X17585000Y-5760000D02*
X17615000Y-5790000D01*
X17615000Y-5760000D02*
X17585000Y-5790000D01*
X17585000Y-6160000D02*
X17615000Y-6190000D01*
X17615000Y-6160000D02*
X17585000Y-6190000D01*
X17585000Y-6260000D02*
X17615000Y-6290000D01*
X17615000Y-6260000D02*
X17585000Y-6290000D01*
X17585000Y-6685000D02*
X17615000Y-6715000D01*
X17615000Y-6685000D02*
X17585000Y-6715000D01*
X17635000Y-5635000D02*
X17665000Y-5665000D01*
X17665000Y-5635000D02*
X17635000Y-5665000D01*
X17635000Y-5710000D02*
X17665000Y-5740000D01*
X17665000Y-5710000D02*
X17635000Y-5740000D01*
X17635000Y-5785000D02*
X17665000Y-5815000D01*
X17665000Y-5785000D02*
X17635000Y-5815000D01*
X17635000Y-6135000D02*
X17665000Y-6165000D01*
X17665000Y-6135000D02*
X17635000Y-6165000D01*
X17635000Y-6210000D02*
X17665000Y-6240000D01*
X17665000Y-6210000D02*
X17635000Y-6240000D01*
X17635000Y-6285000D02*
X17665000Y-6315000D01*
X17665000Y-6285000D02*
X17635000Y-6315000D01*
X17685000Y-5660000D02*
X17715000Y-5690000D01*
X17715000Y-5660000D02*
X17685000Y-5690000D01*
X17685000Y-5760000D02*
X17715000Y-5790000D01*
X17715000Y-5760000D02*
X17685000Y-5790000D01*
X17685000Y-6160000D02*
X17715000Y-6190000D01*
X17715000Y-6160000D02*
X17685000Y-6190000D01*
X17685000Y-6260000D02*
X17715000Y-6290000D01*
X17715000Y-6260000D02*
X17685000Y-6290000D01*
X17710000Y-5710000D02*
X17740000Y-5740000D01*
X17740000Y-5710000D02*
X17710000Y-5740000D01*
X17710000Y-6210000D02*
X17740000Y-6240000D01*
X17740000Y-6210000D02*
X17710000Y-6240000D01*
D13*
X14870000Y-10725000D02*
G75*
G03*
X14870000Y-10725000I-20000J0D01*
G01*
X14870000Y-11175000D02*
G75*
G03*
X14870000Y-11175000I-20000J0D01*
G01*
X16520000Y-10775000D02*
G75*
G03*
X16520000Y-10775000I-20000J0D01*
G01*
X16520000Y-10875000D02*
G75*
G03*
X16520000Y-10875000I-20000J0D01*
G01*
X16520000Y-11150000D02*
G75*
G03*
X16520000Y-11150000I-20000J0D01*
G01*
X16720000Y-6100000D02*
G75*
G03*
X16720000Y-6100000I-20000J0D01*
G01*
X16720000Y-6250000D02*
G75*
G03*
X16720000Y-6250000I-20000J0D01*
G01*
X17170000Y-10625000D02*
G75*
G03*
X17170000Y-10625000I-20000J0D01*
G01*
D14*
X11668000Y-7740000D02*
X11668000Y-7810000D01*
X11633000Y-7775000D02*
X11703000Y-7775000D01*
X11668000Y-8265000D02*
X11668000Y-8335000D01*
X11633000Y-8300000D02*
X11703000Y-8300000D01*
X11668000Y-8765000D02*
X11668000Y-8835000D01*
X11633000Y-8800000D02*
X11703000Y-8800000D01*
X11668000Y-9240000D02*
X11668000Y-9310000D01*
X11633000Y-9275000D02*
X11703000Y-9275000D01*
X11668000Y-9740000D02*
X11668000Y-9810000D01*
X11633000Y-9775000D02*
X11703000Y-9775000D01*
X11668000Y-10231989D02*
X11668000Y-10301989D01*
X11633000Y-10266989D02*
X11703000Y-10266989D01*
X11668000Y-10740000D02*
X11668000Y-10810000D01*
X11633000Y-10775000D02*
X11703000Y-10775000D01*
X11668000Y-11240000D02*
X11668000Y-11310000D01*
X11633000Y-11275000D02*
X11703000Y-11275000D01*
X11693000Y-5740000D02*
X11693000Y-5810000D01*
X11658000Y-5775000D02*
X11728000Y-5775000D01*
X11693000Y-6265000D02*
X11693000Y-6335000D01*
X11658000Y-6300000D02*
X11728000Y-6300000D01*
X11693000Y-6740000D02*
X11693000Y-6810000D01*
X11658000Y-6775000D02*
X11728000Y-6775000D01*
X11693000Y-7240000D02*
X11693000Y-7310000D01*
X11658000Y-7275000D02*
X11728000Y-7275000D01*
X11922000Y-7740000D02*
X11922000Y-7810000D01*
X11887000Y-7775000D02*
X11957000Y-7775000D01*
X11922000Y-8265000D02*
X11922000Y-8335000D01*
X11887000Y-8300000D02*
X11957000Y-8300000D01*
X11922000Y-8765000D02*
X11922000Y-8835000D01*
X11887000Y-8800000D02*
X11957000Y-8800000D01*
X11922000Y-9240000D02*
X11922000Y-9310000D01*
X11887000Y-9275000D02*
X11957000Y-9275000D01*
X11922000Y-9740000D02*
X11922000Y-9810000D01*
X11887000Y-9775000D02*
X11957000Y-9775000D01*
X11922000Y-10231989D02*
X11922000Y-10301989D01*
X11887000Y-10266989D02*
X11957000Y-10266989D01*
X11922000Y-10740000D02*
X11922000Y-10810000D01*
X11887000Y-10775000D02*
X11957000Y-10775000D01*
X11922000Y-11240000D02*
X11922000Y-11310000D01*
X11887000Y-11275000D02*
X11957000Y-11275000D01*
X11947000Y-5740000D02*
X11947000Y-5810000D01*
X11912000Y-5775000D02*
X11982000Y-5775000D01*
X11947000Y-6265000D02*
X11947000Y-6335000D01*
X11912000Y-6300000D02*
X11982000Y-6300000D01*
X11947000Y-6740000D02*
X11947000Y-6810000D01*
X11912000Y-6775000D02*
X11982000Y-6775000D01*
X11947000Y-7240000D02*
X11947000Y-7310000D01*
X11912000Y-7275000D02*
X11982000Y-7275000D01*
X16446203Y-7675246D02*
X16446203Y-7745246D01*
X16411203Y-7710246D02*
X16481203Y-7710246D01*
X16446203Y-8675246D02*
X16446203Y-8745246D01*
X16411203Y-8710246D02*
X16481203Y-8710246D01*
X16446203Y-9175246D02*
X16446203Y-9245246D01*
X16411203Y-9210246D02*
X16481203Y-9210246D01*
X16449203Y-8175246D02*
X16449203Y-8245246D01*
X16414203Y-8210246D02*
X16484203Y-8210246D01*
X16700203Y-7675246D02*
X16700203Y-7745246D01*
X16665203Y-7710246D02*
X16735203Y-7710246D01*
X16700203Y-8675246D02*
X16700203Y-8745246D01*
X16665203Y-8710246D02*
X16735203Y-8710246D01*
X16700203Y-9175246D02*
X16700203Y-9245246D01*
X16665203Y-9210246D02*
X16735203Y-9210246D01*
X16703203Y-8175246D02*
X16703203Y-8245246D01*
X16668203Y-8210246D02*
X16738203Y-8210246D01*
X17575000Y-10783000D02*
X17575000Y-10853000D01*
X17540000Y-10818000D02*
X17610000Y-10818000D01*
X17575000Y-11037000D02*
X17575000Y-11107000D01*
X17540000Y-11072000D02*
X17610000Y-11072000D01*
D15*
X12223284Y-5650784D02*
X12223284Y-5594215D01*
X12166715Y-5594215D01*
X12166715Y-5650784D01*
X12223284Y-5650784D01*
X12223284Y-5904784D02*
X12223284Y-5848215D01*
X12166715Y-5848215D01*
X12166715Y-5904784D01*
X12223284Y-5904784D01*
X12223284Y-6175784D02*
X12223284Y-6119215D01*
X12166715Y-6119215D01*
X12166715Y-6175784D01*
X12223284Y-6175784D01*
X12223284Y-6429784D02*
X12223284Y-6373215D01*
X12166715Y-6373215D01*
X12166715Y-6429784D01*
X12223284Y-6429784D01*
X12223284Y-6675784D02*
X12223284Y-6619215D01*
X12166715Y-6619215D01*
X12166715Y-6675784D01*
X12223284Y-6675784D01*
X12223284Y-6929784D02*
X12223284Y-6873215D01*
X12166715Y-6873215D01*
X12166715Y-6929784D01*
X12223284Y-6929784D01*
X12223284Y-7175784D02*
X12223284Y-7119215D01*
X12166715Y-7119215D01*
X12166715Y-7175784D01*
X12223284Y-7175784D01*
X12223284Y-7429784D02*
X12223284Y-7373215D01*
X12166715Y-7373215D01*
X12166715Y-7429784D01*
X12223284Y-7429784D01*
X12223284Y-7675784D02*
X12223284Y-7619215D01*
X12166715Y-7619215D01*
X12166715Y-7675784D01*
X12223284Y-7675784D01*
X12223284Y-7929784D02*
X12223284Y-7873215D01*
X12166715Y-7873215D01*
X12166715Y-7929784D01*
X12223284Y-7929784D01*
X12223284Y-8175784D02*
X12223284Y-8119215D01*
X12166715Y-8119215D01*
X12166715Y-8175784D01*
X12223284Y-8175784D01*
X12223284Y-8429785D02*
X12223284Y-8373215D01*
X12166715Y-8373215D01*
X12166715Y-8429785D01*
X12223284Y-8429785D01*
X12223284Y-8675785D02*
X12223284Y-8619216D01*
X12166715Y-8619216D01*
X12166715Y-8675785D01*
X12223284Y-8675785D01*
X12223284Y-8929785D02*
X12223284Y-8873216D01*
X12166715Y-8873216D01*
X12166715Y-8929785D01*
X12223284Y-8929785D01*
X12223284Y-9175785D02*
X12223284Y-9119216D01*
X12166715Y-9119216D01*
X12166715Y-9175785D01*
X12223284Y-9175785D01*
X12223284Y-9429785D02*
X12223284Y-9373216D01*
X12166715Y-9373216D01*
X12166715Y-9429785D01*
X12223284Y-9429785D01*
X12223284Y-9675785D02*
X12223284Y-9619216D01*
X12166715Y-9619216D01*
X12166715Y-9675785D01*
X12223284Y-9675785D01*
X12223284Y-9929785D02*
X12223284Y-9873216D01*
X12166715Y-9873216D01*
X12166715Y-9929785D01*
X12223284Y-9929785D01*
X12223284Y-10175785D02*
X12223284Y-10119216D01*
X12166715Y-10119216D01*
X12166715Y-10175785D01*
X12223284Y-10175785D01*
X12223284Y-10429785D02*
X12223284Y-10373216D01*
X12166715Y-10373216D01*
X12166715Y-10429785D01*
X12223284Y-10429785D01*
X12985284Y-5650784D02*
X12985284Y-5594215D01*
X12928715Y-5594215D01*
X12928715Y-5650784D01*
X12985284Y-5650784D01*
X12985284Y-5904784D02*
X12985284Y-5848215D01*
X12928715Y-5848215D01*
X12928715Y-5904784D01*
X12985284Y-5904784D01*
X12985284Y-6175784D02*
X12985284Y-6119215D01*
X12928715Y-6119215D01*
X12928715Y-6175784D01*
X12985284Y-6175784D01*
X12985284Y-6429784D02*
X12985284Y-6373215D01*
X12928715Y-6373215D01*
X12928715Y-6429784D01*
X12985284Y-6429784D01*
X12985284Y-6675784D02*
X12985284Y-6619215D01*
X12928715Y-6619215D01*
X12928715Y-6675784D01*
X12985284Y-6675784D01*
X12985284Y-6929784D02*
X12985284Y-6873215D01*
X12928715Y-6873215D01*
X12928715Y-6929784D01*
X12985284Y-6929784D01*
X12985284Y-7175784D02*
X12985284Y-7119215D01*
X12928715Y-7119215D01*
X12928715Y-7175784D01*
X12985284Y-7175784D01*
X12985284Y-7429784D02*
X12985284Y-7373215D01*
X12928715Y-7373215D01*
X12928715Y-7429784D01*
X12985284Y-7429784D01*
X12985284Y-7675784D02*
X12985284Y-7619215D01*
X12928715Y-7619215D01*
X12928715Y-7675784D01*
X12985284Y-7675784D01*
X12985284Y-7929784D02*
X12985284Y-7873215D01*
X12928715Y-7873215D01*
X12928715Y-7929784D01*
X12985284Y-7929784D01*
X12985284Y-8175784D02*
X12985284Y-8119215D01*
X12928715Y-8119215D01*
X12928715Y-8175784D01*
X12985284Y-8175784D01*
X12985284Y-8429785D02*
X12985284Y-8373215D01*
X12928715Y-8373215D01*
X12928715Y-8429785D01*
X12985284Y-8429785D01*
X12985284Y-8675785D02*
X12985284Y-8619216D01*
X12928715Y-8619216D01*
X12928715Y-8675785D01*
X12985284Y-8675785D01*
X12985284Y-8929785D02*
X12985284Y-8873216D01*
X12928715Y-8873216D01*
X12928715Y-8929785D01*
X12985284Y-8929785D01*
X12985284Y-9175785D02*
X12985284Y-9119216D01*
X12928715Y-9119216D01*
X12928715Y-9175785D01*
X12985284Y-9175785D01*
X12985284Y-9429785D02*
X12985284Y-9373216D01*
X12928715Y-9373216D01*
X12928715Y-9429785D01*
X12985284Y-9429785D01*
X12985284Y-9675785D02*
X12985284Y-9619216D01*
X12928715Y-9619216D01*
X12928715Y-9675785D01*
X12985284Y-9675785D01*
X12985284Y-9929785D02*
X12985284Y-9873216D01*
X12928715Y-9873216D01*
X12928715Y-9929785D01*
X12985284Y-9929785D01*
X12985284Y-10175785D02*
X12985284Y-10119216D01*
X12928715Y-10119216D01*
X12928715Y-10175785D01*
X12985284Y-10175785D01*
X12985284Y-10429785D02*
X12985284Y-10373216D01*
X12928715Y-10373216D01*
X12928715Y-10429785D01*
X12985284Y-10429785D01*
X16974488Y-7733030D02*
X16974488Y-7676461D01*
X16917919Y-7676461D01*
X16917919Y-7733030D01*
X16974488Y-7733030D01*
X16974488Y-7987030D02*
X16974488Y-7930461D01*
X16917919Y-7930461D01*
X16917919Y-7987030D01*
X16974488Y-7987030D01*
X16976488Y-8242364D02*
X16976488Y-8185795D01*
X16919919Y-8185795D01*
X16919919Y-8242364D01*
X16976488Y-8242364D01*
X16976488Y-8496364D02*
X16976488Y-8439795D01*
X16919919Y-8439795D01*
X16919919Y-8496364D01*
X16976488Y-8496364D01*
X16976488Y-8751697D02*
X16976488Y-8695128D01*
X16919919Y-8695128D01*
X16919919Y-8751697D01*
X16976488Y-8751697D01*
X16976488Y-9005697D02*
X16976488Y-8949128D01*
X16919919Y-8949128D01*
X16919919Y-9005697D01*
X16976488Y-9005697D01*
X16976488Y-9261030D02*
X16976488Y-9204461D01*
X16919919Y-9204461D01*
X16919919Y-9261030D01*
X16976488Y-9261030D01*
X16976488Y-9515030D02*
X16976488Y-9458461D01*
X16919919Y-9458461D01*
X16919919Y-9515030D01*
X16976488Y-9515030D01*
X17353285Y-6978284D02*
X17353285Y-6921715D01*
X17296716Y-6921715D01*
X17296716Y-6978284D01*
X17353285Y-6978284D01*
X17353285Y-7228284D02*
X17353285Y-7171715D01*
X17296716Y-7171715D01*
X17296716Y-7228284D01*
X17353285Y-7228284D01*
X17736488Y-7733030D02*
X17736488Y-7676461D01*
X17679919Y-7676461D01*
X17679919Y-7733030D01*
X17736488Y-7733030D01*
X17736488Y-7987030D02*
X17736488Y-7930461D01*
X17679919Y-7930461D01*
X17679919Y-7987030D01*
X17736488Y-7987030D01*
X17738488Y-8242364D02*
X17738488Y-8185795D01*
X17681919Y-8185795D01*
X17681919Y-8242364D01*
X17738488Y-8242364D01*
X17738488Y-8496364D02*
X17738488Y-8439795D01*
X17681919Y-8439795D01*
X17681919Y-8496364D01*
X17738488Y-8496364D01*
X17738488Y-8751697D02*
X17738488Y-8695128D01*
X17681919Y-8695128D01*
X17681919Y-8751697D01*
X17738488Y-8751697D01*
X17738488Y-9005697D02*
X17738488Y-8949128D01*
X17681919Y-8949128D01*
X17681919Y-9005697D01*
X17738488Y-9005697D01*
X17738488Y-9261030D02*
X17738488Y-9204461D01*
X17681919Y-9204461D01*
X17681919Y-9261030D01*
X17738488Y-9261030D01*
X17738488Y-9515030D02*
X17738488Y-9458461D01*
X17681919Y-9458461D01*
X17681919Y-9515030D01*
X17738488Y-9515030D01*
D10*
X13730250Y-7430500D02*
X13780250Y-7380500D01*
X13730250Y-7330500D01*
X13680250Y-7380500D01*
X13730250Y-7430500D01*
X13730250Y-7684500D02*
X13780250Y-7634500D01*
X13730250Y-7584500D01*
X13680250Y-7634500D01*
X13730250Y-7684500D01*
X13730250Y-7938500D02*
X13780250Y-7888500D01*
X13730250Y-7838500D01*
X13680250Y-7888500D01*
X13730250Y-7938500D01*
X13730250Y-8192500D02*
X13780250Y-8142500D01*
X13730250Y-8092500D01*
X13680250Y-8142500D01*
X13730250Y-8192500D01*
X13730250Y-8446500D02*
X13780250Y-8396500D01*
X13730250Y-8346500D01*
X13680250Y-8396500D01*
X13730250Y-8446500D01*
X13730250Y-8700500D02*
X13780250Y-8650500D01*
X13730250Y-8600500D01*
X13680250Y-8650500D01*
X13730250Y-8700500D01*
X13730250Y-8954500D02*
X13780250Y-8904500D01*
X13730250Y-8854500D01*
X13680250Y-8904500D01*
X13730250Y-8954500D01*
X13730250Y-9208500D02*
X13780250Y-9158500D01*
X13730250Y-9108500D01*
X13680250Y-9158500D01*
X13730250Y-9208500D01*
X13984250Y-7430500D02*
X14034250Y-7380500D01*
X13984250Y-7330500D01*
X13934250Y-7380500D01*
X13984250Y-7430500D01*
X13984250Y-7684500D02*
X14034250Y-7634500D01*
X13984250Y-7584500D01*
X13934250Y-7634500D01*
X13984250Y-7684500D01*
X13984250Y-7938500D02*
X14034250Y-7888500D01*
X13984250Y-7838500D01*
X13934250Y-7888500D01*
X13984250Y-7938500D01*
X13984250Y-8192500D02*
X14034250Y-8142500D01*
X13984250Y-8092500D01*
X13934250Y-8142500D01*
X13984250Y-8192500D01*
X13984250Y-8446500D02*
X14034250Y-8396500D01*
X13984250Y-8346500D01*
X13934250Y-8396500D01*
X13984250Y-8446500D01*
X13984250Y-8700500D02*
X14034250Y-8650500D01*
X13984250Y-8600500D01*
X13934250Y-8650500D01*
X13984250Y-8700500D01*
X13984250Y-8954500D02*
X14034250Y-8904500D01*
X13984250Y-8854500D01*
X13934250Y-8904500D01*
X13984250Y-8954500D01*
X13984250Y-9208500D02*
X14034250Y-9158500D01*
X13984250Y-9108500D01*
X13934250Y-9158500D01*
X13984250Y-9208500D01*
X15762250Y-7430500D02*
X15812250Y-7380500D01*
X15762250Y-7330500D01*
X15712250Y-7380500D01*
X15762250Y-7430500D01*
X15762250Y-7684500D02*
X15812250Y-7634500D01*
X15762250Y-7584500D01*
X15712250Y-7634500D01*
X15762250Y-7684500D01*
X15762250Y-7938500D02*
X15812250Y-7888500D01*
X15762250Y-7838500D01*
X15712250Y-7888500D01*
X15762250Y-7938500D01*
X15762250Y-8192500D02*
X15812250Y-8142500D01*
X15762250Y-8092500D01*
X15712250Y-8142500D01*
X15762250Y-8192500D01*
X15762250Y-8446500D02*
X15812250Y-8396500D01*
X15762250Y-8346500D01*
X15712250Y-8396500D01*
X15762250Y-8446500D01*
X15762250Y-8700500D02*
X15812250Y-8650500D01*
X15762250Y-8600500D01*
X15712250Y-8650500D01*
X15762250Y-8700500D01*
X15762250Y-8954500D02*
X15812250Y-8904500D01*
X15762250Y-8854500D01*
X15712250Y-8904500D01*
X15762250Y-8954500D01*
X15762250Y-9208500D02*
X15812250Y-9158500D01*
X15762250Y-9108500D01*
X15712250Y-9158500D01*
X15762250Y-9208500D01*
X16016250Y-7430500D02*
X16066250Y-7380500D01*
X16016250Y-7330500D01*
X15966250Y-7380500D01*
X16016250Y-7430500D01*
X16016250Y-7684500D02*
X16066250Y-7634500D01*
X16016250Y-7584500D01*
X15966250Y-7634500D01*
X16016250Y-7684500D01*
X16016250Y-7938500D02*
X16066250Y-7888500D01*
X16016250Y-7838500D01*
X15966250Y-7888500D01*
X16016250Y-7938500D01*
X16016250Y-8192500D02*
X16066250Y-8142500D01*
X16016250Y-8092500D01*
X15966250Y-8142500D01*
X16016250Y-8192500D01*
X16016250Y-8446500D02*
X16066250Y-8396500D01*
X16016250Y-8346500D01*
X15966250Y-8396500D01*
X16016250Y-8446500D01*
X16016250Y-8700500D02*
X16066250Y-8650500D01*
X16016250Y-8600500D01*
X15966250Y-8650500D01*
X16016250Y-8700500D01*
X16016250Y-8954500D02*
X16066250Y-8904500D01*
X16016250Y-8854500D01*
X15966250Y-8904500D01*
X16016250Y-8954500D01*
X16016250Y-9208500D02*
X16066250Y-9158500D01*
X16016250Y-9108500D01*
X15966250Y-9158500D01*
X16016250Y-9208500D01*
D16*
X10885000Y-5710000D02*
X11015000Y-5840000D01*
X11015000Y-5710000D02*
X10885000Y-5840000D01*
X11015000Y-5775000D02*
G75*
G03*
X11015000Y-5775000I-65000J0D01*
G01*
X10885000Y-6210000D02*
X11015000Y-6340000D01*
X11015000Y-6210000D02*
X10885000Y-6340000D01*
X11015000Y-6275000D02*
G75*
G03*
X11015000Y-6275000I-65000J0D01*
G01*
X10885000Y-6710000D02*
X11015000Y-6840000D01*
X11015000Y-6710000D02*
X10885000Y-6840000D01*
X11015000Y-6775000D02*
G75*
G03*
X11015000Y-6775000I-65000J0D01*
G01*
X10885000Y-7210000D02*
X11015000Y-7340000D01*
X11015000Y-7210000D02*
X10885000Y-7340000D01*
X11015000Y-7275000D02*
G75*
G03*
X11015000Y-7275000I-65000J0D01*
G01*
X10885000Y-7710000D02*
X11015000Y-7840000D01*
X11015000Y-7710000D02*
X10885000Y-7840000D01*
X11015000Y-7775000D02*
G75*
G03*
X11015000Y-7775000I-65000J0D01*
G01*
X10885000Y-8210000D02*
X11015000Y-8340000D01*
X11015000Y-8210000D02*
X10885000Y-8340000D01*
X11015000Y-8275000D02*
G75*
G03*
X11015000Y-8275000I-65000J0D01*
G01*
X10885000Y-8710000D02*
X11015000Y-8840000D01*
X11015000Y-8710000D02*
X10885000Y-8840000D01*
X11015000Y-8775000D02*
G75*
G03*
X11015000Y-8775000I-65000J0D01*
G01*
X10885000Y-9210000D02*
X11015000Y-9340000D01*
X11015000Y-9210000D02*
X10885000Y-9340000D01*
X11015000Y-9275000D02*
G75*
G03*
X11015000Y-9275000I-65000J0D01*
G01*
X10885000Y-9710000D02*
X11015000Y-9840000D01*
X11015000Y-9710000D02*
X10885000Y-9840000D01*
X11015000Y-9775000D02*
G75*
G03*
X11015000Y-9775000I-65000J0D01*
G01*
X10885000Y-10210000D02*
X11015000Y-10340000D01*
X11015000Y-10210000D02*
X10885000Y-10340000D01*
X11015000Y-10275000D02*
G75*
G03*
X11015000Y-10275000I-65000J0D01*
G01*
X10885000Y-10710000D02*
X11015000Y-10840000D01*
X11015000Y-10710000D02*
X10885000Y-10840000D01*
X11015000Y-10775000D02*
G75*
G03*
X11015000Y-10775000I-65000J0D01*
G01*
X10885000Y-11210000D02*
X11015000Y-11340000D01*
X11015000Y-11210000D02*
X10885000Y-11340000D01*
X11015000Y-11275000D02*
G75*
G03*
X11015000Y-11275000I-65000J0D01*
G01*
X18335000Y-5660000D02*
X18465000Y-5790000D01*
X18465000Y-5660000D02*
X18335000Y-5790000D01*
X18465000Y-5725000D02*
G75*
G03*
X18465000Y-5725000I-65000J0D01*
G01*
X18335000Y-6160000D02*
X18465000Y-6290000D01*
X18465000Y-6160000D02*
X18335000Y-6290000D01*
X18465000Y-6225000D02*
G75*
G03*
X18465000Y-6225000I-65000J0D01*
G01*
X18335000Y-6660000D02*
X18465000Y-6790000D01*
X18465000Y-6660000D02*
X18335000Y-6790000D01*
X18465000Y-6725000D02*
G75*
G03*
X18465000Y-6725000I-65000J0D01*
G01*
X18335000Y-7160000D02*
X18465000Y-7290000D01*
X18465000Y-7160000D02*
X18335000Y-7290000D01*
X18465000Y-7225000D02*
G75*
G03*
X18465000Y-7225000I-65000J0D01*
G01*
X18335000Y-7660000D02*
X18465000Y-7790000D01*
X18465000Y-7660000D02*
X18335000Y-7790000D01*
X18465000Y-7725000D02*
G75*
G03*
X18465000Y-7725000I-65000J0D01*
G01*
X18335000Y-8160000D02*
X18465000Y-8290000D01*
X18465000Y-8160000D02*
X18335000Y-8290000D01*
X18465000Y-8225000D02*
G75*
G03*
X18465000Y-8225000I-65000J0D01*
G01*
X18335000Y-8660000D02*
X18465000Y-8790000D01*
X18465000Y-8660000D02*
X18335000Y-8790000D01*
X18465000Y-8725000D02*
G75*
G03*
X18465000Y-8725000I-65000J0D01*
G01*
X18335000Y-9160000D02*
X18465000Y-9290000D01*
X18465000Y-9160000D02*
X18335000Y-9290000D01*
X18465000Y-9225000D02*
G75*
G03*
X18465000Y-9225000I-65000J0D01*
G01*
X18335000Y-9660000D02*
X18465000Y-9790000D01*
X18465000Y-9660000D02*
X18335000Y-9790000D01*
X18465000Y-9725000D02*
G75*
G03*
X18465000Y-9725000I-65000J0D01*
G01*
X18335000Y-10160000D02*
X18465000Y-10290000D01*
X18465000Y-10160000D02*
X18335000Y-10290000D01*
X18465000Y-10225000D02*
G75*
G03*
X18465000Y-10225000I-65000J0D01*
G01*
X18335000Y-10660000D02*
X18465000Y-10790000D01*
X18465000Y-10660000D02*
X18335000Y-10790000D01*
X18465000Y-10725000D02*
G75*
G03*
X18465000Y-10725000I-65000J0D01*
G01*
X18335000Y-11160000D02*
X18465000Y-11290000D01*
X18465000Y-11160000D02*
X18335000Y-11290000D01*
X18465000Y-11225000D02*
G75*
G03*
X18465000Y-11225000I-65000J0D01*
G01*
D11*
X10180777Y-12016484D02*
X10180777Y-11816484D01*
X10180777Y-11816484D02*
X10228396Y-11816484D01*
X10228396Y-11816484D02*
X10256967Y-11826008D01*
X10256967Y-11826008D02*
X10276015Y-11845055D01*
X10276015Y-11845055D02*
X10285539Y-11864103D01*
X10285539Y-11864103D02*
X10295063Y-11902198D01*
X10295063Y-11902198D02*
X10295063Y-11930769D01*
X10295063Y-11930769D02*
X10285539Y-11968865D01*
X10285539Y-11968865D02*
X10276015Y-11987912D01*
X10276015Y-11987912D02*
X10256967Y-12006960D01*
X10256967Y-12006960D02*
X10228396Y-12016484D01*
X10228396Y-12016484D02*
X10180777Y-12016484D01*
X10380777Y-12016484D02*
X10380777Y-11883150D01*
X10380777Y-11921246D02*
X10390301Y-11902198D01*
X10390301Y-11902198D02*
X10399824Y-11892674D01*
X10399824Y-11892674D02*
X10418872Y-11883150D01*
X10418872Y-11883150D02*
X10437920Y-11883150D01*
X10504586Y-12016484D02*
X10504586Y-11883150D01*
X10504586Y-11816484D02*
X10495063Y-11826008D01*
X10495063Y-11826008D02*
X10504586Y-11835531D01*
X10504586Y-11835531D02*
X10514110Y-11826008D01*
X10514110Y-11826008D02*
X10504586Y-11816484D01*
X10504586Y-11816484D02*
X10504586Y-11835531D01*
X10628396Y-12016484D02*
X10609348Y-12006960D01*
X10609348Y-12006960D02*
X10599824Y-11987912D01*
X10599824Y-11987912D02*
X10599824Y-11816484D01*
X10733158Y-12016484D02*
X10714110Y-12006960D01*
X10714110Y-12006960D02*
X10704586Y-11987912D01*
X10704586Y-11987912D02*
X10704586Y-11816484D01*
X10961729Y-12016484D02*
X10961729Y-11816484D01*
X10961729Y-11816484D02*
X11028396Y-11959341D01*
X11028396Y-11959341D02*
X11095063Y-11816484D01*
X11095063Y-11816484D02*
X11095063Y-12016484D01*
X11276015Y-12016484D02*
X11276015Y-11911722D01*
X11276015Y-11911722D02*
X11266491Y-11892674D01*
X11266491Y-11892674D02*
X11247443Y-11883150D01*
X11247443Y-11883150D02*
X11209348Y-11883150D01*
X11209348Y-11883150D02*
X11190301Y-11892674D01*
X11276015Y-12006960D02*
X11256967Y-12016484D01*
X11256967Y-12016484D02*
X11209348Y-12016484D01*
X11209348Y-12016484D02*
X11190301Y-12006960D01*
X11190301Y-12006960D02*
X11180777Y-11987912D01*
X11180777Y-11987912D02*
X11180777Y-11968865D01*
X11180777Y-11968865D02*
X11190301Y-11949817D01*
X11190301Y-11949817D02*
X11209348Y-11940293D01*
X11209348Y-11940293D02*
X11256967Y-11940293D01*
X11256967Y-11940293D02*
X11276015Y-11930769D01*
X11371253Y-11883150D02*
X11371253Y-12083150D01*
X11371253Y-11892674D02*
X11390301Y-11883150D01*
X11390301Y-11883150D02*
X11428396Y-11883150D01*
X11428396Y-11883150D02*
X11447443Y-11892674D01*
X11447443Y-11892674D02*
X11456967Y-11902198D01*
X11456967Y-11902198D02*
X11466491Y-11921246D01*
X11466491Y-11921246D02*
X11466491Y-11978388D01*
X11466491Y-11978388D02*
X11456967Y-11997436D01*
X11456967Y-11997436D02*
X11447443Y-12006960D01*
X11447443Y-12006960D02*
X11428396Y-12016484D01*
X11428396Y-12016484D02*
X11390301Y-12016484D01*
X11390301Y-12016484D02*
X11371253Y-12006960D01*
X11552205Y-11997436D02*
X11561729Y-12006960D01*
X11561729Y-12006960D02*
X11552205Y-12016484D01*
X11552205Y-12016484D02*
X11542682Y-12006960D01*
X11542682Y-12006960D02*
X11552205Y-11997436D01*
X11552205Y-11997436D02*
X11552205Y-12016484D01*
X11552205Y-11892674D02*
X11561729Y-11902198D01*
X11561729Y-11902198D02*
X11552205Y-11911722D01*
X11552205Y-11911722D02*
X11542682Y-11902198D01*
X11542682Y-11902198D02*
X11552205Y-11892674D01*
X11552205Y-11892674D02*
X11552205Y-11911722D01*
D12*
X9890000Y-12330000D02*
X9920000Y-12360000D01*
X9920000Y-12330000D02*
X9890000Y-12360000D01*
D11*
X10218872Y-12236484D02*
X10237920Y-12236484D01*
X10237920Y-12236484D02*
X10256967Y-12246008D01*
X10256967Y-12246008D02*
X10266491Y-12255531D01*
X10266491Y-12255531D02*
X10276015Y-12274579D01*
X10276015Y-12274579D02*
X10285539Y-12312674D01*
X10285539Y-12312674D02*
X10285539Y-12360293D01*
X10285539Y-12360293D02*
X10276015Y-12398388D01*
X10276015Y-12398388D02*
X10266491Y-12417436D01*
X10266491Y-12417436D02*
X10256967Y-12426960D01*
X10256967Y-12426960D02*
X10237920Y-12436484D01*
X10237920Y-12436484D02*
X10218872Y-12436484D01*
X10218872Y-12436484D02*
X10199824Y-12426960D01*
X10199824Y-12426960D02*
X10190301Y-12417436D01*
X10190301Y-12417436D02*
X10180777Y-12398388D01*
X10180777Y-12398388D02*
X10171253Y-12360293D01*
X10171253Y-12360293D02*
X10171253Y-12312674D01*
X10171253Y-12312674D02*
X10180777Y-12274579D01*
X10180777Y-12274579D02*
X10190301Y-12255531D01*
X10190301Y-12255531D02*
X10199824Y-12246008D01*
X10199824Y-12246008D02*
X10218872Y-12236484D01*
X10371253Y-12417436D02*
X10380777Y-12426960D01*
X10380777Y-12426960D02*
X10371253Y-12436484D01*
X10371253Y-12436484D02*
X10361729Y-12426960D01*
X10361729Y-12426960D02*
X10371253Y-12417436D01*
X10371253Y-12417436D02*
X10371253Y-12436484D01*
X10447444Y-12236484D02*
X10571253Y-12236484D01*
X10571253Y-12236484D02*
X10504586Y-12312674D01*
X10504586Y-12312674D02*
X10533158Y-12312674D01*
X10533158Y-12312674D02*
X10552205Y-12322198D01*
X10552205Y-12322198D02*
X10561729Y-12331722D01*
X10561729Y-12331722D02*
X10571253Y-12350769D01*
X10571253Y-12350769D02*
X10571253Y-12398388D01*
X10571253Y-12398388D02*
X10561729Y-12417436D01*
X10561729Y-12417436D02*
X10552205Y-12426960D01*
X10552205Y-12426960D02*
X10533158Y-12436484D01*
X10533158Y-12436484D02*
X10476015Y-12436484D01*
X10476015Y-12436484D02*
X10456967Y-12426960D01*
X10456967Y-12426960D02*
X10447444Y-12417436D01*
X10695063Y-12236484D02*
X10714110Y-12236484D01*
X10714110Y-12236484D02*
X10733158Y-12246008D01*
X10733158Y-12246008D02*
X10742682Y-12255531D01*
X10742682Y-12255531D02*
X10752205Y-12274579D01*
X10752205Y-12274579D02*
X10761729Y-12312674D01*
X10761729Y-12312674D02*
X10761729Y-12360293D01*
X10761729Y-12360293D02*
X10752205Y-12398388D01*
X10752205Y-12398388D02*
X10742682Y-12417436D01*
X10742682Y-12417436D02*
X10733158Y-12426960D01*
X10733158Y-12426960D02*
X10714110Y-12436484D01*
X10714110Y-12436484D02*
X10695063Y-12436484D01*
X10695063Y-12436484D02*
X10676015Y-12426960D01*
X10676015Y-12426960D02*
X10666491Y-12417436D01*
X10666491Y-12417436D02*
X10656967Y-12398388D01*
X10656967Y-12398388D02*
X10647444Y-12360293D01*
X10647444Y-12360293D02*
X10647444Y-12312674D01*
X10647444Y-12312674D02*
X10656967Y-12274579D01*
X10656967Y-12274579D02*
X10666491Y-12255531D01*
X10666491Y-12255531D02*
X10676015Y-12246008D01*
X10676015Y-12246008D02*
X10695063Y-12236484D01*
X10885539Y-12236484D02*
X10904586Y-12236484D01*
X10904586Y-12236484D02*
X10923634Y-12246008D01*
X10923634Y-12246008D02*
X10933158Y-12255531D01*
X10933158Y-12255531D02*
X10942682Y-12274579D01*
X10942682Y-12274579D02*
X10952205Y-12312674D01*
X10952205Y-12312674D02*
X10952205Y-12360293D01*
X10952205Y-12360293D02*
X10942682Y-12398388D01*
X10942682Y-12398388D02*
X10933158Y-12417436D01*
X10933158Y-12417436D02*
X10923634Y-12426960D01*
X10923634Y-12426960D02*
X10904586Y-12436484D01*
X10904586Y-12436484D02*
X10885539Y-12436484D01*
X10885539Y-12436484D02*
X10866491Y-12426960D01*
X10866491Y-12426960D02*
X10856967Y-12417436D01*
X10856967Y-12417436D02*
X10847444Y-12398388D01*
X10847444Y-12398388D02*
X10837920Y-12360293D01*
X10837920Y-12360293D02*
X10837920Y-12312674D01*
X10837920Y-12312674D02*
X10847444Y-12274579D01*
X10847444Y-12274579D02*
X10856967Y-12255531D01*
X10856967Y-12255531D02*
X10866491Y-12246008D01*
X10866491Y-12246008D02*
X10885539Y-12236484D01*
X11037920Y-12436484D02*
X11037920Y-12303150D01*
X11037920Y-12322198D02*
X11047444Y-12312674D01*
X11047444Y-12312674D02*
X11066491Y-12303150D01*
X11066491Y-12303150D02*
X11095063Y-12303150D01*
X11095063Y-12303150D02*
X11114110Y-12312674D01*
X11114110Y-12312674D02*
X11123634Y-12331722D01*
X11123634Y-12331722D02*
X11123634Y-12436484D01*
X11123634Y-12331722D02*
X11133158Y-12312674D01*
X11133158Y-12312674D02*
X11152205Y-12303150D01*
X11152205Y-12303150D02*
X11180777Y-12303150D01*
X11180777Y-12303150D02*
X11199824Y-12312674D01*
X11199824Y-12312674D02*
X11209348Y-12331722D01*
X11209348Y-12331722D02*
X11209348Y-12436484D01*
X11304586Y-12436484D02*
X11304586Y-12303150D01*
X11304586Y-12322198D02*
X11314110Y-12312674D01*
X11314110Y-12312674D02*
X11333158Y-12303150D01*
X11333158Y-12303150D02*
X11361729Y-12303150D01*
X11361729Y-12303150D02*
X11380777Y-12312674D01*
X11380777Y-12312674D02*
X11390301Y-12331722D01*
X11390301Y-12331722D02*
X11390301Y-12436484D01*
X11390301Y-12331722D02*
X11399824Y-12312674D01*
X11399824Y-12312674D02*
X11418872Y-12303150D01*
X11418872Y-12303150D02*
X11447443Y-12303150D01*
X11447443Y-12303150D02*
X11466491Y-12312674D01*
X11466491Y-12312674D02*
X11476015Y-12331722D01*
X11476015Y-12331722D02*
X11476015Y-12436484D01*
X11866491Y-12226960D02*
X11695063Y-12484103D01*
X12123634Y-12236484D02*
X12142682Y-12236484D01*
X12142682Y-12236484D02*
X12161729Y-12246008D01*
X12161729Y-12246008D02*
X12171253Y-12255531D01*
X12171253Y-12255531D02*
X12180777Y-12274579D01*
X12180777Y-12274579D02*
X12190301Y-12312674D01*
X12190301Y-12312674D02*
X12190301Y-12360293D01*
X12190301Y-12360293D02*
X12180777Y-12398388D01*
X12180777Y-12398388D02*
X12171253Y-12417436D01*
X12171253Y-12417436D02*
X12161729Y-12426960D01*
X12161729Y-12426960D02*
X12142682Y-12436484D01*
X12142682Y-12436484D02*
X12123634Y-12436484D01*
X12123634Y-12436484D02*
X12104586Y-12426960D01*
X12104586Y-12426960D02*
X12095063Y-12417436D01*
X12095063Y-12417436D02*
X12085539Y-12398388D01*
X12085539Y-12398388D02*
X12076015Y-12360293D01*
X12076015Y-12360293D02*
X12076015Y-12312674D01*
X12076015Y-12312674D02*
X12085539Y-12274579D01*
X12085539Y-12274579D02*
X12095063Y-12255531D01*
X12095063Y-12255531D02*
X12104586Y-12246008D01*
X12104586Y-12246008D02*
X12123634Y-12236484D01*
X12276015Y-12417436D02*
X12285539Y-12426960D01*
X12285539Y-12426960D02*
X12276015Y-12436484D01*
X12276015Y-12436484D02*
X12266491Y-12426960D01*
X12266491Y-12426960D02*
X12276015Y-12417436D01*
X12276015Y-12417436D02*
X12276015Y-12436484D01*
X12409348Y-12236484D02*
X12428396Y-12236484D01*
X12428396Y-12236484D02*
X12447444Y-12246008D01*
X12447444Y-12246008D02*
X12456967Y-12255531D01*
X12456967Y-12255531D02*
X12466491Y-12274579D01*
X12466491Y-12274579D02*
X12476015Y-12312674D01*
X12476015Y-12312674D02*
X12476015Y-12360293D01*
X12476015Y-12360293D02*
X12466491Y-12398388D01*
X12466491Y-12398388D02*
X12456967Y-12417436D01*
X12456967Y-12417436D02*
X12447444Y-12426960D01*
X12447444Y-12426960D02*
X12428396Y-12436484D01*
X12428396Y-12436484D02*
X12409348Y-12436484D01*
X12409348Y-12436484D02*
X12390301Y-12426960D01*
X12390301Y-12426960D02*
X12380777Y-12417436D01*
X12380777Y-12417436D02*
X12371253Y-12398388D01*
X12371253Y-12398388D02*
X12361729Y-12360293D01*
X12361729Y-12360293D02*
X12361729Y-12312674D01*
X12361729Y-12312674D02*
X12371253Y-12274579D01*
X12371253Y-12274579D02*
X12380777Y-12255531D01*
X12380777Y-12255531D02*
X12390301Y-12246008D01*
X12390301Y-12246008D02*
X12409348Y-12236484D01*
X12666491Y-12436484D02*
X12552206Y-12436484D01*
X12609348Y-12436484D02*
X12609348Y-12236484D01*
X12609348Y-12236484D02*
X12590301Y-12265055D01*
X12590301Y-12265055D02*
X12571253Y-12284103D01*
X12571253Y-12284103D02*
X12552206Y-12293627D01*
X12856967Y-12436484D02*
X12742682Y-12436484D01*
X12799825Y-12436484D02*
X12799825Y-12236484D01*
X12799825Y-12236484D02*
X12780777Y-12265055D01*
X12780777Y-12265055D02*
X12761729Y-12284103D01*
X12761729Y-12284103D02*
X12742682Y-12293627D01*
X12971253Y-12322198D02*
X12952206Y-12312674D01*
X12952206Y-12312674D02*
X12942682Y-12303150D01*
X12942682Y-12303150D02*
X12933158Y-12284103D01*
X12933158Y-12284103D02*
X12933158Y-12274579D01*
X12933158Y-12274579D02*
X12942682Y-12255531D01*
X12942682Y-12255531D02*
X12952206Y-12246008D01*
X12952206Y-12246008D02*
X12971253Y-12236484D01*
X12971253Y-12236484D02*
X13009348Y-12236484D01*
X13009348Y-12236484D02*
X13028396Y-12246008D01*
X13028396Y-12246008D02*
X13037920Y-12255531D01*
X13037920Y-12255531D02*
X13047444Y-12274579D01*
X13047444Y-12274579D02*
X13047444Y-12284103D01*
X13047444Y-12284103D02*
X13037920Y-12303150D01*
X13037920Y-12303150D02*
X13028396Y-12312674D01*
X13028396Y-12312674D02*
X13009348Y-12322198D01*
X13009348Y-12322198D02*
X12971253Y-12322198D01*
X12971253Y-12322198D02*
X12952206Y-12331722D01*
X12952206Y-12331722D02*
X12942682Y-12341246D01*
X12942682Y-12341246D02*
X12933158Y-12360293D01*
X12933158Y-12360293D02*
X12933158Y-12398388D01*
X12933158Y-12398388D02*
X12942682Y-12417436D01*
X12942682Y-12417436D02*
X12952206Y-12426960D01*
X12952206Y-12426960D02*
X12971253Y-12436484D01*
X12971253Y-12436484D02*
X13009348Y-12436484D01*
X13009348Y-12436484D02*
X13028396Y-12426960D01*
X13028396Y-12426960D02*
X13037920Y-12417436D01*
X13037920Y-12417436D02*
X13047444Y-12398388D01*
X13047444Y-12398388D02*
X13047444Y-12360293D01*
X13047444Y-12360293D02*
X13037920Y-12341246D01*
X13037920Y-12341246D02*
X13028396Y-12331722D01*
X13028396Y-12331722D02*
X13009348Y-12322198D01*
X13123634Y-12236484D02*
X13123634Y-12274579D01*
X13199825Y-12236484D02*
X13199825Y-12274579D01*
X13495063Y-12512674D02*
X13485539Y-12503150D01*
X13485539Y-12503150D02*
X13466491Y-12474579D01*
X13466491Y-12474579D02*
X13456968Y-12455531D01*
X13456968Y-12455531D02*
X13447444Y-12426960D01*
X13447444Y-12426960D02*
X13437920Y-12379341D01*
X13437920Y-12379341D02*
X13437920Y-12341246D01*
X13437920Y-12341246D02*
X13447444Y-12293627D01*
X13447444Y-12293627D02*
X13456968Y-12265055D01*
X13456968Y-12265055D02*
X13466491Y-12246008D01*
X13466491Y-12246008D02*
X13485539Y-12217436D01*
X13485539Y-12217436D02*
X13495063Y-12207912D01*
X13599825Y-12322198D02*
X13580777Y-12312674D01*
X13580777Y-12312674D02*
X13571253Y-12303150D01*
X13571253Y-12303150D02*
X13561729Y-12284103D01*
X13561729Y-12284103D02*
X13561729Y-12274579D01*
X13561729Y-12274579D02*
X13571253Y-12255531D01*
X13571253Y-12255531D02*
X13580777Y-12246008D01*
X13580777Y-12246008D02*
X13599825Y-12236484D01*
X13599825Y-12236484D02*
X13637920Y-12236484D01*
X13637920Y-12236484D02*
X13656968Y-12246008D01*
X13656968Y-12246008D02*
X13666491Y-12255531D01*
X13666491Y-12255531D02*
X13676015Y-12274579D01*
X13676015Y-12274579D02*
X13676015Y-12284103D01*
X13676015Y-12284103D02*
X13666491Y-12303150D01*
X13666491Y-12303150D02*
X13656968Y-12312674D01*
X13656968Y-12312674D02*
X13637920Y-12322198D01*
X13637920Y-12322198D02*
X13599825Y-12322198D01*
X13599825Y-12322198D02*
X13580777Y-12331722D01*
X13580777Y-12331722D02*
X13571253Y-12341246D01*
X13571253Y-12341246D02*
X13561729Y-12360293D01*
X13561729Y-12360293D02*
X13561729Y-12398388D01*
X13561729Y-12398388D02*
X13571253Y-12417436D01*
X13571253Y-12417436D02*
X13580777Y-12426960D01*
X13580777Y-12426960D02*
X13599825Y-12436484D01*
X13599825Y-12436484D02*
X13637920Y-12436484D01*
X13637920Y-12436484D02*
X13656968Y-12426960D01*
X13656968Y-12426960D02*
X13666491Y-12417436D01*
X13666491Y-12417436D02*
X13676015Y-12398388D01*
X13676015Y-12398388D02*
X13676015Y-12360293D01*
X13676015Y-12360293D02*
X13666491Y-12341246D01*
X13666491Y-12341246D02*
X13656968Y-12331722D01*
X13656968Y-12331722D02*
X13637920Y-12322198D01*
X13866491Y-12436484D02*
X13752206Y-12436484D01*
X13809348Y-12436484D02*
X13809348Y-12236484D01*
X13809348Y-12236484D02*
X13790301Y-12265055D01*
X13790301Y-12265055D02*
X13771253Y-12284103D01*
X13771253Y-12284103D02*
X13752206Y-12293627D01*
X14104587Y-12436484D02*
X14104587Y-12236484D01*
X14190301Y-12436484D02*
X14190301Y-12331722D01*
X14190301Y-12331722D02*
X14180777Y-12312674D01*
X14180777Y-12312674D02*
X14161730Y-12303150D01*
X14161730Y-12303150D02*
X14133158Y-12303150D01*
X14133158Y-12303150D02*
X14114110Y-12312674D01*
X14114110Y-12312674D02*
X14104587Y-12322198D01*
X14314110Y-12436484D02*
X14295063Y-12426960D01*
X14295063Y-12426960D02*
X14285539Y-12417436D01*
X14285539Y-12417436D02*
X14276015Y-12398388D01*
X14276015Y-12398388D02*
X14276015Y-12341246D01*
X14276015Y-12341246D02*
X14285539Y-12322198D01*
X14285539Y-12322198D02*
X14295063Y-12312674D01*
X14295063Y-12312674D02*
X14314110Y-12303150D01*
X14314110Y-12303150D02*
X14342682Y-12303150D01*
X14342682Y-12303150D02*
X14361730Y-12312674D01*
X14361730Y-12312674D02*
X14371253Y-12322198D01*
X14371253Y-12322198D02*
X14380777Y-12341246D01*
X14380777Y-12341246D02*
X14380777Y-12398388D01*
X14380777Y-12398388D02*
X14371253Y-12417436D01*
X14371253Y-12417436D02*
X14361730Y-12426960D01*
X14361730Y-12426960D02*
X14342682Y-12436484D01*
X14342682Y-12436484D02*
X14314110Y-12436484D01*
X14495063Y-12436484D02*
X14476015Y-12426960D01*
X14476015Y-12426960D02*
X14466491Y-12407912D01*
X14466491Y-12407912D02*
X14466491Y-12236484D01*
X14647444Y-12426960D02*
X14628396Y-12436484D01*
X14628396Y-12436484D02*
X14590301Y-12436484D01*
X14590301Y-12436484D02*
X14571253Y-12426960D01*
X14571253Y-12426960D02*
X14561730Y-12407912D01*
X14561730Y-12407912D02*
X14561730Y-12331722D01*
X14561730Y-12331722D02*
X14571253Y-12312674D01*
X14571253Y-12312674D02*
X14590301Y-12303150D01*
X14590301Y-12303150D02*
X14628396Y-12303150D01*
X14628396Y-12303150D02*
X14647444Y-12312674D01*
X14647444Y-12312674D02*
X14656968Y-12331722D01*
X14656968Y-12331722D02*
X14656968Y-12350769D01*
X14656968Y-12350769D02*
X14561730Y-12369817D01*
X14733158Y-12426960D02*
X14752206Y-12436484D01*
X14752206Y-12436484D02*
X14790301Y-12436484D01*
X14790301Y-12436484D02*
X14809349Y-12426960D01*
X14809349Y-12426960D02*
X14818872Y-12407912D01*
X14818872Y-12407912D02*
X14818872Y-12398388D01*
X14818872Y-12398388D02*
X14809349Y-12379341D01*
X14809349Y-12379341D02*
X14790301Y-12369817D01*
X14790301Y-12369817D02*
X14761730Y-12369817D01*
X14761730Y-12369817D02*
X14742682Y-12360293D01*
X14742682Y-12360293D02*
X14733158Y-12341246D01*
X14733158Y-12341246D02*
X14733158Y-12331722D01*
X14733158Y-12331722D02*
X14742682Y-12312674D01*
X14742682Y-12312674D02*
X14761730Y-12303150D01*
X14761730Y-12303150D02*
X14790301Y-12303150D01*
X14790301Y-12303150D02*
X14809349Y-12312674D01*
X14885539Y-12512674D02*
X14895063Y-12503150D01*
X14895063Y-12503150D02*
X14914111Y-12474579D01*
X14914111Y-12474579D02*
X14923634Y-12455531D01*
X14923634Y-12455531D02*
X14933158Y-12426960D01*
X14933158Y-12426960D02*
X14942682Y-12379341D01*
X14942682Y-12379341D02*
X14942682Y-12341246D01*
X14942682Y-12341246D02*
X14933158Y-12293627D01*
X14933158Y-12293627D02*
X14923634Y-12265055D01*
X14923634Y-12265055D02*
X14914111Y-12246008D01*
X14914111Y-12246008D02*
X14895063Y-12217436D01*
X14895063Y-12217436D02*
X14885539Y-12207912D01*
D13*
X9920000Y-12609000D02*
G75*
G03*
X9920000Y-12609000I-20000J0D01*
G01*
D11*
X10218872Y-12500484D02*
X10237920Y-12500484D01*
X10237920Y-12500484D02*
X10256967Y-12510008D01*
X10256967Y-12510008D02*
X10266491Y-12519531D01*
X10266491Y-12519531D02*
X10276015Y-12538579D01*
X10276015Y-12538579D02*
X10285539Y-12576674D01*
X10285539Y-12576674D02*
X10285539Y-12624293D01*
X10285539Y-12624293D02*
X10276015Y-12662388D01*
X10276015Y-12662388D02*
X10266491Y-12681436D01*
X10266491Y-12681436D02*
X10256967Y-12690960D01*
X10256967Y-12690960D02*
X10237920Y-12700484D01*
X10237920Y-12700484D02*
X10218872Y-12700484D01*
X10218872Y-12700484D02*
X10199824Y-12690960D01*
X10199824Y-12690960D02*
X10190301Y-12681436D01*
X10190301Y-12681436D02*
X10180777Y-12662388D01*
X10180777Y-12662388D02*
X10171253Y-12624293D01*
X10171253Y-12624293D02*
X10171253Y-12576674D01*
X10171253Y-12576674D02*
X10180777Y-12538579D01*
X10180777Y-12538579D02*
X10190301Y-12519531D01*
X10190301Y-12519531D02*
X10199824Y-12510008D01*
X10199824Y-12510008D02*
X10218872Y-12500484D01*
X10371253Y-12681436D02*
X10380777Y-12690960D01*
X10380777Y-12690960D02*
X10371253Y-12700484D01*
X10371253Y-12700484D02*
X10361729Y-12690960D01*
X10361729Y-12690960D02*
X10371253Y-12681436D01*
X10371253Y-12681436D02*
X10371253Y-12700484D01*
X10552205Y-12567150D02*
X10552205Y-12700484D01*
X10504586Y-12490960D02*
X10456967Y-12633817D01*
X10456967Y-12633817D02*
X10580777Y-12633817D01*
X10695063Y-12500484D02*
X10714110Y-12500484D01*
X10714110Y-12500484D02*
X10733158Y-12510008D01*
X10733158Y-12510008D02*
X10742682Y-12519531D01*
X10742682Y-12519531D02*
X10752205Y-12538579D01*
X10752205Y-12538579D02*
X10761729Y-12576674D01*
X10761729Y-12576674D02*
X10761729Y-12624293D01*
X10761729Y-12624293D02*
X10752205Y-12662388D01*
X10752205Y-12662388D02*
X10742682Y-12681436D01*
X10742682Y-12681436D02*
X10733158Y-12690960D01*
X10733158Y-12690960D02*
X10714110Y-12700484D01*
X10714110Y-12700484D02*
X10695063Y-12700484D01*
X10695063Y-12700484D02*
X10676015Y-12690960D01*
X10676015Y-12690960D02*
X10666491Y-12681436D01*
X10666491Y-12681436D02*
X10656967Y-12662388D01*
X10656967Y-12662388D02*
X10647444Y-12624293D01*
X10647444Y-12624293D02*
X10647444Y-12576674D01*
X10647444Y-12576674D02*
X10656967Y-12538579D01*
X10656967Y-12538579D02*
X10666491Y-12519531D01*
X10666491Y-12519531D02*
X10676015Y-12510008D01*
X10676015Y-12510008D02*
X10695063Y-12500484D01*
X10885539Y-12500484D02*
X10904586Y-12500484D01*
X10904586Y-12500484D02*
X10923634Y-12510008D01*
X10923634Y-12510008D02*
X10933158Y-12519531D01*
X10933158Y-12519531D02*
X10942682Y-12538579D01*
X10942682Y-12538579D02*
X10952205Y-12576674D01*
X10952205Y-12576674D02*
X10952205Y-12624293D01*
X10952205Y-12624293D02*
X10942682Y-12662388D01*
X10942682Y-12662388D02*
X10933158Y-12681436D01*
X10933158Y-12681436D02*
X10923634Y-12690960D01*
X10923634Y-12690960D02*
X10904586Y-12700484D01*
X10904586Y-12700484D02*
X10885539Y-12700484D01*
X10885539Y-12700484D02*
X10866491Y-12690960D01*
X10866491Y-12690960D02*
X10856967Y-12681436D01*
X10856967Y-12681436D02*
X10847444Y-12662388D01*
X10847444Y-12662388D02*
X10837920Y-12624293D01*
X10837920Y-12624293D02*
X10837920Y-12576674D01*
X10837920Y-12576674D02*
X10847444Y-12538579D01*
X10847444Y-12538579D02*
X10856967Y-12519531D01*
X10856967Y-12519531D02*
X10866491Y-12510008D01*
X10866491Y-12510008D02*
X10885539Y-12500484D01*
X11037920Y-12700484D02*
X11037920Y-12567150D01*
X11037920Y-12586198D02*
X11047444Y-12576674D01*
X11047444Y-12576674D02*
X11066491Y-12567150D01*
X11066491Y-12567150D02*
X11095063Y-12567150D01*
X11095063Y-12567150D02*
X11114110Y-12576674D01*
X11114110Y-12576674D02*
X11123634Y-12595722D01*
X11123634Y-12595722D02*
X11123634Y-12700484D01*
X11123634Y-12595722D02*
X11133158Y-12576674D01*
X11133158Y-12576674D02*
X11152205Y-12567150D01*
X11152205Y-12567150D02*
X11180777Y-12567150D01*
X11180777Y-12567150D02*
X11199824Y-12576674D01*
X11199824Y-12576674D02*
X11209348Y-12595722D01*
X11209348Y-12595722D02*
X11209348Y-12700484D01*
X11304586Y-12700484D02*
X11304586Y-12567150D01*
X11304586Y-12586198D02*
X11314110Y-12576674D01*
X11314110Y-12576674D02*
X11333158Y-12567150D01*
X11333158Y-12567150D02*
X11361729Y-12567150D01*
X11361729Y-12567150D02*
X11380777Y-12576674D01*
X11380777Y-12576674D02*
X11390301Y-12595722D01*
X11390301Y-12595722D02*
X11390301Y-12700484D01*
X11390301Y-12595722D02*
X11399824Y-12576674D01*
X11399824Y-12576674D02*
X11418872Y-12567150D01*
X11418872Y-12567150D02*
X11447443Y-12567150D01*
X11447443Y-12567150D02*
X11466491Y-12576674D01*
X11466491Y-12576674D02*
X11476015Y-12595722D01*
X11476015Y-12595722D02*
X11476015Y-12700484D01*
X11866491Y-12490960D02*
X11695063Y-12748103D01*
X12123634Y-12500484D02*
X12142682Y-12500484D01*
X12142682Y-12500484D02*
X12161729Y-12510008D01*
X12161729Y-12510008D02*
X12171253Y-12519531D01*
X12171253Y-12519531D02*
X12180777Y-12538579D01*
X12180777Y-12538579D02*
X12190301Y-12576674D01*
X12190301Y-12576674D02*
X12190301Y-12624293D01*
X12190301Y-12624293D02*
X12180777Y-12662388D01*
X12180777Y-12662388D02*
X12171253Y-12681436D01*
X12171253Y-12681436D02*
X12161729Y-12690960D01*
X12161729Y-12690960D02*
X12142682Y-12700484D01*
X12142682Y-12700484D02*
X12123634Y-12700484D01*
X12123634Y-12700484D02*
X12104586Y-12690960D01*
X12104586Y-12690960D02*
X12095063Y-12681436D01*
X12095063Y-12681436D02*
X12085539Y-12662388D01*
X12085539Y-12662388D02*
X12076015Y-12624293D01*
X12076015Y-12624293D02*
X12076015Y-12576674D01*
X12076015Y-12576674D02*
X12085539Y-12538579D01*
X12085539Y-12538579D02*
X12095063Y-12519531D01*
X12095063Y-12519531D02*
X12104586Y-12510008D01*
X12104586Y-12510008D02*
X12123634Y-12500484D01*
X12276015Y-12681436D02*
X12285539Y-12690960D01*
X12285539Y-12690960D02*
X12276015Y-12700484D01*
X12276015Y-12700484D02*
X12266491Y-12690960D01*
X12266491Y-12690960D02*
X12276015Y-12681436D01*
X12276015Y-12681436D02*
X12276015Y-12700484D01*
X12409348Y-12500484D02*
X12428396Y-12500484D01*
X12428396Y-12500484D02*
X12447444Y-12510008D01*
X12447444Y-12510008D02*
X12456967Y-12519531D01*
X12456967Y-12519531D02*
X12466491Y-12538579D01*
X12466491Y-12538579D02*
X12476015Y-12576674D01*
X12476015Y-12576674D02*
X12476015Y-12624293D01*
X12476015Y-12624293D02*
X12466491Y-12662388D01*
X12466491Y-12662388D02*
X12456967Y-12681436D01*
X12456967Y-12681436D02*
X12447444Y-12690960D01*
X12447444Y-12690960D02*
X12428396Y-12700484D01*
X12428396Y-12700484D02*
X12409348Y-12700484D01*
X12409348Y-12700484D02*
X12390301Y-12690960D01*
X12390301Y-12690960D02*
X12380777Y-12681436D01*
X12380777Y-12681436D02*
X12371253Y-12662388D01*
X12371253Y-12662388D02*
X12361729Y-12624293D01*
X12361729Y-12624293D02*
X12361729Y-12576674D01*
X12361729Y-12576674D02*
X12371253Y-12538579D01*
X12371253Y-12538579D02*
X12380777Y-12519531D01*
X12380777Y-12519531D02*
X12390301Y-12510008D01*
X12390301Y-12510008D02*
X12409348Y-12500484D01*
X12666491Y-12700484D02*
X12552206Y-12700484D01*
X12609348Y-12700484D02*
X12609348Y-12500484D01*
X12609348Y-12500484D02*
X12590301Y-12529055D01*
X12590301Y-12529055D02*
X12571253Y-12548103D01*
X12571253Y-12548103D02*
X12552206Y-12557627D01*
X12847444Y-12500484D02*
X12752206Y-12500484D01*
X12752206Y-12500484D02*
X12742682Y-12595722D01*
X12742682Y-12595722D02*
X12752206Y-12586198D01*
X12752206Y-12586198D02*
X12771253Y-12576674D01*
X12771253Y-12576674D02*
X12818872Y-12576674D01*
X12818872Y-12576674D02*
X12837920Y-12586198D01*
X12837920Y-12586198D02*
X12847444Y-12595722D01*
X12847444Y-12595722D02*
X12856967Y-12614769D01*
X12856967Y-12614769D02*
X12856967Y-12662388D01*
X12856967Y-12662388D02*
X12847444Y-12681436D01*
X12847444Y-12681436D02*
X12837920Y-12690960D01*
X12837920Y-12690960D02*
X12818872Y-12700484D01*
X12818872Y-12700484D02*
X12771253Y-12700484D01*
X12771253Y-12700484D02*
X12752206Y-12690960D01*
X12752206Y-12690960D02*
X12742682Y-12681436D01*
X12923634Y-12500484D02*
X13056967Y-12500484D01*
X13056967Y-12500484D02*
X12971253Y-12700484D01*
X13123634Y-12500484D02*
X13123634Y-12538579D01*
X13199825Y-12500484D02*
X13199825Y-12538579D01*
X13495063Y-12776674D02*
X13485539Y-12767150D01*
X13485539Y-12767150D02*
X13466491Y-12738579D01*
X13466491Y-12738579D02*
X13456968Y-12719531D01*
X13456968Y-12719531D02*
X13447444Y-12690960D01*
X13447444Y-12690960D02*
X13437920Y-12643341D01*
X13437920Y-12643341D02*
X13437920Y-12605246D01*
X13437920Y-12605246D02*
X13447444Y-12557627D01*
X13447444Y-12557627D02*
X13456968Y-12529055D01*
X13456968Y-12529055D02*
X13466491Y-12510008D01*
X13466491Y-12510008D02*
X13485539Y-12481436D01*
X13485539Y-12481436D02*
X13495063Y-12471912D01*
X13599825Y-12586198D02*
X13580777Y-12576674D01*
X13580777Y-12576674D02*
X13571253Y-12567150D01*
X13571253Y-12567150D02*
X13561729Y-12548103D01*
X13561729Y-12548103D02*
X13561729Y-12538579D01*
X13561729Y-12538579D02*
X13571253Y-12519531D01*
X13571253Y-12519531D02*
X13580777Y-12510008D01*
X13580777Y-12510008D02*
X13599825Y-12500484D01*
X13599825Y-12500484D02*
X13637920Y-12500484D01*
X13637920Y-12500484D02*
X13656968Y-12510008D01*
X13656968Y-12510008D02*
X13666491Y-12519531D01*
X13666491Y-12519531D02*
X13676015Y-12538579D01*
X13676015Y-12538579D02*
X13676015Y-12548103D01*
X13676015Y-12548103D02*
X13666491Y-12567150D01*
X13666491Y-12567150D02*
X13656968Y-12576674D01*
X13656968Y-12576674D02*
X13637920Y-12586198D01*
X13637920Y-12586198D02*
X13599825Y-12586198D01*
X13599825Y-12586198D02*
X13580777Y-12595722D01*
X13580777Y-12595722D02*
X13571253Y-12605246D01*
X13571253Y-12605246D02*
X13561729Y-12624293D01*
X13561729Y-12624293D02*
X13561729Y-12662388D01*
X13561729Y-12662388D02*
X13571253Y-12681436D01*
X13571253Y-12681436D02*
X13580777Y-12690960D01*
X13580777Y-12690960D02*
X13599825Y-12700484D01*
X13599825Y-12700484D02*
X13637920Y-12700484D01*
X13637920Y-12700484D02*
X13656968Y-12690960D01*
X13656968Y-12690960D02*
X13666491Y-12681436D01*
X13666491Y-12681436D02*
X13676015Y-12662388D01*
X13676015Y-12662388D02*
X13676015Y-12624293D01*
X13676015Y-12624293D02*
X13666491Y-12605246D01*
X13666491Y-12605246D02*
X13656968Y-12595722D01*
X13656968Y-12595722D02*
X13637920Y-12586198D01*
X13914110Y-12700484D02*
X13914110Y-12500484D01*
X13999825Y-12700484D02*
X13999825Y-12595722D01*
X13999825Y-12595722D02*
X13990301Y-12576674D01*
X13990301Y-12576674D02*
X13971253Y-12567150D01*
X13971253Y-12567150D02*
X13942682Y-12567150D01*
X13942682Y-12567150D02*
X13923634Y-12576674D01*
X13923634Y-12576674D02*
X13914110Y-12586198D01*
X14123634Y-12700484D02*
X14104587Y-12690960D01*
X14104587Y-12690960D02*
X14095063Y-12681436D01*
X14095063Y-12681436D02*
X14085539Y-12662388D01*
X14085539Y-12662388D02*
X14085539Y-12605246D01*
X14085539Y-12605246D02*
X14095063Y-12586198D01*
X14095063Y-12586198D02*
X14104587Y-12576674D01*
X14104587Y-12576674D02*
X14123634Y-12567150D01*
X14123634Y-12567150D02*
X14152206Y-12567150D01*
X14152206Y-12567150D02*
X14171253Y-12576674D01*
X14171253Y-12576674D02*
X14180777Y-12586198D01*
X14180777Y-12586198D02*
X14190301Y-12605246D01*
X14190301Y-12605246D02*
X14190301Y-12662388D01*
X14190301Y-12662388D02*
X14180777Y-12681436D01*
X14180777Y-12681436D02*
X14171253Y-12690960D01*
X14171253Y-12690960D02*
X14152206Y-12700484D01*
X14152206Y-12700484D02*
X14123634Y-12700484D01*
X14304587Y-12700484D02*
X14285539Y-12690960D01*
X14285539Y-12690960D02*
X14276015Y-12671912D01*
X14276015Y-12671912D02*
X14276015Y-12500484D01*
X14456968Y-12690960D02*
X14437920Y-12700484D01*
X14437920Y-12700484D02*
X14399825Y-12700484D01*
X14399825Y-12700484D02*
X14380777Y-12690960D01*
X14380777Y-12690960D02*
X14371253Y-12671912D01*
X14371253Y-12671912D02*
X14371253Y-12595722D01*
X14371253Y-12595722D02*
X14380777Y-12576674D01*
X14380777Y-12576674D02*
X14399825Y-12567150D01*
X14399825Y-12567150D02*
X14437920Y-12567150D01*
X14437920Y-12567150D02*
X14456968Y-12576674D01*
X14456968Y-12576674D02*
X14466491Y-12595722D01*
X14466491Y-12595722D02*
X14466491Y-12614769D01*
X14466491Y-12614769D02*
X14371253Y-12633817D01*
X14542682Y-12690960D02*
X14561730Y-12700484D01*
X14561730Y-12700484D02*
X14599825Y-12700484D01*
X14599825Y-12700484D02*
X14618872Y-12690960D01*
X14618872Y-12690960D02*
X14628396Y-12671912D01*
X14628396Y-12671912D02*
X14628396Y-12662388D01*
X14628396Y-12662388D02*
X14618872Y-12643341D01*
X14618872Y-12643341D02*
X14599825Y-12633817D01*
X14599825Y-12633817D02*
X14571253Y-12633817D01*
X14571253Y-12633817D02*
X14552206Y-12624293D01*
X14552206Y-12624293D02*
X14542682Y-12605246D01*
X14542682Y-12605246D02*
X14542682Y-12595722D01*
X14542682Y-12595722D02*
X14552206Y-12576674D01*
X14552206Y-12576674D02*
X14571253Y-12567150D01*
X14571253Y-12567150D02*
X14599825Y-12567150D01*
X14599825Y-12567150D02*
X14618872Y-12576674D01*
X14695063Y-12776674D02*
X14704587Y-12767150D01*
X14704587Y-12767150D02*
X14723634Y-12738579D01*
X14723634Y-12738579D02*
X14733158Y-12719531D01*
X14733158Y-12719531D02*
X14742682Y-12690960D01*
X14742682Y-12690960D02*
X14752206Y-12643341D01*
X14752206Y-12643341D02*
X14752206Y-12605246D01*
X14752206Y-12605246D02*
X14742682Y-12557627D01*
X14742682Y-12557627D02*
X14733158Y-12529055D01*
X14733158Y-12529055D02*
X14723634Y-12510008D01*
X14723634Y-12510008D02*
X14704587Y-12481436D01*
X14704587Y-12481436D02*
X14695063Y-12471912D01*
D14*
X9885000Y-12838000D02*
X9885000Y-12908000D01*
X9850000Y-12873000D02*
X9920000Y-12873000D01*
D11*
X10218872Y-12764484D02*
X10237920Y-12764484D01*
X10237920Y-12764484D02*
X10256967Y-12774008D01*
X10256967Y-12774008D02*
X10266491Y-12783531D01*
X10266491Y-12783531D02*
X10276015Y-12802579D01*
X10276015Y-12802579D02*
X10285539Y-12840674D01*
X10285539Y-12840674D02*
X10285539Y-12888293D01*
X10285539Y-12888293D02*
X10276015Y-12926388D01*
X10276015Y-12926388D02*
X10266491Y-12945436D01*
X10266491Y-12945436D02*
X10256967Y-12954960D01*
X10256967Y-12954960D02*
X10237920Y-12964484D01*
X10237920Y-12964484D02*
X10218872Y-12964484D01*
X10218872Y-12964484D02*
X10199824Y-12954960D01*
X10199824Y-12954960D02*
X10190301Y-12945436D01*
X10190301Y-12945436D02*
X10180777Y-12926388D01*
X10180777Y-12926388D02*
X10171253Y-12888293D01*
X10171253Y-12888293D02*
X10171253Y-12840674D01*
X10171253Y-12840674D02*
X10180777Y-12802579D01*
X10180777Y-12802579D02*
X10190301Y-12783531D01*
X10190301Y-12783531D02*
X10199824Y-12774008D01*
X10199824Y-12774008D02*
X10218872Y-12764484D01*
X10371253Y-12945436D02*
X10380777Y-12954960D01*
X10380777Y-12954960D02*
X10371253Y-12964484D01*
X10371253Y-12964484D02*
X10361729Y-12954960D01*
X10361729Y-12954960D02*
X10371253Y-12945436D01*
X10371253Y-12945436D02*
X10371253Y-12964484D01*
X10447444Y-12764484D02*
X10580777Y-12764484D01*
X10580777Y-12764484D02*
X10495063Y-12964484D01*
X10695063Y-12764484D02*
X10714110Y-12764484D01*
X10714110Y-12764484D02*
X10733158Y-12774008D01*
X10733158Y-12774008D02*
X10742682Y-12783531D01*
X10742682Y-12783531D02*
X10752205Y-12802579D01*
X10752205Y-12802579D02*
X10761729Y-12840674D01*
X10761729Y-12840674D02*
X10761729Y-12888293D01*
X10761729Y-12888293D02*
X10752205Y-12926388D01*
X10752205Y-12926388D02*
X10742682Y-12945436D01*
X10742682Y-12945436D02*
X10733158Y-12954960D01*
X10733158Y-12954960D02*
X10714110Y-12964484D01*
X10714110Y-12964484D02*
X10695063Y-12964484D01*
X10695063Y-12964484D02*
X10676015Y-12954960D01*
X10676015Y-12954960D02*
X10666491Y-12945436D01*
X10666491Y-12945436D02*
X10656967Y-12926388D01*
X10656967Y-12926388D02*
X10647444Y-12888293D01*
X10647444Y-12888293D02*
X10647444Y-12840674D01*
X10647444Y-12840674D02*
X10656967Y-12802579D01*
X10656967Y-12802579D02*
X10666491Y-12783531D01*
X10666491Y-12783531D02*
X10676015Y-12774008D01*
X10676015Y-12774008D02*
X10695063Y-12764484D01*
X10885539Y-12764484D02*
X10904586Y-12764484D01*
X10904586Y-12764484D02*
X10923634Y-12774008D01*
X10923634Y-12774008D02*
X10933158Y-12783531D01*
X10933158Y-12783531D02*
X10942682Y-12802579D01*
X10942682Y-12802579D02*
X10952205Y-12840674D01*
X10952205Y-12840674D02*
X10952205Y-12888293D01*
X10952205Y-12888293D02*
X10942682Y-12926388D01*
X10942682Y-12926388D02*
X10933158Y-12945436D01*
X10933158Y-12945436D02*
X10923634Y-12954960D01*
X10923634Y-12954960D02*
X10904586Y-12964484D01*
X10904586Y-12964484D02*
X10885539Y-12964484D01*
X10885539Y-12964484D02*
X10866491Y-12954960D01*
X10866491Y-12954960D02*
X10856967Y-12945436D01*
X10856967Y-12945436D02*
X10847444Y-12926388D01*
X10847444Y-12926388D02*
X10837920Y-12888293D01*
X10837920Y-12888293D02*
X10837920Y-12840674D01*
X10837920Y-12840674D02*
X10847444Y-12802579D01*
X10847444Y-12802579D02*
X10856967Y-12783531D01*
X10856967Y-12783531D02*
X10866491Y-12774008D01*
X10866491Y-12774008D02*
X10885539Y-12764484D01*
X11037920Y-12964484D02*
X11037920Y-12831150D01*
X11037920Y-12850198D02*
X11047444Y-12840674D01*
X11047444Y-12840674D02*
X11066491Y-12831150D01*
X11066491Y-12831150D02*
X11095063Y-12831150D01*
X11095063Y-12831150D02*
X11114110Y-12840674D01*
X11114110Y-12840674D02*
X11123634Y-12859722D01*
X11123634Y-12859722D02*
X11123634Y-12964484D01*
X11123634Y-12859722D02*
X11133158Y-12840674D01*
X11133158Y-12840674D02*
X11152205Y-12831150D01*
X11152205Y-12831150D02*
X11180777Y-12831150D01*
X11180777Y-12831150D02*
X11199824Y-12840674D01*
X11199824Y-12840674D02*
X11209348Y-12859722D01*
X11209348Y-12859722D02*
X11209348Y-12964484D01*
X11304586Y-12964484D02*
X11304586Y-12831150D01*
X11304586Y-12850198D02*
X11314110Y-12840674D01*
X11314110Y-12840674D02*
X11333158Y-12831150D01*
X11333158Y-12831150D02*
X11361729Y-12831150D01*
X11361729Y-12831150D02*
X11380777Y-12840674D01*
X11380777Y-12840674D02*
X11390301Y-12859722D01*
X11390301Y-12859722D02*
X11390301Y-12964484D01*
X11390301Y-12859722D02*
X11399824Y-12840674D01*
X11399824Y-12840674D02*
X11418872Y-12831150D01*
X11418872Y-12831150D02*
X11447443Y-12831150D01*
X11447443Y-12831150D02*
X11466491Y-12840674D01*
X11466491Y-12840674D02*
X11476015Y-12859722D01*
X11476015Y-12859722D02*
X11476015Y-12964484D01*
X11866491Y-12754960D02*
X11695063Y-13012103D01*
X12123634Y-12764484D02*
X12142682Y-12764484D01*
X12142682Y-12764484D02*
X12161729Y-12774008D01*
X12161729Y-12774008D02*
X12171253Y-12783531D01*
X12171253Y-12783531D02*
X12180777Y-12802579D01*
X12180777Y-12802579D02*
X12190301Y-12840674D01*
X12190301Y-12840674D02*
X12190301Y-12888293D01*
X12190301Y-12888293D02*
X12180777Y-12926388D01*
X12180777Y-12926388D02*
X12171253Y-12945436D01*
X12171253Y-12945436D02*
X12161729Y-12954960D01*
X12161729Y-12954960D02*
X12142682Y-12964484D01*
X12142682Y-12964484D02*
X12123634Y-12964484D01*
X12123634Y-12964484D02*
X12104586Y-12954960D01*
X12104586Y-12954960D02*
X12095063Y-12945436D01*
X12095063Y-12945436D02*
X12085539Y-12926388D01*
X12085539Y-12926388D02*
X12076015Y-12888293D01*
X12076015Y-12888293D02*
X12076015Y-12840674D01*
X12076015Y-12840674D02*
X12085539Y-12802579D01*
X12085539Y-12802579D02*
X12095063Y-12783531D01*
X12095063Y-12783531D02*
X12104586Y-12774008D01*
X12104586Y-12774008D02*
X12123634Y-12764484D01*
X12276015Y-12945436D02*
X12285539Y-12954960D01*
X12285539Y-12954960D02*
X12276015Y-12964484D01*
X12276015Y-12964484D02*
X12266491Y-12954960D01*
X12266491Y-12954960D02*
X12276015Y-12945436D01*
X12276015Y-12945436D02*
X12276015Y-12964484D01*
X12409348Y-12764484D02*
X12428396Y-12764484D01*
X12428396Y-12764484D02*
X12447444Y-12774008D01*
X12447444Y-12774008D02*
X12456967Y-12783531D01*
X12456967Y-12783531D02*
X12466491Y-12802579D01*
X12466491Y-12802579D02*
X12476015Y-12840674D01*
X12476015Y-12840674D02*
X12476015Y-12888293D01*
X12476015Y-12888293D02*
X12466491Y-12926388D01*
X12466491Y-12926388D02*
X12456967Y-12945436D01*
X12456967Y-12945436D02*
X12447444Y-12954960D01*
X12447444Y-12954960D02*
X12428396Y-12964484D01*
X12428396Y-12964484D02*
X12409348Y-12964484D01*
X12409348Y-12964484D02*
X12390301Y-12954960D01*
X12390301Y-12954960D02*
X12380777Y-12945436D01*
X12380777Y-12945436D02*
X12371253Y-12926388D01*
X12371253Y-12926388D02*
X12361729Y-12888293D01*
X12361729Y-12888293D02*
X12361729Y-12840674D01*
X12361729Y-12840674D02*
X12371253Y-12802579D01*
X12371253Y-12802579D02*
X12380777Y-12783531D01*
X12380777Y-12783531D02*
X12390301Y-12774008D01*
X12390301Y-12774008D02*
X12409348Y-12764484D01*
X12552206Y-12783531D02*
X12561729Y-12774008D01*
X12561729Y-12774008D02*
X12580777Y-12764484D01*
X12580777Y-12764484D02*
X12628396Y-12764484D01*
X12628396Y-12764484D02*
X12647444Y-12774008D01*
X12647444Y-12774008D02*
X12656967Y-12783531D01*
X12656967Y-12783531D02*
X12666491Y-12802579D01*
X12666491Y-12802579D02*
X12666491Y-12821627D01*
X12666491Y-12821627D02*
X12656967Y-12850198D01*
X12656967Y-12850198D02*
X12542682Y-12964484D01*
X12542682Y-12964484D02*
X12666491Y-12964484D01*
X12733158Y-12764484D02*
X12866491Y-12764484D01*
X12866491Y-12764484D02*
X12780777Y-12964484D01*
X13028396Y-12764484D02*
X12990301Y-12764484D01*
X12990301Y-12764484D02*
X12971253Y-12774008D01*
X12971253Y-12774008D02*
X12961729Y-12783531D01*
X12961729Y-12783531D02*
X12942682Y-12812103D01*
X12942682Y-12812103D02*
X12933158Y-12850198D01*
X12933158Y-12850198D02*
X12933158Y-12926388D01*
X12933158Y-12926388D02*
X12942682Y-12945436D01*
X12942682Y-12945436D02*
X12952206Y-12954960D01*
X12952206Y-12954960D02*
X12971253Y-12964484D01*
X12971253Y-12964484D02*
X13009348Y-12964484D01*
X13009348Y-12964484D02*
X13028396Y-12954960D01*
X13028396Y-12954960D02*
X13037920Y-12945436D01*
X13037920Y-12945436D02*
X13047444Y-12926388D01*
X13047444Y-12926388D02*
X13047444Y-12878769D01*
X13047444Y-12878769D02*
X13037920Y-12859722D01*
X13037920Y-12859722D02*
X13028396Y-12850198D01*
X13028396Y-12850198D02*
X13009348Y-12840674D01*
X13009348Y-12840674D02*
X12971253Y-12840674D01*
X12971253Y-12840674D02*
X12952206Y-12850198D01*
X12952206Y-12850198D02*
X12942682Y-12859722D01*
X12942682Y-12859722D02*
X12933158Y-12878769D01*
X13123634Y-12764484D02*
X13123634Y-12802579D01*
X13199825Y-12764484D02*
X13199825Y-12802579D01*
X13495063Y-13040674D02*
X13485539Y-13031150D01*
X13485539Y-13031150D02*
X13466491Y-13002579D01*
X13466491Y-13002579D02*
X13456968Y-12983531D01*
X13456968Y-12983531D02*
X13447444Y-12954960D01*
X13447444Y-12954960D02*
X13437920Y-12907341D01*
X13437920Y-12907341D02*
X13437920Y-12869246D01*
X13437920Y-12869246D02*
X13447444Y-12821627D01*
X13447444Y-12821627D02*
X13456968Y-12793055D01*
X13456968Y-12793055D02*
X13466491Y-12774008D01*
X13466491Y-12774008D02*
X13485539Y-12745436D01*
X13485539Y-12745436D02*
X13495063Y-12735912D01*
X13552206Y-12764484D02*
X13676015Y-12764484D01*
X13676015Y-12764484D02*
X13609348Y-12840674D01*
X13609348Y-12840674D02*
X13637920Y-12840674D01*
X13637920Y-12840674D02*
X13656968Y-12850198D01*
X13656968Y-12850198D02*
X13666491Y-12859722D01*
X13666491Y-12859722D02*
X13676015Y-12878769D01*
X13676015Y-12878769D02*
X13676015Y-12926388D01*
X13676015Y-12926388D02*
X13666491Y-12945436D01*
X13666491Y-12945436D02*
X13656968Y-12954960D01*
X13656968Y-12954960D02*
X13637920Y-12964484D01*
X13637920Y-12964484D02*
X13580777Y-12964484D01*
X13580777Y-12964484D02*
X13561729Y-12954960D01*
X13561729Y-12954960D02*
X13552206Y-12945436D01*
X13847444Y-12831150D02*
X13847444Y-12964484D01*
X13799825Y-12754960D02*
X13752206Y-12897817D01*
X13752206Y-12897817D02*
X13876015Y-12897817D01*
X14104587Y-12964484D02*
X14104587Y-12764484D01*
X14190301Y-12964484D02*
X14190301Y-12859722D01*
X14190301Y-12859722D02*
X14180777Y-12840674D01*
X14180777Y-12840674D02*
X14161730Y-12831150D01*
X14161730Y-12831150D02*
X14133158Y-12831150D01*
X14133158Y-12831150D02*
X14114110Y-12840674D01*
X14114110Y-12840674D02*
X14104587Y-12850198D01*
X14314110Y-12964484D02*
X14295063Y-12954960D01*
X14295063Y-12954960D02*
X14285539Y-12945436D01*
X14285539Y-12945436D02*
X14276015Y-12926388D01*
X14276015Y-12926388D02*
X14276015Y-12869246D01*
X14276015Y-12869246D02*
X14285539Y-12850198D01*
X14285539Y-12850198D02*
X14295063Y-12840674D01*
X14295063Y-12840674D02*
X14314110Y-12831150D01*
X14314110Y-12831150D02*
X14342682Y-12831150D01*
X14342682Y-12831150D02*
X14361730Y-12840674D01*
X14361730Y-12840674D02*
X14371253Y-12850198D01*
X14371253Y-12850198D02*
X14380777Y-12869246D01*
X14380777Y-12869246D02*
X14380777Y-12926388D01*
X14380777Y-12926388D02*
X14371253Y-12945436D01*
X14371253Y-12945436D02*
X14361730Y-12954960D01*
X14361730Y-12954960D02*
X14342682Y-12964484D01*
X14342682Y-12964484D02*
X14314110Y-12964484D01*
X14495063Y-12964484D02*
X14476015Y-12954960D01*
X14476015Y-12954960D02*
X14466491Y-12935912D01*
X14466491Y-12935912D02*
X14466491Y-12764484D01*
X14647444Y-12954960D02*
X14628396Y-12964484D01*
X14628396Y-12964484D02*
X14590301Y-12964484D01*
X14590301Y-12964484D02*
X14571253Y-12954960D01*
X14571253Y-12954960D02*
X14561730Y-12935912D01*
X14561730Y-12935912D02*
X14561730Y-12859722D01*
X14561730Y-12859722D02*
X14571253Y-12840674D01*
X14571253Y-12840674D02*
X14590301Y-12831150D01*
X14590301Y-12831150D02*
X14628396Y-12831150D01*
X14628396Y-12831150D02*
X14647444Y-12840674D01*
X14647444Y-12840674D02*
X14656968Y-12859722D01*
X14656968Y-12859722D02*
X14656968Y-12878769D01*
X14656968Y-12878769D02*
X14561730Y-12897817D01*
X14733158Y-12954960D02*
X14752206Y-12964484D01*
X14752206Y-12964484D02*
X14790301Y-12964484D01*
X14790301Y-12964484D02*
X14809349Y-12954960D01*
X14809349Y-12954960D02*
X14818872Y-12935912D01*
X14818872Y-12935912D02*
X14818872Y-12926388D01*
X14818872Y-12926388D02*
X14809349Y-12907341D01*
X14809349Y-12907341D02*
X14790301Y-12897817D01*
X14790301Y-12897817D02*
X14761730Y-12897817D01*
X14761730Y-12897817D02*
X14742682Y-12888293D01*
X14742682Y-12888293D02*
X14733158Y-12869246D01*
X14733158Y-12869246D02*
X14733158Y-12859722D01*
X14733158Y-12859722D02*
X14742682Y-12840674D01*
X14742682Y-12840674D02*
X14761730Y-12831150D01*
X14761730Y-12831150D02*
X14790301Y-12831150D01*
X14790301Y-12831150D02*
X14809349Y-12840674D01*
X14885539Y-13040674D02*
X14895063Y-13031150D01*
X14895063Y-13031150D02*
X14914111Y-13002579D01*
X14914111Y-13002579D02*
X14923634Y-12983531D01*
X14923634Y-12983531D02*
X14933158Y-12954960D01*
X14933158Y-12954960D02*
X14942682Y-12907341D01*
X14942682Y-12907341D02*
X14942682Y-12869246D01*
X14942682Y-12869246D02*
X14933158Y-12821627D01*
X14933158Y-12821627D02*
X14923634Y-12793055D01*
X14923634Y-12793055D02*
X14914111Y-12774008D01*
X14914111Y-12774008D02*
X14895063Y-12745436D01*
X14895063Y-12745436D02*
X14885539Y-12735912D01*
D15*
X9908285Y-13165284D02*
X9908285Y-13108715D01*
X9851716Y-13108715D01*
X9851716Y-13165284D01*
X9908285Y-13165284D01*
D11*
X10218872Y-13028484D02*
X10237920Y-13028484D01*
X10237920Y-13028484D02*
X10256967Y-13038008D01*
X10256967Y-13038008D02*
X10266491Y-13047531D01*
X10266491Y-13047531D02*
X10276015Y-13066579D01*
X10276015Y-13066579D02*
X10285539Y-13104674D01*
X10285539Y-13104674D02*
X10285539Y-13152293D01*
X10285539Y-13152293D02*
X10276015Y-13190388D01*
X10276015Y-13190388D02*
X10266491Y-13209436D01*
X10266491Y-13209436D02*
X10256967Y-13218960D01*
X10256967Y-13218960D02*
X10237920Y-13228484D01*
X10237920Y-13228484D02*
X10218872Y-13228484D01*
X10218872Y-13228484D02*
X10199824Y-13218960D01*
X10199824Y-13218960D02*
X10190301Y-13209436D01*
X10190301Y-13209436D02*
X10180777Y-13190388D01*
X10180777Y-13190388D02*
X10171253Y-13152293D01*
X10171253Y-13152293D02*
X10171253Y-13104674D01*
X10171253Y-13104674D02*
X10180777Y-13066579D01*
X10180777Y-13066579D02*
X10190301Y-13047531D01*
X10190301Y-13047531D02*
X10199824Y-13038008D01*
X10199824Y-13038008D02*
X10218872Y-13028484D01*
X10371253Y-13209436D02*
X10380777Y-13218960D01*
X10380777Y-13218960D02*
X10371253Y-13228484D01*
X10371253Y-13228484D02*
X10361729Y-13218960D01*
X10361729Y-13218960D02*
X10371253Y-13209436D01*
X10371253Y-13209436D02*
X10371253Y-13228484D01*
X10495063Y-13114198D02*
X10476015Y-13104674D01*
X10476015Y-13104674D02*
X10466491Y-13095150D01*
X10466491Y-13095150D02*
X10456967Y-13076103D01*
X10456967Y-13076103D02*
X10456967Y-13066579D01*
X10456967Y-13066579D02*
X10466491Y-13047531D01*
X10466491Y-13047531D02*
X10476015Y-13038008D01*
X10476015Y-13038008D02*
X10495063Y-13028484D01*
X10495063Y-13028484D02*
X10533158Y-13028484D01*
X10533158Y-13028484D02*
X10552205Y-13038008D01*
X10552205Y-13038008D02*
X10561729Y-13047531D01*
X10561729Y-13047531D02*
X10571253Y-13066579D01*
X10571253Y-13066579D02*
X10571253Y-13076103D01*
X10571253Y-13076103D02*
X10561729Y-13095150D01*
X10561729Y-13095150D02*
X10552205Y-13104674D01*
X10552205Y-13104674D02*
X10533158Y-13114198D01*
X10533158Y-13114198D02*
X10495063Y-13114198D01*
X10495063Y-13114198D02*
X10476015Y-13123722D01*
X10476015Y-13123722D02*
X10466491Y-13133246D01*
X10466491Y-13133246D02*
X10456967Y-13152293D01*
X10456967Y-13152293D02*
X10456967Y-13190388D01*
X10456967Y-13190388D02*
X10466491Y-13209436D01*
X10466491Y-13209436D02*
X10476015Y-13218960D01*
X10476015Y-13218960D02*
X10495063Y-13228484D01*
X10495063Y-13228484D02*
X10533158Y-13228484D01*
X10533158Y-13228484D02*
X10552205Y-13218960D01*
X10552205Y-13218960D02*
X10561729Y-13209436D01*
X10561729Y-13209436D02*
X10571253Y-13190388D01*
X10571253Y-13190388D02*
X10571253Y-13152293D01*
X10571253Y-13152293D02*
X10561729Y-13133246D01*
X10561729Y-13133246D02*
X10552205Y-13123722D01*
X10552205Y-13123722D02*
X10533158Y-13114198D01*
X10695063Y-13028484D02*
X10714110Y-13028484D01*
X10714110Y-13028484D02*
X10733158Y-13038008D01*
X10733158Y-13038008D02*
X10742682Y-13047531D01*
X10742682Y-13047531D02*
X10752205Y-13066579D01*
X10752205Y-13066579D02*
X10761729Y-13104674D01*
X10761729Y-13104674D02*
X10761729Y-13152293D01*
X10761729Y-13152293D02*
X10752205Y-13190388D01*
X10752205Y-13190388D02*
X10742682Y-13209436D01*
X10742682Y-13209436D02*
X10733158Y-13218960D01*
X10733158Y-13218960D02*
X10714110Y-13228484D01*
X10714110Y-13228484D02*
X10695063Y-13228484D01*
X10695063Y-13228484D02*
X10676015Y-13218960D01*
X10676015Y-13218960D02*
X10666491Y-13209436D01*
X10666491Y-13209436D02*
X10656967Y-13190388D01*
X10656967Y-13190388D02*
X10647444Y-13152293D01*
X10647444Y-13152293D02*
X10647444Y-13104674D01*
X10647444Y-13104674D02*
X10656967Y-13066579D01*
X10656967Y-13066579D02*
X10666491Y-13047531D01*
X10666491Y-13047531D02*
X10676015Y-13038008D01*
X10676015Y-13038008D02*
X10695063Y-13028484D01*
X10885539Y-13028484D02*
X10904586Y-13028484D01*
X10904586Y-13028484D02*
X10923634Y-13038008D01*
X10923634Y-13038008D02*
X10933158Y-13047531D01*
X10933158Y-13047531D02*
X10942682Y-13066579D01*
X10942682Y-13066579D02*
X10952205Y-13104674D01*
X10952205Y-13104674D02*
X10952205Y-13152293D01*
X10952205Y-13152293D02*
X10942682Y-13190388D01*
X10942682Y-13190388D02*
X10933158Y-13209436D01*
X10933158Y-13209436D02*
X10923634Y-13218960D01*
X10923634Y-13218960D02*
X10904586Y-13228484D01*
X10904586Y-13228484D02*
X10885539Y-13228484D01*
X10885539Y-13228484D02*
X10866491Y-13218960D01*
X10866491Y-13218960D02*
X10856967Y-13209436D01*
X10856967Y-13209436D02*
X10847444Y-13190388D01*
X10847444Y-13190388D02*
X10837920Y-13152293D01*
X10837920Y-13152293D02*
X10837920Y-13104674D01*
X10837920Y-13104674D02*
X10847444Y-13066579D01*
X10847444Y-13066579D02*
X10856967Y-13047531D01*
X10856967Y-13047531D02*
X10866491Y-13038008D01*
X10866491Y-13038008D02*
X10885539Y-13028484D01*
X11037920Y-13228484D02*
X11037920Y-13095150D01*
X11037920Y-13114198D02*
X11047444Y-13104674D01*
X11047444Y-13104674D02*
X11066491Y-13095150D01*
X11066491Y-13095150D02*
X11095063Y-13095150D01*
X11095063Y-13095150D02*
X11114110Y-13104674D01*
X11114110Y-13104674D02*
X11123634Y-13123722D01*
X11123634Y-13123722D02*
X11123634Y-13228484D01*
X11123634Y-13123722D02*
X11133158Y-13104674D01*
X11133158Y-13104674D02*
X11152205Y-13095150D01*
X11152205Y-13095150D02*
X11180777Y-13095150D01*
X11180777Y-13095150D02*
X11199824Y-13104674D01*
X11199824Y-13104674D02*
X11209348Y-13123722D01*
X11209348Y-13123722D02*
X11209348Y-13228484D01*
X11304586Y-13228484D02*
X11304586Y-13095150D01*
X11304586Y-13114198D02*
X11314110Y-13104674D01*
X11314110Y-13104674D02*
X11333158Y-13095150D01*
X11333158Y-13095150D02*
X11361729Y-13095150D01*
X11361729Y-13095150D02*
X11380777Y-13104674D01*
X11380777Y-13104674D02*
X11390301Y-13123722D01*
X11390301Y-13123722D02*
X11390301Y-13228484D01*
X11390301Y-13123722D02*
X11399824Y-13104674D01*
X11399824Y-13104674D02*
X11418872Y-13095150D01*
X11418872Y-13095150D02*
X11447443Y-13095150D01*
X11447443Y-13095150D02*
X11466491Y-13104674D01*
X11466491Y-13104674D02*
X11476015Y-13123722D01*
X11476015Y-13123722D02*
X11476015Y-13228484D01*
X11866491Y-13018960D02*
X11695063Y-13276103D01*
X12123634Y-13028484D02*
X12142682Y-13028484D01*
X12142682Y-13028484D02*
X12161729Y-13038008D01*
X12161729Y-13038008D02*
X12171253Y-13047531D01*
X12171253Y-13047531D02*
X12180777Y-13066579D01*
X12180777Y-13066579D02*
X12190301Y-13104674D01*
X12190301Y-13104674D02*
X12190301Y-13152293D01*
X12190301Y-13152293D02*
X12180777Y-13190388D01*
X12180777Y-13190388D02*
X12171253Y-13209436D01*
X12171253Y-13209436D02*
X12161729Y-13218960D01*
X12161729Y-13218960D02*
X12142682Y-13228484D01*
X12142682Y-13228484D02*
X12123634Y-13228484D01*
X12123634Y-13228484D02*
X12104586Y-13218960D01*
X12104586Y-13218960D02*
X12095063Y-13209436D01*
X12095063Y-13209436D02*
X12085539Y-13190388D01*
X12085539Y-13190388D02*
X12076015Y-13152293D01*
X12076015Y-13152293D02*
X12076015Y-13104674D01*
X12076015Y-13104674D02*
X12085539Y-13066579D01*
X12085539Y-13066579D02*
X12095063Y-13047531D01*
X12095063Y-13047531D02*
X12104586Y-13038008D01*
X12104586Y-13038008D02*
X12123634Y-13028484D01*
X12276015Y-13209436D02*
X12285539Y-13218960D01*
X12285539Y-13218960D02*
X12276015Y-13228484D01*
X12276015Y-13228484D02*
X12266491Y-13218960D01*
X12266491Y-13218960D02*
X12276015Y-13209436D01*
X12276015Y-13209436D02*
X12276015Y-13228484D01*
X12409348Y-13028484D02*
X12428396Y-13028484D01*
X12428396Y-13028484D02*
X12447444Y-13038008D01*
X12447444Y-13038008D02*
X12456967Y-13047531D01*
X12456967Y-13047531D02*
X12466491Y-13066579D01*
X12466491Y-13066579D02*
X12476015Y-13104674D01*
X12476015Y-13104674D02*
X12476015Y-13152293D01*
X12476015Y-13152293D02*
X12466491Y-13190388D01*
X12466491Y-13190388D02*
X12456967Y-13209436D01*
X12456967Y-13209436D02*
X12447444Y-13218960D01*
X12447444Y-13218960D02*
X12428396Y-13228484D01*
X12428396Y-13228484D02*
X12409348Y-13228484D01*
X12409348Y-13228484D02*
X12390301Y-13218960D01*
X12390301Y-13218960D02*
X12380777Y-13209436D01*
X12380777Y-13209436D02*
X12371253Y-13190388D01*
X12371253Y-13190388D02*
X12361729Y-13152293D01*
X12361729Y-13152293D02*
X12361729Y-13104674D01*
X12361729Y-13104674D02*
X12371253Y-13066579D01*
X12371253Y-13066579D02*
X12380777Y-13047531D01*
X12380777Y-13047531D02*
X12390301Y-13038008D01*
X12390301Y-13038008D02*
X12409348Y-13028484D01*
X12542682Y-13028484D02*
X12666491Y-13028484D01*
X12666491Y-13028484D02*
X12599825Y-13104674D01*
X12599825Y-13104674D02*
X12628396Y-13104674D01*
X12628396Y-13104674D02*
X12647444Y-13114198D01*
X12647444Y-13114198D02*
X12656967Y-13123722D01*
X12656967Y-13123722D02*
X12666491Y-13142769D01*
X12666491Y-13142769D02*
X12666491Y-13190388D01*
X12666491Y-13190388D02*
X12656967Y-13209436D01*
X12656967Y-13209436D02*
X12647444Y-13218960D01*
X12647444Y-13218960D02*
X12628396Y-13228484D01*
X12628396Y-13228484D02*
X12571253Y-13228484D01*
X12571253Y-13228484D02*
X12552206Y-13218960D01*
X12552206Y-13218960D02*
X12542682Y-13209436D01*
X12856967Y-13228484D02*
X12742682Y-13228484D01*
X12799825Y-13228484D02*
X12799825Y-13028484D01*
X12799825Y-13028484D02*
X12780777Y-13057055D01*
X12780777Y-13057055D02*
X12761729Y-13076103D01*
X12761729Y-13076103D02*
X12742682Y-13085627D01*
X13037920Y-13028484D02*
X12942682Y-13028484D01*
X12942682Y-13028484D02*
X12933158Y-13123722D01*
X12933158Y-13123722D02*
X12942682Y-13114198D01*
X12942682Y-13114198D02*
X12961729Y-13104674D01*
X12961729Y-13104674D02*
X13009348Y-13104674D01*
X13009348Y-13104674D02*
X13028396Y-13114198D01*
X13028396Y-13114198D02*
X13037920Y-13123722D01*
X13037920Y-13123722D02*
X13047444Y-13142769D01*
X13047444Y-13142769D02*
X13047444Y-13190388D01*
X13047444Y-13190388D02*
X13037920Y-13209436D01*
X13037920Y-13209436D02*
X13028396Y-13218960D01*
X13028396Y-13218960D02*
X13009348Y-13228484D01*
X13009348Y-13228484D02*
X12961729Y-13228484D01*
X12961729Y-13228484D02*
X12942682Y-13218960D01*
X12942682Y-13218960D02*
X12933158Y-13209436D01*
X13123634Y-13028484D02*
X13123634Y-13066579D01*
X13199825Y-13028484D02*
X13199825Y-13066579D01*
X13495063Y-13304674D02*
X13485539Y-13295150D01*
X13485539Y-13295150D02*
X13466491Y-13266579D01*
X13466491Y-13266579D02*
X13456968Y-13247531D01*
X13456968Y-13247531D02*
X13447444Y-13218960D01*
X13447444Y-13218960D02*
X13437920Y-13171341D01*
X13437920Y-13171341D02*
X13437920Y-13133246D01*
X13437920Y-13133246D02*
X13447444Y-13085627D01*
X13447444Y-13085627D02*
X13456968Y-13057055D01*
X13456968Y-13057055D02*
X13466491Y-13038008D01*
X13466491Y-13038008D02*
X13485539Y-13009436D01*
X13485539Y-13009436D02*
X13495063Y-12999912D01*
X13666491Y-13028484D02*
X13571253Y-13028484D01*
X13571253Y-13028484D02*
X13561729Y-13123722D01*
X13561729Y-13123722D02*
X13571253Y-13114198D01*
X13571253Y-13114198D02*
X13590301Y-13104674D01*
X13590301Y-13104674D02*
X13637920Y-13104674D01*
X13637920Y-13104674D02*
X13656968Y-13114198D01*
X13656968Y-13114198D02*
X13666491Y-13123722D01*
X13666491Y-13123722D02*
X13676015Y-13142769D01*
X13676015Y-13142769D02*
X13676015Y-13190388D01*
X13676015Y-13190388D02*
X13666491Y-13209436D01*
X13666491Y-13209436D02*
X13656968Y-13218960D01*
X13656968Y-13218960D02*
X13637920Y-13228484D01*
X13637920Y-13228484D02*
X13590301Y-13228484D01*
X13590301Y-13228484D02*
X13571253Y-13218960D01*
X13571253Y-13218960D02*
X13561729Y-13209436D01*
X13790301Y-13114198D02*
X13771253Y-13104674D01*
X13771253Y-13104674D02*
X13761729Y-13095150D01*
X13761729Y-13095150D02*
X13752206Y-13076103D01*
X13752206Y-13076103D02*
X13752206Y-13066579D01*
X13752206Y-13066579D02*
X13761729Y-13047531D01*
X13761729Y-13047531D02*
X13771253Y-13038008D01*
X13771253Y-13038008D02*
X13790301Y-13028484D01*
X13790301Y-13028484D02*
X13828396Y-13028484D01*
X13828396Y-13028484D02*
X13847444Y-13038008D01*
X13847444Y-13038008D02*
X13856968Y-13047531D01*
X13856968Y-13047531D02*
X13866491Y-13066579D01*
X13866491Y-13066579D02*
X13866491Y-13076103D01*
X13866491Y-13076103D02*
X13856968Y-13095150D01*
X13856968Y-13095150D02*
X13847444Y-13104674D01*
X13847444Y-13104674D02*
X13828396Y-13114198D01*
X13828396Y-13114198D02*
X13790301Y-13114198D01*
X13790301Y-13114198D02*
X13771253Y-13123722D01*
X13771253Y-13123722D02*
X13761729Y-13133246D01*
X13761729Y-13133246D02*
X13752206Y-13152293D01*
X13752206Y-13152293D02*
X13752206Y-13190388D01*
X13752206Y-13190388D02*
X13761729Y-13209436D01*
X13761729Y-13209436D02*
X13771253Y-13218960D01*
X13771253Y-13218960D02*
X13790301Y-13228484D01*
X13790301Y-13228484D02*
X13828396Y-13228484D01*
X13828396Y-13228484D02*
X13847444Y-13218960D01*
X13847444Y-13218960D02*
X13856968Y-13209436D01*
X13856968Y-13209436D02*
X13866491Y-13190388D01*
X13866491Y-13190388D02*
X13866491Y-13152293D01*
X13866491Y-13152293D02*
X13856968Y-13133246D01*
X13856968Y-13133246D02*
X13847444Y-13123722D01*
X13847444Y-13123722D02*
X13828396Y-13114198D01*
X14104587Y-13228484D02*
X14104587Y-13028484D01*
X14190301Y-13228484D02*
X14190301Y-13123722D01*
X14190301Y-13123722D02*
X14180777Y-13104674D01*
X14180777Y-13104674D02*
X14161730Y-13095150D01*
X14161730Y-13095150D02*
X14133158Y-13095150D01*
X14133158Y-13095150D02*
X14114110Y-13104674D01*
X14114110Y-13104674D02*
X14104587Y-13114198D01*
X14314110Y-13228484D02*
X14295063Y-13218960D01*
X14295063Y-13218960D02*
X14285539Y-13209436D01*
X14285539Y-13209436D02*
X14276015Y-13190388D01*
X14276015Y-13190388D02*
X14276015Y-13133246D01*
X14276015Y-13133246D02*
X14285539Y-13114198D01*
X14285539Y-13114198D02*
X14295063Y-13104674D01*
X14295063Y-13104674D02*
X14314110Y-13095150D01*
X14314110Y-13095150D02*
X14342682Y-13095150D01*
X14342682Y-13095150D02*
X14361730Y-13104674D01*
X14361730Y-13104674D02*
X14371253Y-13114198D01*
X14371253Y-13114198D02*
X14380777Y-13133246D01*
X14380777Y-13133246D02*
X14380777Y-13190388D01*
X14380777Y-13190388D02*
X14371253Y-13209436D01*
X14371253Y-13209436D02*
X14361730Y-13218960D01*
X14361730Y-13218960D02*
X14342682Y-13228484D01*
X14342682Y-13228484D02*
X14314110Y-13228484D01*
X14495063Y-13228484D02*
X14476015Y-13218960D01*
X14476015Y-13218960D02*
X14466491Y-13199912D01*
X14466491Y-13199912D02*
X14466491Y-13028484D01*
X14647444Y-13218960D02*
X14628396Y-13228484D01*
X14628396Y-13228484D02*
X14590301Y-13228484D01*
X14590301Y-13228484D02*
X14571253Y-13218960D01*
X14571253Y-13218960D02*
X14561730Y-13199912D01*
X14561730Y-13199912D02*
X14561730Y-13123722D01*
X14561730Y-13123722D02*
X14571253Y-13104674D01*
X14571253Y-13104674D02*
X14590301Y-13095150D01*
X14590301Y-13095150D02*
X14628396Y-13095150D01*
X14628396Y-13095150D02*
X14647444Y-13104674D01*
X14647444Y-13104674D02*
X14656968Y-13123722D01*
X14656968Y-13123722D02*
X14656968Y-13142769D01*
X14656968Y-13142769D02*
X14561730Y-13161817D01*
X14733158Y-13218960D02*
X14752206Y-13228484D01*
X14752206Y-13228484D02*
X14790301Y-13228484D01*
X14790301Y-13228484D02*
X14809349Y-13218960D01*
X14809349Y-13218960D02*
X14818872Y-13199912D01*
X14818872Y-13199912D02*
X14818872Y-13190388D01*
X14818872Y-13190388D02*
X14809349Y-13171341D01*
X14809349Y-13171341D02*
X14790301Y-13161817D01*
X14790301Y-13161817D02*
X14761730Y-13161817D01*
X14761730Y-13161817D02*
X14742682Y-13152293D01*
X14742682Y-13152293D02*
X14733158Y-13133246D01*
X14733158Y-13133246D02*
X14733158Y-13123722D01*
X14733158Y-13123722D02*
X14742682Y-13104674D01*
X14742682Y-13104674D02*
X14761730Y-13095150D01*
X14761730Y-13095150D02*
X14790301Y-13095150D01*
X14790301Y-13095150D02*
X14809349Y-13104674D01*
X14885539Y-13304674D02*
X14895063Y-13295150D01*
X14895063Y-13295150D02*
X14914111Y-13266579D01*
X14914111Y-13266579D02*
X14923634Y-13247531D01*
X14923634Y-13247531D02*
X14933158Y-13218960D01*
X14933158Y-13218960D02*
X14942682Y-13171341D01*
X14942682Y-13171341D02*
X14942682Y-13133246D01*
X14942682Y-13133246D02*
X14933158Y-13085627D01*
X14933158Y-13085627D02*
X14923634Y-13057055D01*
X14923634Y-13057055D02*
X14914111Y-13038008D01*
X14914111Y-13038008D02*
X14895063Y-13009436D01*
X14895063Y-13009436D02*
X14885539Y-12999912D01*
D10*
X9870000Y-13451000D02*
X9920000Y-13401000D01*
X9870000Y-13351000D01*
X9820000Y-13401000D01*
X9870000Y-13451000D01*
D11*
X10285539Y-13492484D02*
X10171253Y-13492484D01*
X10228396Y-13492484D02*
X10228396Y-13292484D01*
X10228396Y-13292484D02*
X10209348Y-13321055D01*
X10209348Y-13321055D02*
X10190301Y-13340103D01*
X10190301Y-13340103D02*
X10171253Y-13349627D01*
X10371253Y-13473436D02*
X10380777Y-13482960D01*
X10380777Y-13482960D02*
X10371253Y-13492484D01*
X10371253Y-13492484D02*
X10361729Y-13482960D01*
X10361729Y-13482960D02*
X10371253Y-13473436D01*
X10371253Y-13473436D02*
X10371253Y-13492484D01*
X10504586Y-13292484D02*
X10523634Y-13292484D01*
X10523634Y-13292484D02*
X10542682Y-13302008D01*
X10542682Y-13302008D02*
X10552205Y-13311531D01*
X10552205Y-13311531D02*
X10561729Y-13330579D01*
X10561729Y-13330579D02*
X10571253Y-13368674D01*
X10571253Y-13368674D02*
X10571253Y-13416293D01*
X10571253Y-13416293D02*
X10561729Y-13454388D01*
X10561729Y-13454388D02*
X10552205Y-13473436D01*
X10552205Y-13473436D02*
X10542682Y-13482960D01*
X10542682Y-13482960D02*
X10523634Y-13492484D01*
X10523634Y-13492484D02*
X10504586Y-13492484D01*
X10504586Y-13492484D02*
X10485539Y-13482960D01*
X10485539Y-13482960D02*
X10476015Y-13473436D01*
X10476015Y-13473436D02*
X10466491Y-13454388D01*
X10466491Y-13454388D02*
X10456967Y-13416293D01*
X10456967Y-13416293D02*
X10456967Y-13368674D01*
X10456967Y-13368674D02*
X10466491Y-13330579D01*
X10466491Y-13330579D02*
X10476015Y-13311531D01*
X10476015Y-13311531D02*
X10485539Y-13302008D01*
X10485539Y-13302008D02*
X10504586Y-13292484D01*
X10695063Y-13292484D02*
X10714110Y-13292484D01*
X10714110Y-13292484D02*
X10733158Y-13302008D01*
X10733158Y-13302008D02*
X10742682Y-13311531D01*
X10742682Y-13311531D02*
X10752205Y-13330579D01*
X10752205Y-13330579D02*
X10761729Y-13368674D01*
X10761729Y-13368674D02*
X10761729Y-13416293D01*
X10761729Y-13416293D02*
X10752205Y-13454388D01*
X10752205Y-13454388D02*
X10742682Y-13473436D01*
X10742682Y-13473436D02*
X10733158Y-13482960D01*
X10733158Y-13482960D02*
X10714110Y-13492484D01*
X10714110Y-13492484D02*
X10695063Y-13492484D01*
X10695063Y-13492484D02*
X10676015Y-13482960D01*
X10676015Y-13482960D02*
X10666491Y-13473436D01*
X10666491Y-13473436D02*
X10656967Y-13454388D01*
X10656967Y-13454388D02*
X10647444Y-13416293D01*
X10647444Y-13416293D02*
X10647444Y-13368674D01*
X10647444Y-13368674D02*
X10656967Y-13330579D01*
X10656967Y-13330579D02*
X10666491Y-13311531D01*
X10666491Y-13311531D02*
X10676015Y-13302008D01*
X10676015Y-13302008D02*
X10695063Y-13292484D01*
X10885539Y-13292484D02*
X10904586Y-13292484D01*
X10904586Y-13292484D02*
X10923634Y-13302008D01*
X10923634Y-13302008D02*
X10933158Y-13311531D01*
X10933158Y-13311531D02*
X10942682Y-13330579D01*
X10942682Y-13330579D02*
X10952205Y-13368674D01*
X10952205Y-13368674D02*
X10952205Y-13416293D01*
X10952205Y-13416293D02*
X10942682Y-13454388D01*
X10942682Y-13454388D02*
X10933158Y-13473436D01*
X10933158Y-13473436D02*
X10923634Y-13482960D01*
X10923634Y-13482960D02*
X10904586Y-13492484D01*
X10904586Y-13492484D02*
X10885539Y-13492484D01*
X10885539Y-13492484D02*
X10866491Y-13482960D01*
X10866491Y-13482960D02*
X10856967Y-13473436D01*
X10856967Y-13473436D02*
X10847444Y-13454388D01*
X10847444Y-13454388D02*
X10837920Y-13416293D01*
X10837920Y-13416293D02*
X10837920Y-13368674D01*
X10837920Y-13368674D02*
X10847444Y-13330579D01*
X10847444Y-13330579D02*
X10856967Y-13311531D01*
X10856967Y-13311531D02*
X10866491Y-13302008D01*
X10866491Y-13302008D02*
X10885539Y-13292484D01*
X11037920Y-13492484D02*
X11037920Y-13359150D01*
X11037920Y-13378198D02*
X11047444Y-13368674D01*
X11047444Y-13368674D02*
X11066491Y-13359150D01*
X11066491Y-13359150D02*
X11095063Y-13359150D01*
X11095063Y-13359150D02*
X11114110Y-13368674D01*
X11114110Y-13368674D02*
X11123634Y-13387722D01*
X11123634Y-13387722D02*
X11123634Y-13492484D01*
X11123634Y-13387722D02*
X11133158Y-13368674D01*
X11133158Y-13368674D02*
X11152205Y-13359150D01*
X11152205Y-13359150D02*
X11180777Y-13359150D01*
X11180777Y-13359150D02*
X11199824Y-13368674D01*
X11199824Y-13368674D02*
X11209348Y-13387722D01*
X11209348Y-13387722D02*
X11209348Y-13492484D01*
X11304586Y-13492484D02*
X11304586Y-13359150D01*
X11304586Y-13378198D02*
X11314110Y-13368674D01*
X11314110Y-13368674D02*
X11333158Y-13359150D01*
X11333158Y-13359150D02*
X11361729Y-13359150D01*
X11361729Y-13359150D02*
X11380777Y-13368674D01*
X11380777Y-13368674D02*
X11390301Y-13387722D01*
X11390301Y-13387722D02*
X11390301Y-13492484D01*
X11390301Y-13387722D02*
X11399824Y-13368674D01*
X11399824Y-13368674D02*
X11418872Y-13359150D01*
X11418872Y-13359150D02*
X11447443Y-13359150D01*
X11447443Y-13359150D02*
X11466491Y-13368674D01*
X11466491Y-13368674D02*
X11476015Y-13387722D01*
X11476015Y-13387722D02*
X11476015Y-13492484D01*
X11866491Y-13282960D02*
X11695063Y-13540103D01*
X12123634Y-13292484D02*
X12142682Y-13292484D01*
X12142682Y-13292484D02*
X12161729Y-13302008D01*
X12161729Y-13302008D02*
X12171253Y-13311531D01*
X12171253Y-13311531D02*
X12180777Y-13330579D01*
X12180777Y-13330579D02*
X12190301Y-13368674D01*
X12190301Y-13368674D02*
X12190301Y-13416293D01*
X12190301Y-13416293D02*
X12180777Y-13454388D01*
X12180777Y-13454388D02*
X12171253Y-13473436D01*
X12171253Y-13473436D02*
X12161729Y-13482960D01*
X12161729Y-13482960D02*
X12142682Y-13492484D01*
X12142682Y-13492484D02*
X12123634Y-13492484D01*
X12123634Y-13492484D02*
X12104586Y-13482960D01*
X12104586Y-13482960D02*
X12095063Y-13473436D01*
X12095063Y-13473436D02*
X12085539Y-13454388D01*
X12085539Y-13454388D02*
X12076015Y-13416293D01*
X12076015Y-13416293D02*
X12076015Y-13368674D01*
X12076015Y-13368674D02*
X12085539Y-13330579D01*
X12085539Y-13330579D02*
X12095063Y-13311531D01*
X12095063Y-13311531D02*
X12104586Y-13302008D01*
X12104586Y-13302008D02*
X12123634Y-13292484D01*
X12276015Y-13473436D02*
X12285539Y-13482960D01*
X12285539Y-13482960D02*
X12276015Y-13492484D01*
X12276015Y-13492484D02*
X12266491Y-13482960D01*
X12266491Y-13482960D02*
X12276015Y-13473436D01*
X12276015Y-13473436D02*
X12276015Y-13492484D01*
X12409348Y-13292484D02*
X12428396Y-13292484D01*
X12428396Y-13292484D02*
X12447444Y-13302008D01*
X12447444Y-13302008D02*
X12456967Y-13311531D01*
X12456967Y-13311531D02*
X12466491Y-13330579D01*
X12466491Y-13330579D02*
X12476015Y-13368674D01*
X12476015Y-13368674D02*
X12476015Y-13416293D01*
X12476015Y-13416293D02*
X12466491Y-13454388D01*
X12466491Y-13454388D02*
X12456967Y-13473436D01*
X12456967Y-13473436D02*
X12447444Y-13482960D01*
X12447444Y-13482960D02*
X12428396Y-13492484D01*
X12428396Y-13492484D02*
X12409348Y-13492484D01*
X12409348Y-13492484D02*
X12390301Y-13482960D01*
X12390301Y-13482960D02*
X12380777Y-13473436D01*
X12380777Y-13473436D02*
X12371253Y-13454388D01*
X12371253Y-13454388D02*
X12361729Y-13416293D01*
X12361729Y-13416293D02*
X12361729Y-13368674D01*
X12361729Y-13368674D02*
X12371253Y-13330579D01*
X12371253Y-13330579D02*
X12380777Y-13311531D01*
X12380777Y-13311531D02*
X12390301Y-13302008D01*
X12390301Y-13302008D02*
X12409348Y-13292484D01*
X12542682Y-13292484D02*
X12666491Y-13292484D01*
X12666491Y-13292484D02*
X12599825Y-13368674D01*
X12599825Y-13368674D02*
X12628396Y-13368674D01*
X12628396Y-13368674D02*
X12647444Y-13378198D01*
X12647444Y-13378198D02*
X12656967Y-13387722D01*
X12656967Y-13387722D02*
X12666491Y-13406769D01*
X12666491Y-13406769D02*
X12666491Y-13454388D01*
X12666491Y-13454388D02*
X12656967Y-13473436D01*
X12656967Y-13473436D02*
X12647444Y-13482960D01*
X12647444Y-13482960D02*
X12628396Y-13492484D01*
X12628396Y-13492484D02*
X12571253Y-13492484D01*
X12571253Y-13492484D02*
X12552206Y-13482960D01*
X12552206Y-13482960D02*
X12542682Y-13473436D01*
X12761729Y-13492484D02*
X12799825Y-13492484D01*
X12799825Y-13492484D02*
X12818872Y-13482960D01*
X12818872Y-13482960D02*
X12828396Y-13473436D01*
X12828396Y-13473436D02*
X12847444Y-13444865D01*
X12847444Y-13444865D02*
X12856967Y-13406769D01*
X12856967Y-13406769D02*
X12856967Y-13330579D01*
X12856967Y-13330579D02*
X12847444Y-13311531D01*
X12847444Y-13311531D02*
X12837920Y-13302008D01*
X12837920Y-13302008D02*
X12818872Y-13292484D01*
X12818872Y-13292484D02*
X12780777Y-13292484D01*
X12780777Y-13292484D02*
X12761729Y-13302008D01*
X12761729Y-13302008D02*
X12752206Y-13311531D01*
X12752206Y-13311531D02*
X12742682Y-13330579D01*
X12742682Y-13330579D02*
X12742682Y-13378198D01*
X12742682Y-13378198D02*
X12752206Y-13397246D01*
X12752206Y-13397246D02*
X12761729Y-13406769D01*
X12761729Y-13406769D02*
X12780777Y-13416293D01*
X12780777Y-13416293D02*
X12818872Y-13416293D01*
X12818872Y-13416293D02*
X12837920Y-13406769D01*
X12837920Y-13406769D02*
X12847444Y-13397246D01*
X12847444Y-13397246D02*
X12856967Y-13378198D01*
X13028396Y-13359150D02*
X13028396Y-13492484D01*
X12980777Y-13282960D02*
X12933158Y-13425817D01*
X12933158Y-13425817D02*
X13056967Y-13425817D01*
X13123634Y-13292484D02*
X13123634Y-13330579D01*
X13199825Y-13292484D02*
X13199825Y-13330579D01*
X13495063Y-13568674D02*
X13485539Y-13559150D01*
X13485539Y-13559150D02*
X13466491Y-13530579D01*
X13466491Y-13530579D02*
X13456968Y-13511531D01*
X13456968Y-13511531D02*
X13447444Y-13482960D01*
X13447444Y-13482960D02*
X13437920Y-13435341D01*
X13437920Y-13435341D02*
X13437920Y-13397246D01*
X13437920Y-13397246D02*
X13447444Y-13349627D01*
X13447444Y-13349627D02*
X13456968Y-13321055D01*
X13456968Y-13321055D02*
X13466491Y-13302008D01*
X13466491Y-13302008D02*
X13485539Y-13273436D01*
X13485539Y-13273436D02*
X13495063Y-13263912D01*
X13552206Y-13292484D02*
X13676015Y-13292484D01*
X13676015Y-13292484D02*
X13609348Y-13368674D01*
X13609348Y-13368674D02*
X13637920Y-13368674D01*
X13637920Y-13368674D02*
X13656968Y-13378198D01*
X13656968Y-13378198D02*
X13666491Y-13387722D01*
X13666491Y-13387722D02*
X13676015Y-13406769D01*
X13676015Y-13406769D02*
X13676015Y-13454388D01*
X13676015Y-13454388D02*
X13666491Y-13473436D01*
X13666491Y-13473436D02*
X13656968Y-13482960D01*
X13656968Y-13482960D02*
X13637920Y-13492484D01*
X13637920Y-13492484D02*
X13580777Y-13492484D01*
X13580777Y-13492484D02*
X13561729Y-13482960D01*
X13561729Y-13482960D02*
X13552206Y-13473436D01*
X13752206Y-13311531D02*
X13761729Y-13302008D01*
X13761729Y-13302008D02*
X13780777Y-13292484D01*
X13780777Y-13292484D02*
X13828396Y-13292484D01*
X13828396Y-13292484D02*
X13847444Y-13302008D01*
X13847444Y-13302008D02*
X13856968Y-13311531D01*
X13856968Y-13311531D02*
X13866491Y-13330579D01*
X13866491Y-13330579D02*
X13866491Y-13349627D01*
X13866491Y-13349627D02*
X13856968Y-13378198D01*
X13856968Y-13378198D02*
X13742682Y-13492484D01*
X13742682Y-13492484D02*
X13866491Y-13492484D01*
X14104587Y-13492484D02*
X14104587Y-13292484D01*
X14190301Y-13492484D02*
X14190301Y-13387722D01*
X14190301Y-13387722D02*
X14180777Y-13368674D01*
X14180777Y-13368674D02*
X14161730Y-13359150D01*
X14161730Y-13359150D02*
X14133158Y-13359150D01*
X14133158Y-13359150D02*
X14114110Y-13368674D01*
X14114110Y-13368674D02*
X14104587Y-13378198D01*
X14314110Y-13492484D02*
X14295063Y-13482960D01*
X14295063Y-13482960D02*
X14285539Y-13473436D01*
X14285539Y-13473436D02*
X14276015Y-13454388D01*
X14276015Y-13454388D02*
X14276015Y-13397246D01*
X14276015Y-13397246D02*
X14285539Y-13378198D01*
X14285539Y-13378198D02*
X14295063Y-13368674D01*
X14295063Y-13368674D02*
X14314110Y-13359150D01*
X14314110Y-13359150D02*
X14342682Y-13359150D01*
X14342682Y-13359150D02*
X14361730Y-13368674D01*
X14361730Y-13368674D02*
X14371253Y-13378198D01*
X14371253Y-13378198D02*
X14380777Y-13397246D01*
X14380777Y-13397246D02*
X14380777Y-13454388D01*
X14380777Y-13454388D02*
X14371253Y-13473436D01*
X14371253Y-13473436D02*
X14361730Y-13482960D01*
X14361730Y-13482960D02*
X14342682Y-13492484D01*
X14342682Y-13492484D02*
X14314110Y-13492484D01*
X14495063Y-13492484D02*
X14476015Y-13482960D01*
X14476015Y-13482960D02*
X14466491Y-13463912D01*
X14466491Y-13463912D02*
X14466491Y-13292484D01*
X14647444Y-13482960D02*
X14628396Y-13492484D01*
X14628396Y-13492484D02*
X14590301Y-13492484D01*
X14590301Y-13492484D02*
X14571253Y-13482960D01*
X14571253Y-13482960D02*
X14561730Y-13463912D01*
X14561730Y-13463912D02*
X14561730Y-13387722D01*
X14561730Y-13387722D02*
X14571253Y-13368674D01*
X14571253Y-13368674D02*
X14590301Y-13359150D01*
X14590301Y-13359150D02*
X14628396Y-13359150D01*
X14628396Y-13359150D02*
X14647444Y-13368674D01*
X14647444Y-13368674D02*
X14656968Y-13387722D01*
X14656968Y-13387722D02*
X14656968Y-13406769D01*
X14656968Y-13406769D02*
X14561730Y-13425817D01*
X14733158Y-13482960D02*
X14752206Y-13492484D01*
X14752206Y-13492484D02*
X14790301Y-13492484D01*
X14790301Y-13492484D02*
X14809349Y-13482960D01*
X14809349Y-13482960D02*
X14818872Y-13463912D01*
X14818872Y-13463912D02*
X14818872Y-13454388D01*
X14818872Y-13454388D02*
X14809349Y-13435341D01*
X14809349Y-13435341D02*
X14790301Y-13425817D01*
X14790301Y-13425817D02*
X14761730Y-13425817D01*
X14761730Y-13425817D02*
X14742682Y-13416293D01*
X14742682Y-13416293D02*
X14733158Y-13397246D01*
X14733158Y-13397246D02*
X14733158Y-13387722D01*
X14733158Y-13387722D02*
X14742682Y-13368674D01*
X14742682Y-13368674D02*
X14761730Y-13359150D01*
X14761730Y-13359150D02*
X14790301Y-13359150D01*
X14790301Y-13359150D02*
X14809349Y-13368674D01*
X14885539Y-13568674D02*
X14895063Y-13559150D01*
X14895063Y-13559150D02*
X14914111Y-13530579D01*
X14914111Y-13530579D02*
X14923634Y-13511531D01*
X14923634Y-13511531D02*
X14933158Y-13482960D01*
X14933158Y-13482960D02*
X14942682Y-13435341D01*
X14942682Y-13435341D02*
X14942682Y-13397246D01*
X14942682Y-13397246D02*
X14933158Y-13349627D01*
X14933158Y-13349627D02*
X14923634Y-13321055D01*
X14923634Y-13321055D02*
X14914111Y-13302008D01*
X14914111Y-13302008D02*
X14895063Y-13273436D01*
X14895063Y-13273436D02*
X14885539Y-13263912D01*
D16*
X9790000Y-13600000D02*
X9920000Y-13730000D01*
X9920000Y-13600000D02*
X9790000Y-13730000D01*
X9920000Y-13665000D02*
G75*
G03*
X9920000Y-13665000I-65000J0D01*
G01*
D11*
X10285539Y-13756484D02*
X10171253Y-13756484D01*
X10228396Y-13756484D02*
X10228396Y-13556484D01*
X10228396Y-13556484D02*
X10209348Y-13585055D01*
X10209348Y-13585055D02*
X10190301Y-13604103D01*
X10190301Y-13604103D02*
X10171253Y-13613627D01*
X10371253Y-13737436D02*
X10380777Y-13746960D01*
X10380777Y-13746960D02*
X10371253Y-13756484D01*
X10371253Y-13756484D02*
X10361729Y-13746960D01*
X10361729Y-13746960D02*
X10371253Y-13737436D01*
X10371253Y-13737436D02*
X10371253Y-13756484D01*
X10447444Y-13556484D02*
X10571253Y-13556484D01*
X10571253Y-13556484D02*
X10504586Y-13632674D01*
X10504586Y-13632674D02*
X10533158Y-13632674D01*
X10533158Y-13632674D02*
X10552205Y-13642198D01*
X10552205Y-13642198D02*
X10561729Y-13651722D01*
X10561729Y-13651722D02*
X10571253Y-13670769D01*
X10571253Y-13670769D02*
X10571253Y-13718388D01*
X10571253Y-13718388D02*
X10561729Y-13737436D01*
X10561729Y-13737436D02*
X10552205Y-13746960D01*
X10552205Y-13746960D02*
X10533158Y-13756484D01*
X10533158Y-13756484D02*
X10476015Y-13756484D01*
X10476015Y-13756484D02*
X10456967Y-13746960D01*
X10456967Y-13746960D02*
X10447444Y-13737436D01*
X10695063Y-13556484D02*
X10714110Y-13556484D01*
X10714110Y-13556484D02*
X10733158Y-13566008D01*
X10733158Y-13566008D02*
X10742682Y-13575531D01*
X10742682Y-13575531D02*
X10752205Y-13594579D01*
X10752205Y-13594579D02*
X10761729Y-13632674D01*
X10761729Y-13632674D02*
X10761729Y-13680293D01*
X10761729Y-13680293D02*
X10752205Y-13718388D01*
X10752205Y-13718388D02*
X10742682Y-13737436D01*
X10742682Y-13737436D02*
X10733158Y-13746960D01*
X10733158Y-13746960D02*
X10714110Y-13756484D01*
X10714110Y-13756484D02*
X10695063Y-13756484D01*
X10695063Y-13756484D02*
X10676015Y-13746960D01*
X10676015Y-13746960D02*
X10666491Y-13737436D01*
X10666491Y-13737436D02*
X10656967Y-13718388D01*
X10656967Y-13718388D02*
X10647444Y-13680293D01*
X10647444Y-13680293D02*
X10647444Y-13632674D01*
X10647444Y-13632674D02*
X10656967Y-13594579D01*
X10656967Y-13594579D02*
X10666491Y-13575531D01*
X10666491Y-13575531D02*
X10676015Y-13566008D01*
X10676015Y-13566008D02*
X10695063Y-13556484D01*
X10885539Y-13556484D02*
X10904586Y-13556484D01*
X10904586Y-13556484D02*
X10923634Y-13566008D01*
X10923634Y-13566008D02*
X10933158Y-13575531D01*
X10933158Y-13575531D02*
X10942682Y-13594579D01*
X10942682Y-13594579D02*
X10952205Y-13632674D01*
X10952205Y-13632674D02*
X10952205Y-13680293D01*
X10952205Y-13680293D02*
X10942682Y-13718388D01*
X10942682Y-13718388D02*
X10933158Y-13737436D01*
X10933158Y-13737436D02*
X10923634Y-13746960D01*
X10923634Y-13746960D02*
X10904586Y-13756484D01*
X10904586Y-13756484D02*
X10885539Y-13756484D01*
X10885539Y-13756484D02*
X10866491Y-13746960D01*
X10866491Y-13746960D02*
X10856967Y-13737436D01*
X10856967Y-13737436D02*
X10847444Y-13718388D01*
X10847444Y-13718388D02*
X10837920Y-13680293D01*
X10837920Y-13680293D02*
X10837920Y-13632674D01*
X10837920Y-13632674D02*
X10847444Y-13594579D01*
X10847444Y-13594579D02*
X10856967Y-13575531D01*
X10856967Y-13575531D02*
X10866491Y-13566008D01*
X10866491Y-13566008D02*
X10885539Y-13556484D01*
X11037920Y-13756484D02*
X11037920Y-13623150D01*
X11037920Y-13642198D02*
X11047444Y-13632674D01*
X11047444Y-13632674D02*
X11066491Y-13623150D01*
X11066491Y-13623150D02*
X11095063Y-13623150D01*
X11095063Y-13623150D02*
X11114110Y-13632674D01*
X11114110Y-13632674D02*
X11123634Y-13651722D01*
X11123634Y-13651722D02*
X11123634Y-13756484D01*
X11123634Y-13651722D02*
X11133158Y-13632674D01*
X11133158Y-13632674D02*
X11152205Y-13623150D01*
X11152205Y-13623150D02*
X11180777Y-13623150D01*
X11180777Y-13623150D02*
X11199824Y-13632674D01*
X11199824Y-13632674D02*
X11209348Y-13651722D01*
X11209348Y-13651722D02*
X11209348Y-13756484D01*
X11304586Y-13756484D02*
X11304586Y-13623150D01*
X11304586Y-13642198D02*
X11314110Y-13632674D01*
X11314110Y-13632674D02*
X11333158Y-13623150D01*
X11333158Y-13623150D02*
X11361729Y-13623150D01*
X11361729Y-13623150D02*
X11380777Y-13632674D01*
X11380777Y-13632674D02*
X11390301Y-13651722D01*
X11390301Y-13651722D02*
X11390301Y-13756484D01*
X11390301Y-13651722D02*
X11399824Y-13632674D01*
X11399824Y-13632674D02*
X11418872Y-13623150D01*
X11418872Y-13623150D02*
X11447443Y-13623150D01*
X11447443Y-13623150D02*
X11466491Y-13632674D01*
X11466491Y-13632674D02*
X11476015Y-13651722D01*
X11476015Y-13651722D02*
X11476015Y-13756484D01*
X11866491Y-13546960D02*
X11695063Y-13804103D01*
X12123634Y-13556484D02*
X12142682Y-13556484D01*
X12142682Y-13556484D02*
X12161729Y-13566008D01*
X12161729Y-13566008D02*
X12171253Y-13575531D01*
X12171253Y-13575531D02*
X12180777Y-13594579D01*
X12180777Y-13594579D02*
X12190301Y-13632674D01*
X12190301Y-13632674D02*
X12190301Y-13680293D01*
X12190301Y-13680293D02*
X12180777Y-13718388D01*
X12180777Y-13718388D02*
X12171253Y-13737436D01*
X12171253Y-13737436D02*
X12161729Y-13746960D01*
X12161729Y-13746960D02*
X12142682Y-13756484D01*
X12142682Y-13756484D02*
X12123634Y-13756484D01*
X12123634Y-13756484D02*
X12104586Y-13746960D01*
X12104586Y-13746960D02*
X12095063Y-13737436D01*
X12095063Y-13737436D02*
X12085539Y-13718388D01*
X12085539Y-13718388D02*
X12076015Y-13680293D01*
X12076015Y-13680293D02*
X12076015Y-13632674D01*
X12076015Y-13632674D02*
X12085539Y-13594579D01*
X12085539Y-13594579D02*
X12095063Y-13575531D01*
X12095063Y-13575531D02*
X12104586Y-13566008D01*
X12104586Y-13566008D02*
X12123634Y-13556484D01*
X12276015Y-13737436D02*
X12285539Y-13746960D01*
X12285539Y-13746960D02*
X12276015Y-13756484D01*
X12276015Y-13756484D02*
X12266491Y-13746960D01*
X12266491Y-13746960D02*
X12276015Y-13737436D01*
X12276015Y-13737436D02*
X12276015Y-13756484D01*
X12409348Y-13556484D02*
X12428396Y-13556484D01*
X12428396Y-13556484D02*
X12447444Y-13566008D01*
X12447444Y-13566008D02*
X12456967Y-13575531D01*
X12456967Y-13575531D02*
X12466491Y-13594579D01*
X12466491Y-13594579D02*
X12476015Y-13632674D01*
X12476015Y-13632674D02*
X12476015Y-13680293D01*
X12476015Y-13680293D02*
X12466491Y-13718388D01*
X12466491Y-13718388D02*
X12456967Y-13737436D01*
X12456967Y-13737436D02*
X12447444Y-13746960D01*
X12447444Y-13746960D02*
X12428396Y-13756484D01*
X12428396Y-13756484D02*
X12409348Y-13756484D01*
X12409348Y-13756484D02*
X12390301Y-13746960D01*
X12390301Y-13746960D02*
X12380777Y-13737436D01*
X12380777Y-13737436D02*
X12371253Y-13718388D01*
X12371253Y-13718388D02*
X12361729Y-13680293D01*
X12361729Y-13680293D02*
X12361729Y-13632674D01*
X12361729Y-13632674D02*
X12371253Y-13594579D01*
X12371253Y-13594579D02*
X12380777Y-13575531D01*
X12380777Y-13575531D02*
X12390301Y-13566008D01*
X12390301Y-13566008D02*
X12409348Y-13556484D01*
X12656967Y-13556484D02*
X12561729Y-13556484D01*
X12561729Y-13556484D02*
X12552206Y-13651722D01*
X12552206Y-13651722D02*
X12561729Y-13642198D01*
X12561729Y-13642198D02*
X12580777Y-13632674D01*
X12580777Y-13632674D02*
X12628396Y-13632674D01*
X12628396Y-13632674D02*
X12647444Y-13642198D01*
X12647444Y-13642198D02*
X12656967Y-13651722D01*
X12656967Y-13651722D02*
X12666491Y-13670769D01*
X12666491Y-13670769D02*
X12666491Y-13718388D01*
X12666491Y-13718388D02*
X12656967Y-13737436D01*
X12656967Y-13737436D02*
X12647444Y-13746960D01*
X12647444Y-13746960D02*
X12628396Y-13756484D01*
X12628396Y-13756484D02*
X12580777Y-13756484D01*
X12580777Y-13756484D02*
X12561729Y-13746960D01*
X12561729Y-13746960D02*
X12552206Y-13737436D01*
X12856967Y-13756484D02*
X12742682Y-13756484D01*
X12799825Y-13756484D02*
X12799825Y-13556484D01*
X12799825Y-13556484D02*
X12780777Y-13585055D01*
X12780777Y-13585055D02*
X12761729Y-13604103D01*
X12761729Y-13604103D02*
X12742682Y-13613627D01*
X12933158Y-13575531D02*
X12942682Y-13566008D01*
X12942682Y-13566008D02*
X12961729Y-13556484D01*
X12961729Y-13556484D02*
X13009348Y-13556484D01*
X13009348Y-13556484D02*
X13028396Y-13566008D01*
X13028396Y-13566008D02*
X13037920Y-13575531D01*
X13037920Y-13575531D02*
X13047444Y-13594579D01*
X13047444Y-13594579D02*
X13047444Y-13613627D01*
X13047444Y-13613627D02*
X13037920Y-13642198D01*
X13037920Y-13642198D02*
X12923634Y-13756484D01*
X12923634Y-13756484D02*
X13047444Y-13756484D01*
X13123634Y-13556484D02*
X13123634Y-13594579D01*
X13199825Y-13556484D02*
X13199825Y-13594579D01*
X13495063Y-13832674D02*
X13485539Y-13823150D01*
X13485539Y-13823150D02*
X13466491Y-13794579D01*
X13466491Y-13794579D02*
X13456968Y-13775531D01*
X13456968Y-13775531D02*
X13447444Y-13746960D01*
X13447444Y-13746960D02*
X13437920Y-13699341D01*
X13437920Y-13699341D02*
X13437920Y-13661246D01*
X13437920Y-13661246D02*
X13447444Y-13613627D01*
X13447444Y-13613627D02*
X13456968Y-13585055D01*
X13456968Y-13585055D02*
X13466491Y-13566008D01*
X13466491Y-13566008D02*
X13485539Y-13537436D01*
X13485539Y-13537436D02*
X13495063Y-13527912D01*
X13561729Y-13575531D02*
X13571253Y-13566008D01*
X13571253Y-13566008D02*
X13590301Y-13556484D01*
X13590301Y-13556484D02*
X13637920Y-13556484D01*
X13637920Y-13556484D02*
X13656968Y-13566008D01*
X13656968Y-13566008D02*
X13666491Y-13575531D01*
X13666491Y-13575531D02*
X13676015Y-13594579D01*
X13676015Y-13594579D02*
X13676015Y-13613627D01*
X13676015Y-13613627D02*
X13666491Y-13642198D01*
X13666491Y-13642198D02*
X13552206Y-13756484D01*
X13552206Y-13756484D02*
X13676015Y-13756484D01*
X13847444Y-13623150D02*
X13847444Y-13756484D01*
X13799825Y-13546960D02*
X13752206Y-13689817D01*
X13752206Y-13689817D02*
X13876015Y-13689817D01*
X14104587Y-13756484D02*
X14104587Y-13556484D01*
X14190301Y-13756484D02*
X14190301Y-13651722D01*
X14190301Y-13651722D02*
X14180777Y-13632674D01*
X14180777Y-13632674D02*
X14161730Y-13623150D01*
X14161730Y-13623150D02*
X14133158Y-13623150D01*
X14133158Y-13623150D02*
X14114110Y-13632674D01*
X14114110Y-13632674D02*
X14104587Y-13642198D01*
X14314110Y-13756484D02*
X14295063Y-13746960D01*
X14295063Y-13746960D02*
X14285539Y-13737436D01*
X14285539Y-13737436D02*
X14276015Y-13718388D01*
X14276015Y-13718388D02*
X14276015Y-13661246D01*
X14276015Y-13661246D02*
X14285539Y-13642198D01*
X14285539Y-13642198D02*
X14295063Y-13632674D01*
X14295063Y-13632674D02*
X14314110Y-13623150D01*
X14314110Y-13623150D02*
X14342682Y-13623150D01*
X14342682Y-13623150D02*
X14361730Y-13632674D01*
X14361730Y-13632674D02*
X14371253Y-13642198D01*
X14371253Y-13642198D02*
X14380777Y-13661246D01*
X14380777Y-13661246D02*
X14380777Y-13718388D01*
X14380777Y-13718388D02*
X14371253Y-13737436D01*
X14371253Y-13737436D02*
X14361730Y-13746960D01*
X14361730Y-13746960D02*
X14342682Y-13756484D01*
X14342682Y-13756484D02*
X14314110Y-13756484D01*
X14495063Y-13756484D02*
X14476015Y-13746960D01*
X14476015Y-13746960D02*
X14466491Y-13727912D01*
X14466491Y-13727912D02*
X14466491Y-13556484D01*
X14647444Y-13746960D02*
X14628396Y-13756484D01*
X14628396Y-13756484D02*
X14590301Y-13756484D01*
X14590301Y-13756484D02*
X14571253Y-13746960D01*
X14571253Y-13746960D02*
X14561730Y-13727912D01*
X14561730Y-13727912D02*
X14561730Y-13651722D01*
X14561730Y-13651722D02*
X14571253Y-13632674D01*
X14571253Y-13632674D02*
X14590301Y-13623150D01*
X14590301Y-13623150D02*
X14628396Y-13623150D01*
X14628396Y-13623150D02*
X14647444Y-13632674D01*
X14647444Y-13632674D02*
X14656968Y-13651722D01*
X14656968Y-13651722D02*
X14656968Y-13670769D01*
X14656968Y-13670769D02*
X14561730Y-13689817D01*
X14733158Y-13746960D02*
X14752206Y-13756484D01*
X14752206Y-13756484D02*
X14790301Y-13756484D01*
X14790301Y-13756484D02*
X14809349Y-13746960D01*
X14809349Y-13746960D02*
X14818872Y-13727912D01*
X14818872Y-13727912D02*
X14818872Y-13718388D01*
X14818872Y-13718388D02*
X14809349Y-13699341D01*
X14809349Y-13699341D02*
X14790301Y-13689817D01*
X14790301Y-13689817D02*
X14761730Y-13689817D01*
X14761730Y-13689817D02*
X14742682Y-13680293D01*
X14742682Y-13680293D02*
X14733158Y-13661246D01*
X14733158Y-13661246D02*
X14733158Y-13651722D01*
X14733158Y-13651722D02*
X14742682Y-13632674D01*
X14742682Y-13632674D02*
X14761730Y-13623150D01*
X14761730Y-13623150D02*
X14790301Y-13623150D01*
X14790301Y-13623150D02*
X14809349Y-13632674D01*
X14885539Y-13832674D02*
X14895063Y-13823150D01*
X14895063Y-13823150D02*
X14914111Y-13794579D01*
X14914111Y-13794579D02*
X14923634Y-13775531D01*
X14923634Y-13775531D02*
X14933158Y-13746960D01*
X14933158Y-13746960D02*
X14942682Y-13699341D01*
X14942682Y-13699341D02*
X14942682Y-13661246D01*
X14942682Y-13661246D02*
X14933158Y-13613627D01*
X14933158Y-13613627D02*
X14923634Y-13585055D01*
X14923634Y-13585055D02*
X14914111Y-13566008D01*
X14914111Y-13566008D02*
X14895063Y-13537436D01*
X14895063Y-13537436D02*
X14885539Y-13527912D01*
M02*
